<svg width="52" height="52" viewBox="0 0 52 52" fill="none" xmlns="http://www.w3.org/2000/svg">
<path d="M35.2116 8.54761C34.8532 3.77742 30.8603 0.00488281 26 0.00488281C21.1397 0.00488281 17.1467 3.77732 16.7883 8.54761H0V29.8196H2.80323V50.7855H49.1966V29.8196H52V8.54761H35.2116ZM26 3.39626C28.9891 3.39626 31.46 5.65034 31.8062 8.54761H20.1937C20.5399 5.65023 23.0109 3.39626 26 3.39626ZM45.8053 47.394H6.1946V29.8196H19.5662V34.8495H32.434V29.8196H45.8054V47.394H45.8053ZM22.9574 31.4581V26.9141H29.0425V31.4581H22.9574ZM48.6087 26.4283H32.4339V23.5229H19.5661V26.4283H3.39127V11.9389H48.6086V26.4283H48.6087Z" fill="url(#paint0_linear)"/>
<defs>
<linearGradient id="paint0_linear" x1="-2.98972e-07" y1="51.0417" x2="63.8467" y2="34.7241" gradientUnits="userSpaceOnUse">
<stop stop-color="#7D4DCF"/>
<stop offset="0.432292" stop-color="#2F49D9"/>
<stop offset="1" stop-color="#212071"/>
</linearGradient>
</defs>
</svg>
