<svg width="52" height="52" viewBox="0 0 52 52" fill="none" xmlns="http://www.w3.org/2000/svg">
<path fill-rule="evenodd" clip-rule="evenodd" d="M13.6567 5C6.12649 5 0 11.1265 0 18.6567C0 21.6164 0.956916 24.3512 2.56048 26.5887L2.57401 26.6076L4.25035 28.5328L4.26727 28.5488C4.79636 29.051 5.36221 29.5215 5.97393 29.9396L5.98999 29.9506L7.66645 30.9112L7.68075 30.9182C8.22833 31.1864 8.79631 31.4256 9.38836 31.6213L9.40357 31.6263L11.0803 32.0614L11.0959 32.0644C11.5586 32.1529 12.0283 32.2125 12.5013 32.2497C12.3994 32.9147 12.3433 33.5956 12.3433 34.2915C12.3433 41.8218 18.4698 47.9483 26 47.9483C33.5302 47.9483 39.6567 41.8218 39.6567 34.2915C39.6567 33.5956 39.6006 32.9146 39.4987 32.2496C39.972 32.2122 40.4412 32.1524 40.9035 32.0646L40.9194 32.0615L42.5964 31.6263L42.6116 31.6213C43.2037 31.4256 43.7715 31.1865 44.3187 30.9193L44.3335 30.9121L46.0101 29.9493L46.0259 29.9386C46.6375 29.5209 47.2035 29.0512 47.733 28.5478L47.7497 28.5319L49.426 26.6076L49.4395 26.5887C51.0431 24.3512 52 21.6164 52 18.6567C52 11.1265 45.8735 5 38.3433 5C36.5311 5 34.8038 5.36204 33.2212 6.00568L33.2048 6.01235L31.5283 6.83952L31.514 6.8478C30.9176 7.19378 30.3457 7.58041 29.8073 8.01263L29.7902 8.02637L28.1139 9.63841L28.1004 9.65372C27.453 10.3892 26.8748 11.1905 26.3936 12.0598L25.9762 12.8613L25.6159 12.0766L25.6078 12.0618C25.0719 11.0792 24.5436 10.3846 23.8996 9.65292L23.886 9.63756L22.2097 8.02633L22.1927 8.01263C21.6543 7.58041 21.0824 7.19378 20.486 6.8478L20.4717 6.83952L18.7952 6.01235L18.7788 6.00568C17.1962 5.36204 15.4689 5 13.6567 5ZM5.43891 17.3433H2.71744C3.3693 11.8792 8.02195 7.6269 13.6567 7.6269C19.0047 7.6269 23.4665 11.4587 24.4643 16.5204H17.7821L17.0398 18.0055L14.4374 11.9342L11.4773 19.3351L9.13292 9.95617L5.43891 17.3433ZM27.3134 18.6567C27.3134 12.5748 32.2614 7.6269 38.3433 7.6269C44.4252 7.6269 49.3731 12.5748 49.3731 18.6567C49.3731 24.5702 44.6923 29.4068 38.8414 29.6691C38.6755 29.2097 38.4857 28.7616 38.2734 28.3265L38.3434 28.4315L44.8595 18.6573L38.3434 8.88307L31.8273 18.6573L36.2452 25.2842C34.0571 22.7978 30.9803 21.1128 27.513 20.7287C27.3825 20.0475 27.3134 19.3545 27.3134 18.6567ZM7.06346 19.9702L8.30685 17.4828L10.8997 27.8526L14.5225 18.7963L16.833 24.1885C15.1978 25.6737 13.9236 27.5499 13.1586 29.6691C7.74939 29.426 3.35033 25.2705 2.71749 19.9702H7.06346ZM24.4869 20.728C21.6015 21.048 18.9864 22.2686 16.9289 24.1023L19.4059 19.1473H24.6752C24.6507 19.6785 24.5868 20.2068 24.4869 20.728ZM14.9702 34.2915C14.9702 28.2096 19.9181 23.2617 26 23.2617C32.0819 23.2617 37.0298 28.2096 37.0298 34.2915C37.0298 40.3735 32.0819 45.3214 26 45.3214C19.9181 45.3214 14.9702 40.3735 14.9702 34.2915ZM27.3136 26.3949H24.6867V28.0406H22.218V40.5422H24.6867V42.1879H27.3136V40.5105C29.1687 40.2695 30.6051 38.6801 30.6051 36.7601C30.6051 35.8178 30.2585 34.9538 29.6866 34.2914C30.2585 33.629 30.6051 32.765 30.6051 31.8227C30.6051 29.9027 29.1687 28.3133 27.3136 28.0723V26.3949ZM24.8449 32.9779V30.6675H26.823C27.4597 30.6675 27.9782 31.186 27.9782 31.8227C27.9782 32.4595 27.4597 32.9779 26.823 32.9779H24.8449ZM24.8449 37.9153V35.6049H26.823C27.4597 35.6049 27.9782 36.1233 27.9782 36.7601C27.9782 37.3968 27.4597 37.9153 26.823 37.9153H24.8449ZM39.6568 18.4799V15.5887L41.2334 17.9539L39.6568 18.4799ZM37.0299 18.4801L35.4535 17.9546L37.0299 15.5898V18.4801ZM37.0299 21.7247L36.623 21.1142L37.0299 21.25V21.7247ZM39.6568 21.725V21.2501L40.0639 21.1144L39.6568 21.725Z" fill="url(#paint0_linear)"/>
<defs>
<linearGradient id="paint0_linear" x1="-2.98972e-07" y1="48.165" x2="62.3257" y2="29.3311" gradientUnits="userSpaceOnUse">
<stop stop-color="#7D4DCF"/>
<stop offset="0.432292" stop-color="#2F49D9"/>
<stop offset="1" stop-color="#212071"/>
</linearGradient>
</defs>
</svg>
