<svg width="35" height="34" viewBox="0 0 35 34" fill="none" xmlns="http://www.w3.org/2000/svg">
<path d="M22.55 16.8C22.55 18.1924 21.9969 19.5277 21.0123 20.5123C20.0277 21.4969 18.6924 22.05 17.3 22.05C15.9076 22.05 14.5723 21.4969 13.5877 20.5123C12.6031 19.5277 12.05 18.1924 12.05 16.8C12.05 16.5008 12.0815 16.2085 12.1358 15.925H10.3V22.9198C10.3 23.4063 10.6938 23.8 11.1803 23.8H23.4215C23.6547 23.7995 23.8781 23.7066 24.0428 23.5416C24.2075 23.3765 24.3 23.1529 24.3 22.9198V15.925H22.4643C22.5185 16.2085 22.55 16.5008 22.55 16.8ZM17.3 20.3C17.7597 20.2999 18.215 20.2092 18.6397 20.0332C19.0644 19.8571 19.4502 19.5992 19.7752 19.274C20.1002 18.9488 20.358 18.5628 20.5339 18.138C20.7097 17.7133 20.8001 17.258 20.8 16.7983C20.7999 16.3385 20.7092 15.8833 20.5332 15.4586C20.3571 15.0339 20.0992 14.648 19.774 14.323C19.4488 13.998 19.0628 13.7402 18.638 13.5644C18.2133 13.3886 17.758 13.2981 17.2983 13.2983C16.3698 13.2985 15.4794 13.6675 14.823 14.3243C14.1666 14.981 13.798 15.8715 13.7983 16.8C13.7985 17.7285 14.1675 18.6189 14.8243 19.2752C15.481 19.9316 16.3715 20.3002 17.3 20.3ZM21.5 13.125H23.5983C23.7377 13.125 23.8714 13.0697 23.9701 12.9713C24.0688 12.8729 24.1245 12.7394 24.125 12.6V10.5018C24.125 10.362 24.0695 10.2281 23.9707 10.1293C23.8719 10.0305 23.738 9.975 23.5983 9.975H21.5C21.3603 9.975 21.2263 10.0305 21.1275 10.1293C21.0287 10.2281 20.9733 10.362 20.9733 10.5018V12.6C20.975 12.8888 21.2113 13.125 21.5 13.125ZM17.3 0C12.8444 0 8.57122 1.76999 5.42061 4.92061C2.26999 8.07122 0.5 12.3444 0.5 16.8C0.5 21.2556 2.26999 25.5288 5.42061 28.6794C8.57122 31.83 12.8444 33.6 17.3 33.6C19.5062 33.6 21.6908 33.1655 23.7291 32.3212C25.7674 31.4769 27.6194 30.2394 29.1794 28.6794C30.7394 27.1194 31.9769 25.2674 32.8212 23.2291C33.6655 21.1908 34.1 19.0062 34.1 16.8C34.1 14.5938 33.6655 12.4092 32.8212 10.3709C31.9769 8.33265 30.7394 6.48063 29.1794 4.92061C27.6194 3.36058 25.7674 2.1231 23.7291 1.27882C21.6908 0.434545 19.5062 0 17.3 0ZM26.05 23.6058C26.05 24.675 25.175 25.55 24.1058 25.55H10.4943C9.425 25.55 8.55 24.675 8.55 23.6058V9.99425C8.55 8.925 9.425 8.05 10.4943 8.05H24.1058C25.175 8.05 26.05 8.925 26.05 9.99425V23.6058Z" fill="white"/>
</svg>
