<svg width="64" height="64" viewBox="0 0 64 64" fill="none" xmlns="http://www.w3.org/2000/svg">
<path fill-rule="evenodd" clip-rule="evenodd" d="M48.4251 56.4603C43.7324 59.6177 38.0814 61.4603 32 61.4603C24.7773 61.4603 18.1617 58.8611 13.0374 54.5471C13.0648 54.4434 13.0794 54.3345 13.0794 54.2222V16C13.0794 14.5974 14.2164 13.4603 15.619 13.4603H45.8413C47.2439 13.4603 48.381 14.5974 48.381 16V56.127C48.381 56.2423 48.3963 56.354 48.4251 56.4603ZM50.9206 54.5823C51.4219 54.1619 51.9089 53.7251 52.381 53.2727V17.2698C52.381 16.2085 51.73 15.2992 50.8055 14.9196C50.8809 15.2678 50.9206 15.6292 50.9206 16V54.5823ZM54.9206 50.5098V17.2698C54.9206 14.4646 52.6465 12.1905 49.8413 12.1905H49.201C48.3056 11.4002 47.1294 10.9206 45.8413 10.9206H15.619C12.8138 10.9206 10.5397 13.1947 10.5397 16V52.1834C5.5791 46.911 2.53968 39.8105 2.53968 32C2.53968 15.7295 15.7295 2.53968 32 2.53968C48.2705 2.53968 61.4603 15.7295 61.4603 32C61.4603 39.0118 59.0107 45.4514 54.9206 50.5098ZM64 32C64 49.6731 49.6731 64 32 64C14.3269 64 0 49.6731 0 32C0 14.3269 14.3269 0 32 0C49.6731 0 64 14.3269 64 32ZM18.2697 19.8095C17.5684 19.8095 16.9999 20.378 16.9999 21.0793C16.9999 21.7807 17.5684 22.3492 18.2697 22.3492H43.7935C44.4949 22.3492 45.0634 21.7807 45.0634 21.0793C45.0634 20.378 44.4949 19.8095 43.7935 19.8095H18.2697ZM18.2697 24.8888C17.5684 24.8888 16.9999 25.4573 16.9999 26.1587C16.9999 26.86 17.5684 27.4285 18.2697 27.4285H36.6842C37.3855 27.4285 37.954 26.86 37.954 26.1587C37.954 25.4573 37.3855 24.8888 36.6842 24.8888H18.2697ZM16.9998 31.0793C16.9998 30.378 17.5683 29.8095 18.2696 29.8095H43.7934C44.4947 29.8095 45.0633 30.378 45.0633 31.0793C45.0633 31.7807 44.4947 32.3492 43.7934 32.3492H18.2696C17.5683 32.3492 16.9998 31.7807 16.9998 31.0793ZM16.9998 36.1587C16.9998 35.4574 17.5683 34.8888 18.2696 34.8888H36.6841C37.3854 34.8888 37.9539 35.4574 37.9539 36.1587C37.9539 36.86 37.3854 37.4285 36.6841 37.4285H18.2696C17.5683 37.4285 16.9998 36.86 16.9998 36.1587Z" fill="white"/>
</svg>
