<svg width="52" height="52" viewBox="0 0 52 52" fill="none" xmlns="http://www.w3.org/2000/svg">
<g clip-path="url(#clip0)">
<path d="M45.3584 10.6025L35.2022 0.446266C34.9165 0.16057 34.529 0 34.125 0H11.7812C8.70116 0 6.19531 2.50585 6.19531 5.58594V46.4141C6.19531 49.4941 8.70116 52 11.7812 52H40.2188C43.2988 52 45.8047 49.4941 45.8047 46.4141V11.6797C45.8047 11.2757 45.6441 10.8882 45.3584 10.6025ZM35.6484 5.20132L40.6034 10.1562H35.6484V5.20132ZM40.2188 48.9531H11.7812C10.3812 48.9531 9.24219 47.8141 9.24219 46.4141V5.58594C9.24219 4.1859 10.3812 3.04688 11.7812 3.04688H32.6016V11.6797C32.6016 12.521 33.2837 13.2031 34.125 13.2031H42.7578V46.4141C42.7578 47.8141 41.6188 48.9531 40.2188 48.9531Z" fill="url(#paint0_linear)"/>
<path d="M36.1562 20.5156C34.2311 20.5156 32.5004 19.446 31.6396 17.7243L31.4252 17.2954C31.1671 16.7791 30.6396 16.4531 30.0625 16.4531H21.9375C21.3604 16.4531 20.8329 16.7791 20.5748 17.2953L20.3604 17.7241C19.4996 19.446 17.7689 20.5156 15.8438 20.5156C15.0024 20.5156 14.3203 21.1977 14.3203 22.0391V30.7325C14.3203 34.1505 15.3988 37.4067 17.4391 40.149C19.4794 42.8912 22.2884 44.8599 25.5623 45.842C25.7051 45.8848 25.8525 45.9062 26 45.9062C26.1475 45.9062 26.2949 45.8848 26.4377 45.842C29.7116 44.8599 32.5206 42.8912 34.5609 40.149C36.6012 37.4067 37.6797 34.1505 37.6797 30.7325V22.0391C37.6797 21.1977 36.9976 20.5156 36.1562 20.5156ZM34.6328 30.7325C34.6328 36.2429 31.1826 41.0294 26 42.7839C20.8174 41.0294 17.3672 36.2429 17.3672 30.7325V23.4205C19.6728 22.9853 21.6772 21.5721 22.8643 19.4999H29.1357C30.3228 21.572 32.3272 22.9853 34.6328 23.4205V30.7325Z" fill="url(#paint1_linear)"/>
<path d="M29.2316 27.2299L24.5636 31.8978L22.7681 30.1025C22.1733 29.5075 21.2086 29.5075 20.6137 30.1025C20.0187 30.6975 20.0187 31.662 20.6137 32.2569L23.4863 35.1295C23.7838 35.427 24.1737 35.5758 24.5635 35.5758C24.9533 35.5758 25.3433 35.4271 25.6406 35.1295L31.3858 29.3844C31.9808 28.7894 31.9808 27.8249 31.3858 27.2299C30.7911 26.635 29.8264 26.635 29.2316 27.2299Z" fill="url(#paint2_linear)"/>
</g>
<defs>
<linearGradient id="paint0_linear" x1="6.19531" y1="52.2624" x2="56.198" y2="42.7563" gradientUnits="userSpaceOnUse">
<stop stop-color="#7D4DCF"/>
<stop offset="0.432292" stop-color="#2F49D9"/>
<stop offset="1" stop-color="#212071"/>
</linearGradient>
<linearGradient id="paint1_linear" x1="14.3203" y1="46.0549" x2="43.7228" y2="40.2348" gradientUnits="userSpaceOnUse">
<stop stop-color="#7D4DCF"/>
<stop offset="0.432292" stop-color="#2F49D9"/>
<stop offset="1" stop-color="#212071"/>
</linearGradient>
<linearGradient id="paint2_linear" x1="20.1675" y1="35.6202" x2="33.9174" y2="31.0673" gradientUnits="userSpaceOnUse">
<stop stop-color="#7D4DCF"/>
<stop offset="0.432292" stop-color="#2F49D9"/>
<stop offset="1" stop-color="#212071"/>
</linearGradient>
<clipPath id="clip0">
<rect width="52" height="52" fill="white"/>
</clipPath>
</defs>
</svg>
