<svg width="31" height="68" viewBox="0 0 31 68" fill="none" xmlns="http://www.w3.org/2000/svg">
<path fill-rule="evenodd" clip-rule="evenodd" d="M11.0872 41.9341C11.0872 40.9464 11.8878 40.1458 12.8754 40.1458H17.7037C18.6913 40.1458 19.4919 40.9464 19.4919 41.9341V42.0234H11.0872V41.9341ZM7.51072 42.5837V41.9341C7.51072 38.9712 9.91259 36.5693 12.8754 36.5693H17.7037C20.6666 36.5693 23.0684 38.9712 23.0684 41.9341V42.6329C24.4191 43.1795 25.9881 44.0761 27.366 45.566C29.4073 47.7732 30.8606 51.0999 30.7828 56.0001C30.7077 60.7293 29.6283 63.8412 27.9968 65.7455C26.3958 67.6143 24.3701 68.1783 22.7737 67.9529H7.7147C4.53129 67.9529 0.479633 64.6518 0.027735 56.0657C-0.209322 51.5616 1.0993 48.3448 2.95635 46.0972C4.41277 44.3344 6.13753 43.2503 7.51072 42.5837ZM5.7135 48.3752C6.89728 46.9424 8.36746 46.101 9.50832 45.5999H20.7091C21.8806 45.9321 23.451 46.6003 24.7403 47.9943C26.0728 49.4352 27.272 51.8309 27.2068 55.9433C27.1388 60.2269 26.1617 62.3903 25.2807 63.4187C24.4296 64.4122 23.58 64.4681 23.2346 64.4053L23.076 64.3765H7.7147C7.32163 64.3765 4.00573 63.6004 3.59927 55.8777C3.40715 52.2274 4.45305 49.9007 5.7135 48.3752Z" fill="url(#paint0_linear)"/>
<path fill-rule="evenodd" clip-rule="evenodd" d="M14.9438 3.58131C13.8633 1.78772 12.0061 0 9.20974 0H1.07324V1.78824C1.07324 3.85068 1.837 6.01211 2.99199 7.67157C4.10986 9.27771 5.89886 10.8189 8.1368 10.8189H13.4772H13.5907V17.3729C12.8195 16.2109 11.5624 15.1106 9.72345 15.1106H4.02376V16.4518C4.02376 17.8993 4.55536 19.4129 5.35895 20.5756C6.13376 21.6966 7.39193 22.8 8.9868 22.8H13.5907V30.5789H11.8557C11.7641 30.3947 11.6517 30.2246 11.5186 30.0686C11.1023 29.5672 10.4375 29.1358 9.52414 28.7743C8.79574 28.4944 8.27545 28.2554 7.96328 28.0571C7.65111 27.8472 7.49502 27.6024 7.49502 27.3225C7.49502 27.0893 7.58174 26.9202 7.75517 26.8153C7.94016 26.6987 8.2003 26.6404 8.5356 26.6404C8.76683 26.6404 9.00385 26.6753 9.24665 26.7453C9.48945 26.8036 9.72647 26.8794 9.95771 26.9727C10.1889 27.066 10.4028 27.1709 10.5994 27.2875L11.1544 27.5674L12.1256 25.6783C11.825 25.4801 11.4261 25.2819 10.9289 25.0836C10.4433 24.8854 9.89412 24.7396 9.28134 24.6464V23.2471H7.0788V24.6813C6.70881 24.763 6.36774 24.8854 6.05557 25.0487C5.75496 25.2119 5.48903 25.416 5.2578 25.6609C5.02656 25.8941 4.84735 26.1564 4.72017 26.448C4.59299 26.7395 4.5294 27.0601 4.5294 27.41C4.5294 28.2729 4.78954 28.9725 5.30982 29.5089C5.83011 30.0336 6.58741 30.4826 7.58174 30.8557C8.10202 31.054 8.50091 31.2347 8.7784 31.398C9.05588 31.5612 9.19462 31.8119 9.19462 32.1501C9.19462 32.4183 9.09635 32.6457 8.8998 32.8322C8.70324 33.0188 8.38529 33.1121 7.94594 33.1121C7.70314 33.1121 7.43143 33.0654 7.13082 32.9722C6.84178 32.8672 6.55851 32.7506 6.28102 32.6223C6.0151 32.4941 5.76652 32.3658 5.53528 32.2375C5.31561 32.0976 5.15374 31.9927 5.04968 31.9227L4.11317 33.9692C4.42534 34.1674 4.83001 34.3831 5.32717 34.6163C5.83589 34.8379 6.41977 35.0011 7.0788 35.1061V36.8377H9.28134V35.1236C9.74381 35.0419 10.1543 34.902 10.5127 34.7038C10.8711 34.4939 11.1717 34.249 11.4145 33.9692C11.6038 33.7509 11.758 33.515 11.877 33.2613H13.5907V38.2684H17.1671V19.5813H21.7712C23.3661 19.5813 24.6242 18.4778 25.399 17.3568C26.2026 16.1942 26.7342 14.6805 26.7342 13.233V11.8918H21.0345C19.1955 11.8918 17.9383 12.9924 17.1671 14.1544V10.8189H22.0851C24.3231 10.8189 26.1121 9.27771 27.2299 7.67157C28.3849 6.01211 29.1487 3.85068 29.1487 1.78824V0H21.0122C18.2158 0 16.3587 1.78772 15.2781 3.58131C15.2208 3.67638 15.1651 3.77234 15.111 3.86905C15.0568 3.77234 15.0011 3.67638 14.9438 3.58131ZM12.6812 7.24238H8.1368C7.60296 7.24238 6.7543 6.81647 5.92746 5.62848C5.49817 5.01168 5.15804 4.29882 4.93698 3.57648H9.20974C10.2581 3.57648 11.1429 4.20288 11.8804 5.42695C12.2245 5.99817 12.4897 6.6318 12.6812 7.24238ZM17.5407 7.24238H22.0851C22.619 7.24238 23.4676 6.81647 24.2945 5.62848C24.7237 5.01168 25.0639 4.29882 25.2849 3.57648H21.0122C19.9638 3.57648 19.079 4.20288 18.3415 5.42695C17.9974 5.99817 17.7322 6.6318 17.5407 7.24238ZM21.7712 16.8989H18.8034C18.9283 16.5259 19.0932 16.1454 19.3002 15.7993C19.7978 14.9676 20.3748 14.5742 21.0345 14.5742H23.8164C23.6682 15.0174 23.4552 15.4515 23.1924 15.8317C22.6321 16.6424 22.0793 16.8989 21.7712 16.8989ZM8.9868 20.1177H11.9546C11.8297 19.7447 11.6648 19.3641 11.4577 19.018C10.9602 18.1864 10.3831 17.793 9.72345 17.793H6.9416C7.08981 18.2362 7.30278 18.6703 7.56553 19.0504C8.1259 19.8612 8.67866 20.1177 8.9868 20.1177ZM19.3279 23.5154C19.4596 23.2583 19.6317 23.0237 19.8442 22.8114C20.096 22.5472 20.3855 22.327 20.7128 22.1509C21.0528 21.9747 21.4242 21.8426 21.827 21.7545V20.207H24.2253V21.7168C24.8926 21.8174 25.4906 21.9747 26.0194 22.1886C26.5607 22.4025 26.9951 22.6164 27.3224 22.8302L26.2649 24.8684L25.6606 24.5665C25.4465 24.4407 25.2136 24.3274 24.9618 24.2268C24.7101 24.1261 24.452 24.0443 24.1876 23.9814C23.9232 23.906 23.6651 23.8682 23.4133 23.8682C23.0482 23.8682 22.765 23.9311 22.5635 24.0569C22.3747 24.1702 22.2803 24.3526 22.2803 24.6042C22.2803 24.9062 22.4502 25.1704 22.7901 25.3968C23.1301 25.6107 23.6966 25.8686 24.4897 26.1706C25.4843 26.5606 26.2082 27.0261 26.6614 27.5671C27.1273 28.1081 27.3602 28.8064 27.3602 29.6619C27.3602 30.0394 27.2909 30.4105 27.1524 30.7754C27.014 31.1402 26.8125 31.4736 26.5481 31.7756C26.2838 32.0775 25.9564 32.3418 25.5661 32.5682C25.1759 32.7821 24.7289 32.9331 24.2253 33.0211V34.8706H21.827V33.0023C21.1094 32.889 20.4736 32.7129 19.9197 32.4739C19.3783 32.2222 18.9377 31.9895 18.5978 31.7756L19.6175 29.5676C19.7309 29.6431 19.9071 29.7563 20.1463 29.9073C20.3981 30.0457 20.6688 30.1841 20.9583 30.3224C21.2605 30.4608 21.5689 30.5867 21.8837 30.6999C22.211 30.8005 22.5069 30.8509 22.7712 30.8509C23.2497 30.8509 23.5959 30.7502 23.8099 30.5489C24.0239 30.3476 24.1309 30.1023 24.1309 29.8129C24.1309 29.448 23.9799 29.1775 23.6777 29.0014C23.3755 28.8253 22.9412 28.6303 22.3747 28.4164C21.292 28.0138 20.4673 27.5294 19.9008 26.9632C19.6778 26.7354 19.4986 26.4802 19.3634 26.1977H17.1673V23.5154H19.3279ZM19.3881 54.38C20.3496 53.9658 20.9615 53.2295 20.8195 52.0054C20.6337 50.3303 19.0005 49.769 16.837 49.6125V47.7483H15.1543V49.5481C14.7189 49.5481 14.2727 49.5572 13.8265 49.5663H13.8264L13.8213 49.5665V47.7483H12.1385V49.6125C11.6388 49.6252 11.0726 49.6227 9.79956 49.6169C9.49669 49.6156 9.15383 49.614 8.76233 49.6125V51.1219C8.86283 51.1204 8.95972 51.1186 9.05304 51.1169C10.1933 51.0957 10.8 51.0844 10.9477 51.7477V58.0982C10.8573 58.6054 10.4183 58.5957 9.47232 58.5748C9.3563 58.5722 9.23264 58.5695 9.10107 58.5675L8.76241 60.2518C11.8305 60.2518 12.1386 60.261 12.1386 60.261V62.0522H13.8214V60.2886C14.2802 60.2979 14.7283 60.2979 15.1544 60.2979V62.0522H16.8371V60.261C19.6561 60.1321 21.5406 59.5339 21.792 57.2975C21.9886 55.5028 20.9833 54.7021 19.3881 54.38ZM14.1936 51.2179L14.1939 51.2179C15.368 51.1926 17.7768 51.1408 17.7768 52.6405C17.7768 54.101 15.2762 54.0669 14.1287 54.0513C14.0252 54.0499 13.9327 54.0486 13.8541 54.0486V51.2231C13.9488 51.2231 14.0636 51.2207 14.1936 51.2179ZM13.8541 58.5768V55.466C13.9663 55.466 14.1014 55.4634 14.2538 55.4604H14.2539C15.6442 55.4337 18.4703 55.3792 18.4703 57.0214C18.4703 58.6338 15.5427 58.5969 14.1811 58.5797C14.0582 58.5782 13.9481 58.5768 13.8541 58.5768Z" fill="url(#paint1_linear)"/>
<defs>
<linearGradient id="paint0_linear" x1="-1.77001e-07" y1="68.1584" x2="37.9976" y2="58.8693" gradientUnits="userSpaceOnUse">
<stop stop-color="#7D4DCF"/>
<stop offset="0.432292" stop-color="#2F49D9"/>
<stop offset="1" stop-color="#212071"/>
</linearGradient>
<linearGradient id="paint1_linear" x1="1.07324" y1="62.3653" x2="37.3341" y2="58.2706" gradientUnits="userSpaceOnUse">
<stop stop-color="#7D4DCF"/>
<stop offset="0.432292" stop-color="#2F49D9"/>
<stop offset="1" stop-color="#212071"/>
</linearGradient>
</defs>
</svg>
