<svg width="112" height="50" viewBox="0 0 112 50" fill="none" xmlns="http://www.w3.org/2000/svg">
<g id="Logo">
<path d="M5.916 19.343H2.146V0H4.756L16.53 12.905V0H20.3V19.343H17.69L5.916 6.409V19.343Z" fill="url(#paint0_linear)"/>
<path d="M34.4033 8.41V6.786H37.9413V19.343H34.4033V17.719C33.456 19.0723 32.1703 19.749 30.5463 19.749C28.6516 19.749 27.105 19.1013 25.9063 17.806C24.727 16.5107 24.1373 14.9253 24.1373 13.05C24.1373 11.1553 24.7173 9.57 25.8773 8.294C27.0373 7.018 28.5356 6.38 30.3723 6.38C32.1896 6.38 33.5333 7.05667 34.4033 8.41ZM33.7653 10.527C33.108 9.85033 32.2766 9.512 31.2713 9.512C30.266 9.512 29.4346 9.85033 28.7773 10.527C28.12 11.2037 27.7913 12.0447 27.7913 13.05C27.7913 14.0553 28.12 14.906 28.7773 15.602C29.4346 16.2787 30.266 16.617 31.2713 16.617C32.2766 16.617 33.108 16.2787 33.7653 15.602C34.4226 14.906 34.7513 14.0553 34.7513 13.05C34.7513 12.0447 34.4226 11.2037 33.7653 10.527Z" fill="url(#paint1_linear)"/>
<path d="M41.8944 19.343V6.786H45.4324V8.41C46.399 7.05667 47.6944 6.38 49.3184 6.38C50.9617 6.38 52.199 6.89233 53.0304 7.917C53.6877 8.729 54.0164 9.90833 54.0164 11.455V19.343H50.4784V12.499C50.4784 11.3197 50.256 10.498 49.8114 10.034C49.4054 9.60867 48.8544 9.396 48.1584 9.396C47.1917 9.396 46.4667 9.76334 45.9834 10.498C45.616 11.078 45.4324 11.89 45.4324 12.934V19.343H41.8944Z" fill="url(#paint2_linear)"/>
<path d="M57.9656 19.343V6.786H61.5036V8.41C62.4702 7.05667 63.7656 6.38 65.3896 6.38C67.0329 6.38 68.2702 6.89233 69.1016 7.917C69.7589 8.729 70.0876 9.90833 70.0876 11.455V19.343H66.5496V12.499C66.5496 11.3197 66.3272 10.498 65.8826 10.034C65.4766 9.60867 64.9256 9.396 64.2296 9.396C63.2629 9.396 62.5379 9.76334 62.0546 10.498C61.6872 11.078 61.5036 11.89 61.5036 12.934V19.343H57.9656Z" fill="url(#paint3_linear)"/>
<path d="M73.2094 25.984L77.8204 17.458L71.8464 6.786H75.9644L79.8504 13.92L83.3304 6.786H87.3324L77.2114 25.984H73.2094Z" fill="url(#paint4_linear)"/>
<path d="M0 30H4.118L9.28 42.992L14.442 30H18.56L10.382 49.343H8.12L0 30Z" fill="url(#paint5_linear)"/>
<path d="M28.7263 45.312L31.9743 45.834C31.839 46.182 31.6553 46.53 31.4233 46.878C31.2106 47.2067 30.8723 47.6223 30.4083 48.125C29.9443 48.6083 29.316 49.0047 28.5233 49.314C27.7306 49.604 26.822 49.749 25.7973 49.749C23.8253 49.749 22.2206 49.1593 20.9833 47.98C19.6686 46.7427 19.0113 45.109 19.0113 43.079C19.0113 41.0683 19.6493 39.425 20.9253 38.149C22.124 36.9697 23.6996 36.38 25.6523 36.38C27.779 36.38 29.4126 37.0663 30.5533 38.439C31.5586 39.6377 32.0613 41.281 32.0613 43.369V43.659H22.6653C22.6653 44.5097 22.8683 45.2153 23.2743 45.776C23.8543 46.5687 24.6953 46.965 25.7973 46.965C27.112 46.965 28.0883 46.414 28.7263 45.312ZM22.7813 41.397H28.7263C28.591 40.585 28.2333 39.9663 27.6533 39.541C27.0926 39.0963 26.4546 38.874 25.7393 38.874C25.0433 38.874 24.4053 39.0963 23.8253 39.541C23.2646 39.9857 22.9166 40.6043 22.7813 41.397Z" fill="url(#paint6_linear)"/>
<path d="M35.3807 49.343V36.786H38.9187V38.41C39.8853 37.0567 41.1807 36.38 42.8047 36.38C44.448 36.38 45.6853 36.8923 46.5167 37.917C47.174 38.729 47.5027 39.9083 47.5027 41.455V49.343H43.9647V42.499C43.9647 41.3197 43.7423 40.498 43.2977 40.034C42.8917 39.6087 42.3407 39.396 41.6447 39.396C40.678 39.396 39.953 39.7633 39.4697 40.498C39.1023 41.078 38.9187 41.89 38.9187 42.934V49.343H35.3807Z" fill="url(#paint7_linear)"/>
<path d="M57.4259 39.802H54.9899V49.343H51.4519V39.802H50.0599V36.786H51.4519V32.494H54.9899V36.786H57.4259V39.802Z" fill="url(#paint8_linear)"/>
<path d="M59.8483 36.786H63.3863V43.891C63.3863 44.8963 63.6376 45.631 64.1403 46.095C64.6236 46.5203 65.223 46.733 65.9383 46.733C66.6536 46.733 67.253 46.5203 67.7363 46.095C68.239 45.631 68.4903 44.8963 68.4903 43.891V36.786H72.0283V44.471C72.0283 46.153 71.516 47.4387 70.4913 48.328C69.4086 49.2753 67.891 49.749 65.9383 49.749C63.9856 49.749 62.468 49.2753 61.3853 48.328C60.3606 47.4387 59.8483 46.153 59.8483 44.471V36.786Z" fill="url(#paint9_linear)"/>
<path d="M75.9762 49.343V36.786H79.5142V38.671C79.9395 37.859 80.4615 37.279 81.0802 36.931C81.6602 36.5637 82.3562 36.38 83.1682 36.38C83.6322 36.38 84.1348 36.4767 84.6762 36.67L84.2122 39.976C83.7675 39.6667 83.2165 39.512 82.5592 39.512C81.5345 39.512 80.7515 39.8503 80.2102 40.527C79.7462 41.107 79.5142 42.035 79.5142 43.311V49.343H75.9762Z" fill="url(#paint10_linear)"/>
<path d="M95.4603 45.312L98.7083 45.834C98.573 46.182 98.3893 46.53 98.1573 46.878C97.9446 47.2067 97.6063 47.6223 97.1423 48.125C96.6783 48.6083 96.05 49.0047 95.2573 49.314C94.4646 49.604 93.556 49.749 92.5313 49.749C90.5593 49.749 88.9546 49.1593 87.7173 47.98C86.4026 46.7427 85.7453 45.109 85.7453 43.079C85.7453 41.0683 86.3833 39.425 87.6593 38.149C88.858 36.9697 90.4336 36.38 92.3863 36.38C94.513 36.38 96.1466 37.0663 97.2873 38.439C98.2926 39.6377 98.7953 41.281 98.7953 43.369V43.659H89.3993C89.3993 44.5097 89.6023 45.2153 90.0083 45.776C90.5883 46.5687 91.4293 46.965 92.5313 46.965C93.846 46.965 94.8223 46.414 95.4603 45.312ZM89.5153 41.397H95.4603C95.325 40.585 94.9673 39.9663 94.3873 39.541C93.8266 39.0963 93.1886 38.874 92.4733 38.874C91.7773 38.874 91.1393 39.0963 90.5593 39.541C89.9986 39.9857 89.6506 40.6043 89.5153 41.397Z" fill="url(#paint11_linear)"/>
<path d="M110.699 37.714L108.959 39.773C108.359 39.2123 107.673 38.932 106.9 38.932C106.474 38.932 106.136 39.0287 105.885 39.222C105.653 39.396 105.537 39.6377 105.537 39.947C105.537 40.4497 105.914 40.8267 106.668 41.078L107.509 41.339C109.152 41.861 110.215 42.4603 110.699 43.137C111.124 43.717 111.337 44.413 111.337 45.225C111.337 46.501 110.873 47.5643 109.945 48.415C108.978 49.3043 107.721 49.749 106.175 49.749C104.222 49.749 102.598 49.053 101.303 47.661L103.159 45.515C103.99 46.4817 104.918 46.965 105.943 46.965C106.445 46.965 106.861 46.849 107.19 46.617C107.518 46.3657 107.683 46.0273 107.683 45.602C107.683 45.022 107.315 44.5967 106.581 44.326L105.769 44.036C104.512 43.5913 103.613 43.0887 103.072 42.528C102.434 41.8513 102.115 41.049 102.115 40.121C102.115 38.961 102.55 38.0137 103.42 37.279C104.174 36.6797 105.266 36.38 106.697 36.38C108.205 36.38 109.539 36.8247 110.699 37.714Z" fill="url(#paint12_linear)"/>
</g>
<defs>
<linearGradient id="paint0_linear" x1="-6.40125e-07" y1="50" x2="111" y2="-12" gradientUnits="userSpaceOnUse">
<stop stop-color="#7D4DCF"/>
<stop offset="0.432292" stop-color="#2F49D9"/>
<stop offset="1" stop-color="#212071"/>
</linearGradient>
<linearGradient id="paint1_linear" x1="-6.40125e-07" y1="50" x2="111" y2="-12" gradientUnits="userSpaceOnUse">
<stop stop-color="#7D4DCF"/>
<stop offset="0.432292" stop-color="#2F49D9"/>
<stop offset="1" stop-color="#212071"/>
</linearGradient>
<linearGradient id="paint2_linear" x1="-6.40125e-07" y1="50" x2="111" y2="-12" gradientUnits="userSpaceOnUse">
<stop stop-color="#7D4DCF"/>
<stop offset="0.432292" stop-color="#2F49D9"/>
<stop offset="1" stop-color="#212071"/>
</linearGradient>
<linearGradient id="paint3_linear" x1="-6.40125e-07" y1="50" x2="111" y2="-12" gradientUnits="userSpaceOnUse">
<stop stop-color="#7D4DCF"/>
<stop offset="0.432292" stop-color="#2F49D9"/>
<stop offset="1" stop-color="#212071"/>
</linearGradient>
<linearGradient id="paint4_linear" x1="-6.40125e-07" y1="50" x2="111" y2="-12" gradientUnits="userSpaceOnUse">
<stop stop-color="#7D4DCF"/>
<stop offset="0.432292" stop-color="#2F49D9"/>
<stop offset="1" stop-color="#212071"/>
</linearGradient>
<linearGradient id="paint5_linear" x1="-6.40125e-07" y1="50" x2="111" y2="-12" gradientUnits="userSpaceOnUse">
<stop stop-color="#7D4DCF"/>
<stop offset="0.432292" stop-color="#2F49D9"/>
<stop offset="1" stop-color="#212071"/>
</linearGradient>
<linearGradient id="paint6_linear" x1="-6.40125e-07" y1="50" x2="111" y2="-12" gradientUnits="userSpaceOnUse">
<stop stop-color="#7D4DCF"/>
<stop offset="0.432292" stop-color="#2F49D9"/>
<stop offset="1" stop-color="#212071"/>
</linearGradient>
<linearGradient id="paint7_linear" x1="-6.40125e-07" y1="50" x2="111" y2="-12" gradientUnits="userSpaceOnUse">
<stop stop-color="#7D4DCF"/>
<stop offset="0.432292" stop-color="#2F49D9"/>
<stop offset="1" stop-color="#212071"/>
</linearGradient>
<linearGradient id="paint8_linear" x1="-6.40125e-07" y1="50" x2="111" y2="-12" gradientUnits="userSpaceOnUse">
<stop stop-color="#7D4DCF"/>
<stop offset="0.432292" stop-color="#2F49D9"/>
<stop offset="1" stop-color="#212071"/>
</linearGradient>
<linearGradient id="paint9_linear" x1="-6.40125e-07" y1="50" x2="111" y2="-12" gradientUnits="userSpaceOnUse">
<stop stop-color="#7D4DCF"/>
<stop offset="0.432292" stop-color="#2F49D9"/>
<stop offset="1" stop-color="#212071"/>
</linearGradient>
<linearGradient id="paint10_linear" x1="-6.40125e-07" y1="50" x2="111" y2="-12" gradientUnits="userSpaceOnUse">
<stop stop-color="#7D4DCF"/>
<stop offset="0.432292" stop-color="#2F49D9"/>
<stop offset="1" stop-color="#212071"/>
</linearGradient>
<linearGradient id="paint11_linear" x1="-6.40125e-07" y1="50" x2="111" y2="-12" gradientUnits="userSpaceOnUse">
<stop stop-color="#7D4DCF"/>
<stop offset="0.432292" stop-color="#2F49D9"/>
<stop offset="1" stop-color="#212071"/>
</linearGradient>
<linearGradient id="paint12_linear" x1="-6.40125e-07" y1="50" x2="111" y2="-12" gradientUnits="userSpaceOnUse">
<stop stop-color="#7D4DCF"/>
<stop offset="0.432292" stop-color="#2F49D9"/>
<stop offset="1" stop-color="#212071"/>
</linearGradient>
</defs>
</svg>
