<svg width="66" height="45" viewBox="0 0 66 45" fill="none" xmlns="http://www.w3.org/2000/svg">
<path fill-rule="evenodd" clip-rule="evenodd" d="M33.5813 3.49282C32.8334 3.3273 32.1466 3.38108 31.3441 3.78234C29.6007 4.65402 22.381 8.33214 18.9832 10.0652C18.3107 10.4083 17.4875 10.1412 17.1444 9.46866C16.8014 8.79616 17.0685 7.97292 17.741 7.6299C21.1323 5.90013 28.3655 2.2151 30.1214 1.33712C31.506 0.64484 32.8354 0.527752 34.172 0.823568C35.4392 1.104 36.6742 1.74913 37.9144 2.47255C38.5665 2.85294 38.7867 3.68993 38.4063 4.34202C38.026 4.99411 37.189 5.21437 36.5369 4.83398C35.3166 4.12213 34.3987 3.67373 33.5813 3.49282ZM43.695 5.21317C44.0776 5.03749 44.5199 5.04795 44.8938 5.24153L54.5306 10.2308L54.5487 10.2404C54.5577 10.2452 54.5665 10.2501 54.5754 10.255C54.676 10.2801 54.7745 10.3169 54.8687 10.3652L65.2573 15.6962C65.7134 15.9303 66.0002 16.3998 66.0002 16.9124V28.7362C66.0002 29.2725 65.6866 29.7593 65.1983 29.9809L54.8097 34.6968C54.4474 34.8613 54.0313 34.8597 53.6703 34.6925L43.8862 30.1616L33.8957 34.6968C33.7546 34.7608 33.6054 34.7997 33.4544 34.8134L23.4128 39.8023C23.0307 39.9921 22.582 39.9926 22.1995 39.8038L11.8772 34.708L11.8617 34.7012L11.8425 34.6925L1.65894 29.9766C1.1757 29.7528 0.866417 29.2688 0.866417 28.7362V17.1046C0.864845 17.0668 0.864835 17.029 0.866417 16.9911V16.9124C0.866417 16.4038 1.14879 15.9372 1.59938 15.7014L11.7829 10.3704C12.1765 10.1643 12.6457 10.1624 13.041 10.3652L22.9717 15.4613L32.3735 10.5396C32.496 10.4007 32.6488 10.2847 32.8279 10.2024L43.695 5.21317ZM43.8856 15.4613L51.2455 11.6085L44.2293 7.97604L36.3492 11.594L43.8856 15.4613ZM22.9723 30.1617L30.0634 33.4455L22.8027 37.0527L15.612 33.5029L22.9723 30.1617ZM3.60026 19.261V27.8629L10.9808 31.2807V22.9513L3.60026 19.261ZM21.4386 27.8556L13.7146 31.3619V22.9538L21.4386 19.1174V27.8556ZM12.4232 13.121L19.7726 16.8924L12.3497 20.5792L5.10023 16.9545L12.4232 13.121ZM24.514 27.8629V19.261L31.8946 22.9513V31.2807L24.514 27.8629ZM34.6284 31.3618L42.3523 27.8556V19.1174L34.6284 22.9538V31.3618ZM40.6864 16.8924L33.3369 13.121L26.014 16.9545L33.2636 20.5792L40.6864 16.8924ZM45.428 19.261V27.8629L52.8085 31.2807V22.9513L45.428 19.261ZM63.2664 27.8556L55.5424 31.3619V22.9538L63.2664 19.1174V27.8556ZM54.2509 13.121L61.6003 16.8924L54.1775 20.5792L46.928 16.9545L54.2509 13.121ZM34.13 41.6291C33.3218 42.0187 32.6343 42.0625 31.8888 41.8862C31.0741 41.6935 30.1628 41.2318 28.953 40.5024C28.3064 40.1126 27.4664 40.3207 27.0766 40.9673C26.6868 41.6138 26.8949 42.4539 27.5414 42.8437C28.771 43.5849 29.9966 44.2479 31.2595 44.5466C32.5918 44.8617 33.9227 44.7639 35.3171 44.0917C37.0856 43.2392 44.3714 39.6592 47.7873 37.9787C48.4647 37.6455 48.7437 36.8262 48.4104 36.1488C48.0772 35.4714 47.2579 35.1924 46.5805 35.5257C43.158 37.2094 35.8858 40.7827 34.13 41.6291Z" fill="url(#paint0_linear)"/>
<defs>
<linearGradient id="paint0_linear" x1="0.865234" y1="44.9411" x2="75.8494" y2="17.2668" gradientUnits="userSpaceOnUse">
<stop stop-color="#7D4DCF"/>
<stop offset="0.432292" stop-color="#2F49D9"/>
<stop offset="1" stop-color="#212071"/>
</linearGradient>
</defs>
</svg>
