<svg width="64" height="64" viewBox="0 0 64 64" fill="none" xmlns="http://www.w3.org/2000/svg">
<path fill-rule="evenodd" clip-rule="evenodd" d="M4.15752 41.653L4.70749 41.4023C5.61417 42.1148 6.75746 42.5397 8 42.5397C9.48071 42.5397 10.8205 41.9363 11.7868 40.9619L15.3552 42.0055C15.8684 44.415 18.0089 46.2222 20.5714 46.2222C23.5169 46.2222 25.9048 43.8344 25.9048 40.8889C25.9048 40.0136 25.6939 39.1876 25.3202 38.4588L29.5613 32.4816C29.7369 32.499 29.915 32.5079 30.0952 32.5079C31.2408 32.5079 32.302 32.1468 33.1712 31.5321L39.885 34.7732C40.0704 37.5506 42.382 39.746 45.2063 39.746C48.1519 39.746 50.5397 37.3582 50.5397 34.4127C50.5397 33.9867 50.4897 33.5724 50.3954 33.1752L54.6785 29.1383C55.2491 29.3466 55.8652 29.4603 56.5079 29.4603C57.7824 29.4603 58.9524 29.0133 59.8698 28.2675L61.2847 28.7651C60.7851 24.1905 59.2382 19.9308 56.8889 16.2306V18.9445C56.7217 18.9287 56.5523 18.9207 56.381 18.9207C55.7099 18.9207 55.0677 19.0446 54.4762 19.2709V12.9535C53.7597 12.1089 52.9965 11.3052 52.1905 10.5463V20.9545C51.4747 21.8623 51.0476 23.0083 51.0476 24.254C51.0476 24.6618 51.0934 25.0589 51.1801 25.4404L49.7778 26.6545V8.50624C49.0421 7.94868 48.2794 7.42488 47.4921 6.93716V28.6335L46.7241 29.2984C46.2431 29.1559 45.7336 29.0794 45.2064 29.0794C45.1826 29.0794 45.1589 29.0795 45.1353 29.0799L45.0794 29.0809V5.59497C44.3348 5.22544 43.5723 4.88647 42.7936 4.57972V29.6551C42.4353 29.8372 42.1002 30.0586 41.7942 30.3136L40.381 29.6185V3.7489C39.6311 3.52678 38.8688 3.33371 38.0952 3.17099V28.4944L35.6825 27.3079V2.76761C34.9291 2.67366 34.1668 2.60815 33.3968 2.57221V22.9858C32.7093 22.4432 31.885 22.0662 30.9841 21.915V2.55687C30.2144 2.58295 29.4521 2.63857 28.6984 2.72262V22.0261C27.769 22.2776 26.9402 22.7742 26.2857 23.4421V3.09348C25.5125 3.24546 24.7502 3.42768 24 3.63886V30.4879L21.5873 33.8848V4.4327C20.8091 4.72678 20.0467 5.05286 19.3016 5.40933V35.8347C18.5084 36.0284 17.7848 36.3995 17.1752 36.9035L16.8889 36.8184V6.70515C16.1025 7.17598 15.3398 7.68244 14.6032 8.22231V36.1387L13.0733 35.6838C12.8769 35.0793 12.5754 34.5221 12.1905 34.0338V10.1939C11.3868 10.9245 10.6236 11.6989 9.90476 12.5133V32.3502C9.31322 32.124 8.67109 32 8.00001 32C7.82869 32 7.65925 32.0081 7.49206 32.0239V15.646C6.62669 16.9402 5.86112 18.3069 5.20635 19.7349V32.7894C5.01373 32.908 4.82922 33.0386 4.65386 33.1801L2.79365 32.6269V28.1144C2.62613 29.3858 2.53968 30.6828 2.53968 32C2.53968 35.3809 3.1092 38.6288 4.15752 41.653ZM64 32C64 49.6731 49.6731 64 32 64C14.3269 64 0 49.6731 0 32C0 14.3269 14.3269 0 32 0C49.6731 0 64 14.3269 64 32ZM56 25.9048C56.9818 25.9048 57.7778 25.1088 57.7778 24.127C57.7778 23.1451 56.9818 22.3492 56 22.3492C55.0182 22.3492 54.2222 23.1451 54.2222 24.127C54.2222 25.1088 55.0182 25.9048 56 25.9048ZM56 27.9365C58.1039 27.9365 59.8095 26.2309 59.8095 24.127C59.8095 22.023 58.1039 20.3175 56 20.3175C53.8961 20.3175 52.1905 22.023 52.1905 24.127C52.1905 24.8191 52.3751 25.4682 52.6977 26.0276L47.2289 31.1839C46.6428 30.8159 45.9494 30.6032 45.2063 30.6032C44.0544 30.6032 43.0219 31.1145 42.3233 31.9225L33.8327 27.5347C33.88 27.295 33.9048 27.0472 33.9048 26.7937C33.9048 24.6897 32.1992 22.9841 30.0952 22.9841C27.9913 22.9841 26.2857 24.6897 26.2857 26.7937C26.2857 27.7834 26.6632 28.685 27.282 29.3623L21.8622 37.0496C21.4591 36.9045 21.0245 36.8254 20.5714 36.8254C19.1668 36.8254 17.9397 37.5856 17.2791 38.7171L11.8095 37.2117L11.8095 37.2063C11.8095 35.1024 10.1039 33.3968 8 33.3968C5.89606 33.3968 4.19048 35.1024 4.19048 37.2063C4.19048 39.3103 5.89606 41.0159 8 41.0159C9.38592 41.0159 10.599 40.2758 11.2655 39.1693L16.7622 40.6821C16.7875 42.7643 18.4832 44.4444 20.5714 44.4444C22.6754 44.4444 24.381 42.7389 24.381 40.6349C24.381 39.7198 24.0583 38.8801 23.5206 38.2233L29.0047 30.4448C29.3502 30.5478 29.7163 30.6032 30.0952 30.6032C31.2155 30.6032 32.2227 30.1197 32.9198 29.3499L41.4526 33.7595C41.4159 33.9717 41.3968 34.19 41.3968 34.4127C41.3968 36.5166 43.1024 38.2222 45.2063 38.2222C47.3103 38.2222 49.0159 36.5166 49.0159 34.4127C49.0159 33.7897 48.8663 33.2016 48.6012 32.6825L54.1452 27.4553C54.6941 27.7618 55.3266 27.9365 56 27.9365ZM30.0952 28.5714C31.0771 28.5714 31.873 27.7755 31.873 26.7937C31.873 25.8118 31.0771 25.0159 30.0952 25.0159C29.1134 25.0159 28.3175 25.8118 28.3175 26.7937C28.3175 27.7755 29.1134 28.5714 30.0952 28.5714ZM46.3367 33.0405C46.0295 32.7871 45.6357 32.6349 45.2063 32.6349C44.2245 32.6349 43.4286 33.4309 43.4286 34.4127C43.4286 35.3945 44.2245 36.1905 45.2063 36.1905C46.1882 36.1905 46.9841 35.3945 46.9841 34.4127C46.9841 34.0462 46.8732 33.7056 46.6831 33.4226C46.6172 33.3795 46.5553 33.3281 46.499 33.2683C46.4331 33.1984 46.379 33.1217 46.3367 33.0405ZM8 38.9841C8.98184 38.9841 9.77778 38.1882 9.77778 37.2063C9.77778 36.2245 8.98184 35.4286 8 35.4286C7.01816 35.4286 6.22222 36.2245 6.22222 37.2063C6.22222 38.1882 7.01816 38.9841 8 38.9841ZM22.3492 40.6349C22.3492 41.6168 21.5533 42.4127 20.5714 42.4127C19.5896 42.4127 18.7937 41.6168 18.7937 40.6349C18.7937 39.6531 19.5896 38.8571 20.5714 38.8571C21.5533 38.8571 22.3492 39.6531 22.3492 40.6349Z" fill="white"/>
</svg>
