<svg width="48" height="52" viewBox="0 0 48 52" fill="none" xmlns="http://www.w3.org/2000/svg">
<g clip-path="url(#clip0)">
<path d="M41.3769 26.3947V1.43752C41.3769 0.662454 40.7439 0.126953 39.9703 0.126953H34.5268C33.7531 0.126953 33.078 0.662454 33.078 1.43752V23.9568C32.1778 23.9849 31.2775 24.0977 30.4054 24.3091V8.79362C30.4054 8.01855 29.7443 7.45487 28.9707 7.45487H23.5272C22.7536 7.45487 22.1065 8.00446 22.1065 8.79362V29.8332C20.4327 32.1866 19.5325 35.0191 19.5465 37.9221C19.5465 45.6446 25.7918 51.9015 33.4859 51.9015C41.194 51.9015 47.4393 45.6446 47.4393 37.9362C47.4393 33.3139 45.1747 29.0017 41.3769 26.3947ZM35.8912 2.94538H38.5637V24.9009C37.7057 24.5627 36.8054 24.3091 35.8912 24.1681V2.94538ZM24.9197 10.2733H27.5923V25.2814C26.6498 25.7183 25.7496 26.2538 24.9197 26.8879V10.2733ZM43.0788 43.6012C41.0674 46.9974 37.4243 49.069 33.4999 49.069C27.3531 49.069 22.3738 44.0662 22.3738 37.9221C22.3738 33.4126 25.0885 29.34 29.252 27.6207C29.4208 27.5925 29.5756 27.5221 29.7162 27.4375C30.9259 26.9866 32.22 26.7611 33.514 26.7611C33.8094 26.7611 34.0907 26.7752 34.3861 26.8034H34.4002C36.0881 26.9302 37.7338 27.4516 39.1826 28.3253C44.4712 31.4679 46.2156 38.3026 43.0788 43.6012Z" fill="url(#paint0_linear)"/>
<path d="M33.514 36.7805C32.5294 36.7805 31.7417 35.9913 31.7417 35.0049C31.7417 34.0184 32.5154 33.2293 33.5 33.2152C34.4846 33.2152 35.2723 34.0184 35.2723 34.9908C35.2723 35.7659 35.9053 36.4 36.6789 36.4C37.4666 36.4 38.0995 35.78 38.1136 34.9908C38.1136 33.1025 36.9602 31.3973 35.202 30.7068V29.5371C35.202 28.7621 34.569 28.1279 33.7954 28.1279C33.0217 28.1279 32.3888 28.7621 32.3888 29.5371V30.5518C29.9413 31.1859 28.4644 33.6943 29.0973 36.1464C29.6037 38.1756 31.4182 39.5848 33.5 39.5848C34.4705 39.5848 35.2582 40.3881 35.2582 41.3605C35.2582 42.3328 34.4565 43.122 33.4859 43.122C32.5154 43.122 31.7277 42.3187 31.7277 41.3464C31.7277 40.5713 31.0947 39.9371 30.3211 39.9371C29.5475 39.9371 28.9286 40.5572 28.9426 41.3323V41.3464C28.9567 43.432 30.3633 45.264 32.3747 45.7854V46.4195C32.3747 47.1946 33.0077 47.8287 33.7813 47.8287C34.5549 47.8287 35.1879 47.1946 35.1879 46.4195V45.6445C37.551 44.7144 38.7044 42.051 37.7901 39.6976C37.1009 37.9361 35.3989 36.7805 33.514 36.7805Z" fill="url(#paint1_linear)"/>
<path d="M6.89231 23.957H1.40659C0.632966 23.957 0 24.4586 0 25.0717V42.5714C0 43.1844 0.632966 43.686 1.40659 43.686H6.89231C7.66593 43.686 8.2989 43.1844 8.2989 42.5714V25.0717C8.2989 24.4586 7.66593 23.957 6.89231 23.957ZM5.48571 41.5682H2.81319V26.1863H5.48571V41.5682Z" fill="url(#paint2_linear)"/>
<path d="M18.0271 15.4873H12.5414C11.7677 15.4873 11.1348 16.1215 11.1348 16.8965V42.4033C11.1348 43.1784 11.7677 43.8125 12.5414 43.8125H18.0271C18.8007 43.8125 19.4337 43.1784 19.4337 42.4033V16.8965C19.4337 16.1215 18.8007 15.4873 18.0271 15.4873ZM16.6205 40.9941H13.948V18.3057H16.6205V40.9941Z" fill="url(#paint3_linear)"/>
</g>
<defs>
<linearGradient id="paint0_linear" x1="19.5464" y1="52.1627" x2="55.383" y2="47.3441" gradientUnits="userSpaceOnUse">
<stop stop-color="#7D4DCF"/>
<stop offset="0.432292" stop-color="#2F49D9"/>
<stop offset="1" stop-color="#212071"/>
</linearGradient>
<linearGradient id="paint1_linear" x1="28.9424" y1="47.9281" x2="40.7788" y2="46.5529" gradientUnits="userSpaceOnUse">
<stop stop-color="#7D4DCF"/>
<stop offset="0.432292" stop-color="#2F49D9"/>
<stop offset="1" stop-color="#212071"/>
</linearGradient>
<linearGradient id="paint2_linear" x1="-4.77142e-08" y1="43.7856" x2="10.7368" y2="42.6584" gradientUnits="userSpaceOnUse">
<stop stop-color="#7D4DCF"/>
<stop offset="0.432292" stop-color="#2F49D9"/>
<stop offset="1" stop-color="#212071"/>
</linearGradient>
<linearGradient id="paint3_linear" x1="11.1348" y1="43.9554" x2="21.9322" y2="43.1659" gradientUnits="userSpaceOnUse">
<stop stop-color="#7D4DCF"/>
<stop offset="0.432292" stop-color="#2F49D9"/>
<stop offset="1" stop-color="#212071"/>
</linearGradient>
<clipPath id="clip0">
<rect width="47.5429" height="52" fill="white"/>
</clipPath>
</defs>
</svg>
