<svg width="359" height="32" viewBox="0 0 359 32" fill="none" xmlns="http://www.w3.org/2000/svg">
<path d="M19.536 1.344V24H14.096V5.952H5.776V24H0.336V1.344H19.536ZM41.651 15.968C41.651 17.0773 41.4803 18.144 41.139 19.168C40.7977 20.192 40.2963 21.0987 39.635 21.888C38.995 22.656 38.2057 23.2747 37.267 23.744C36.3283 24.2133 35.2617 24.448 34.067 24.448C33.0857 24.448 32.1577 24.256 31.283 23.872C30.4083 23.4667 29.7257 22.9227 29.235 22.24H29.171V31.68H23.923V8.064H28.915V10.016H29.011C29.5017 9.376 30.1737 8.82133 31.027 8.352C31.9017 7.86133 32.9257 7.616 34.099 7.616C35.251 7.616 36.2963 7.84 37.235 8.288C38.1737 8.736 38.963 9.344 39.603 10.112C40.2643 10.88 40.7657 11.776 41.107 12.8C41.4697 13.8027 41.651 14.8587 41.651 15.968ZM36.563 15.968C36.563 15.456 36.4777 14.9547 36.307 14.464C36.1577 13.9733 35.923 13.5467 35.603 13.184C35.3043 12.8 34.9203 12.4907 34.451 12.256C33.9817 12.0213 33.4377 11.904 32.819 11.904C32.2217 11.904 31.6883 12.0213 31.219 12.256C30.7497 12.4907 30.3443 12.8 30.003 13.184C29.683 13.568 29.427 14.0053 29.235 14.496C29.0643 14.9867 28.979 15.488 28.979 16C28.979 16.512 29.0643 17.0133 29.235 17.504C29.427 17.9947 29.683 18.432 30.003 18.816C30.3443 19.2 30.7497 19.5093 31.219 19.744C31.6883 19.9787 32.2217 20.096 32.819 20.096C33.4377 20.096 33.9817 19.9787 34.451 19.744C34.9203 19.5093 35.3043 19.2 35.603 18.816C35.923 18.432 36.1577 17.9947 36.307 17.504C36.4777 16.992 36.563 16.48 36.563 15.968ZM61.8823 15.968C61.8823 17.2693 61.6476 18.4533 61.1783 19.52C60.7089 20.5653 60.0689 21.4613 59.2583 22.208C58.4476 22.9333 57.5089 23.4987 56.4423 23.904C55.3756 24.3093 54.2343 24.512 53.0183 24.512C51.8236 24.512 50.6823 24.3093 49.5943 23.904C48.5276 23.4987 47.5889 22.9333 46.7783 22.208C45.9889 21.4613 45.3596 20.5653 44.8903 19.52C44.4209 18.4533 44.1863 17.2693 44.1863 15.968C44.1863 14.6667 44.4209 13.4933 44.8903 12.448C45.3596 11.4027 45.9889 10.5173 46.7783 9.792C47.5889 9.06667 48.5276 8.512 49.5943 8.128C50.6823 7.744 51.8236 7.552 53.0183 7.552C54.2343 7.552 55.3756 7.744 56.4423 8.128C57.5089 8.512 58.4476 9.06667 59.2583 9.792C60.0689 10.5173 60.7089 11.4027 61.1783 12.448C61.6476 13.4933 61.8823 14.6667 61.8823 15.968ZM56.8263 15.968C56.8263 15.456 56.7409 14.9547 56.5703 14.464C56.3996 13.9733 56.1543 13.5467 55.8343 13.184C55.5143 12.8 55.1196 12.4907 54.6503 12.256C54.1809 12.0213 53.6369 11.904 53.0183 11.904C52.3996 11.904 51.8556 12.0213 51.3863 12.256C50.9169 12.4907 50.5223 12.8 50.2023 13.184C49.9036 13.5467 49.6689 13.9733 49.4983 14.464C49.3489 14.9547 49.2743 15.456 49.2743 15.968C49.2743 16.48 49.3489 16.9813 49.4983 17.472C49.6689 17.9627 49.9143 18.4107 50.2343 18.816C50.5543 19.2 50.9489 19.5093 51.4183 19.744C51.8876 19.9787 52.4316 20.096 53.0503 20.096C53.6689 20.096 54.2129 19.9787 54.6823 19.744C55.1516 19.5093 55.5463 19.2 55.8663 18.816C56.1863 18.4107 56.4209 17.9627 56.5703 17.472C56.7409 16.9813 56.8263 16.48 56.8263 15.968ZM66.2603 13.184L63.2843 10.944C63.4763 10.5813 63.7429 10.1973 64.0843 9.792C64.4469 9.38667 64.9056 9.01333 65.4603 8.672C66.0363 8.30933 66.7296 8.02133 67.5403 7.808C68.3509 7.57333 69.3109 7.456 70.4203 7.456C72.7029 7.456 74.4736 7.85067 75.7323 8.64C77.0123 9.42933 77.6523 10.5493 77.6523 12C77.6523 12.576 77.5563 13.0773 77.3643 13.504C77.1936 13.9307 76.9589 14.2933 76.6603 14.592C76.3829 14.8907 76.0736 15.1467 75.7323 15.36C75.4123 15.552 75.0923 15.712 74.7723 15.84V15.936C75.0923 15.9787 75.4656 16.096 75.8923 16.288C76.3189 16.4587 76.7136 16.7147 77.0763 17.056C77.4389 17.376 77.7483 17.7813 78.0043 18.272C78.2603 18.7413 78.3883 19.296 78.3883 19.936C78.3883 20.8107 78.1856 21.5573 77.7803 22.176C77.3749 22.7733 76.8096 23.2533 76.0843 23.616C75.3803 23.9787 74.5376 24.2347 73.5563 24.384C72.5963 24.5547 71.5616 24.64 70.4523 24.64C69.4496 24.64 68.5536 24.544 67.7643 24.352C66.9963 24.1813 66.3136 23.9787 65.7163 23.744C65.1403 23.488 64.6496 23.232 64.2443 22.976C63.8603 22.6987 63.5509 22.464 63.3163 22.272L65.5883 19.136C65.7803 19.2853 66.0363 19.456 66.3563 19.648C66.6763 19.8187 67.0283 19.9787 67.4123 20.128C67.8176 20.2773 68.2443 20.4053 68.6923 20.512C69.1616 20.6187 69.6203 20.672 70.0683 20.672C71.0283 20.672 71.7963 20.5547 72.3723 20.32C72.9483 20.064 73.2363 19.6587 73.2363 19.104C73.2363 18.8053 73.1296 18.56 72.9163 18.368C72.7029 18.1547 72.4149 17.9947 72.0523 17.888C71.7109 17.76 71.3269 17.6747 70.9003 17.632C70.4736 17.5893 70.0363 17.568 69.5883 17.568H66.9643V14.304H69.5883C70.0363 14.304 70.4523 14.2933 70.8363 14.272C71.2416 14.2293 71.5829 14.1653 71.8603 14.08C72.1589 13.9947 72.3829 13.8773 72.5323 13.728C72.7029 13.5573 72.7883 13.3333 72.7883 13.056C72.7883 12.5653 72.5216 12.1387 71.9883 11.776C71.4549 11.4133 70.6763 11.232 69.6523 11.232C69.0336 11.232 68.5109 11.3387 68.0843 11.552C67.6576 11.7653 67.3056 11.9893 67.0283 12.224C66.7083 12.5013 66.4523 12.8213 66.2603 13.184ZM98.0073 15.968C98.0073 17.2693 97.7726 18.4533 97.3033 19.52C96.8339 20.5653 96.1939 21.4613 95.3833 22.208C94.5726 22.9333 93.6339 23.4987 92.5673 23.904C91.5006 24.3093 90.3593 24.512 89.1433 24.512C87.9486 24.512 86.8073 24.3093 85.7193 23.904C84.6526 23.4987 83.7139 22.9333 82.9033 22.208C82.1139 21.4613 81.4846 20.5653 81.0153 19.52C80.5459 18.4533 80.3113 17.2693 80.3113 15.968C80.3113 14.6667 80.5459 13.4933 81.0153 12.448C81.4846 11.4027 82.1139 10.5173 82.9033 9.792C83.7139 9.06667 84.6526 8.512 85.7193 8.128C86.8073 7.744 87.9486 7.552 89.1433 7.552C90.3593 7.552 91.5006 7.744 92.5673 8.128C93.6339 8.512 94.5726 9.06667 95.3833 9.792C96.1939 10.5173 96.8339 11.4027 97.3033 12.448C97.7726 13.4933 98.0073 14.6667 98.0073 15.968ZM92.9513 15.968C92.9513 15.456 92.8659 14.9547 92.6953 14.464C92.5246 13.9733 92.2793 13.5467 91.9593 13.184C91.6393 12.8 91.2446 12.4907 90.7753 12.256C90.3059 12.0213 89.7619 11.904 89.1433 11.904C88.5246 11.904 87.9806 12.0213 87.5113 12.256C87.0419 12.4907 86.6473 12.8 86.3273 13.184C86.0286 13.5467 85.7939 13.9733 85.6233 14.464C85.4739 14.9547 85.3993 15.456 85.3993 15.968C85.3993 16.48 85.4739 16.9813 85.6233 17.472C85.7939 17.9627 86.0393 18.4107 86.3593 18.816C86.6793 19.2 87.0739 19.5093 87.5433 19.744C88.0126 19.9787 88.5566 20.096 89.1753 20.096C89.7939 20.096 90.3379 19.9787 90.8073 19.744C91.2766 19.5093 91.6713 19.2 91.9913 18.816C92.3113 18.4107 92.5459 17.9627 92.6953 17.472C92.8659 16.9813 92.9513 16.48 92.9513 15.968ZM119.057 15.968C119.057 17.0773 118.887 18.144 118.545 19.168C118.204 20.192 117.703 21.0987 117.041 21.888C116.401 22.656 115.612 23.2747 114.673 23.744C113.735 24.2133 112.668 24.448 111.473 24.448C110.492 24.448 109.564 24.256 108.689 23.872C107.815 23.4667 107.132 22.9227 106.641 22.24H106.577V31.68H101.329V8.064H106.321V10.016H106.417C106.908 9.376 107.58 8.82133 108.433 8.352C109.308 7.86133 110.332 7.616 111.505 7.616C112.657 7.616 113.703 7.84 114.641 8.288C115.58 8.736 116.369 9.344 117.009 10.112C117.671 10.88 118.172 11.776 118.513 12.8C118.876 13.8027 119.057 14.8587 119.057 15.968ZM113.969 15.968C113.969 15.456 113.884 14.9547 113.713 14.464C113.564 13.9733 113.329 13.5467 113.009 13.184C112.711 12.8 112.327 12.4907 111.857 12.256C111.388 12.0213 110.844 11.904 110.225 11.904C109.628 11.904 109.095 12.0213 108.625 12.256C108.156 12.4907 107.751 12.8 107.409 13.184C107.089 13.568 106.833 14.0053 106.641 14.496C106.471 14.9867 106.385 15.488 106.385 16C106.385 16.512 106.471 17.0133 106.641 17.504C106.833 17.9947 107.089 18.432 107.409 18.816C107.751 19.2 108.156 19.5093 108.625 19.744C109.095 19.9787 109.628 20.096 110.225 20.096C110.844 20.096 111.388 19.9787 111.857 19.744C112.327 19.5093 112.711 19.2 113.009 18.816C113.329 18.432 113.564 17.9947 113.713 17.504C113.884 16.992 113.969 16.48 113.969 15.968ZM128.057 2.976C128.057 3.38133 127.971 3.76533 127.801 4.128C127.651 4.46933 127.438 4.768 127.161 5.024C126.905 5.28 126.585 5.48267 126.201 5.632C125.838 5.78133 125.454 5.856 125.049 5.856C124.195 5.856 123.481 5.57867 122.905 5.024C122.329 4.448 122.041 3.76533 122.041 2.976C122.041 2.592 122.115 2.22933 122.265 1.888C122.414 1.52533 122.627 1.216 122.905 0.959999C123.182 0.703999 123.502 0.501332 123.865 0.351999C124.227 0.181332 124.622 0.0959988 125.049 0.0959988C125.454 0.0959988 125.838 0.170666 126.201 0.32C126.585 0.469332 126.905 0.671999 127.161 0.927999C127.438 1.184 127.651 1.49333 127.801 1.856C127.971 2.19733 128.057 2.57067 128.057 2.976ZM122.424 24V8.064H127.673V24H122.424ZM142.805 13.216C142.507 12.832 142.101 12.5227 141.589 12.288C141.077 12.0533 140.555 11.936 140.021 11.936C139.467 11.936 138.965 12.0533 138.517 12.288C138.069 12.5013 137.685 12.8 137.365 13.184C137.045 13.5467 136.789 13.9733 136.597 14.464C136.427 14.9547 136.341 15.4773 136.341 16.032C136.341 16.5867 136.427 17.1093 136.597 17.6C136.768 18.0907 137.013 18.528 137.333 18.912C137.675 19.2747 138.069 19.5627 138.517 19.776C138.987 19.9893 139.509 20.096 140.085 20.096C140.619 20.096 141.141 20 141.653 19.808C142.187 19.5947 142.613 19.296 142.933 18.912L145.845 22.464C145.184 23.104 144.331 23.6053 143.285 23.968C142.24 24.3307 141.131 24.512 139.957 24.512C138.699 24.512 137.525 24.32 136.437 23.936C135.349 23.552 134.4 22.9973 133.589 22.272C132.8 21.5253 132.171 20.6293 131.701 19.584C131.253 18.5387 131.029 17.3547 131.029 16.032C131.029 14.7307 131.253 13.5573 131.701 12.512C132.171 11.4667 132.8 10.5813 133.589 9.856C134.4 9.10933 135.349 8.544 136.437 8.16C137.525 7.75467 138.688 7.552 139.925 7.552C140.501 7.552 141.067 7.60533 141.621 7.712C142.197 7.81867 142.741 7.968 143.253 8.16C143.787 8.33067 144.267 8.55467 144.693 8.832C145.141 9.088 145.525 9.376 145.845 9.696L142.805 13.216ZM146.515 8.064H160.627V12.128H156.179V24H150.931V12.128H146.515V8.064ZM168.577 8.064V12.896H172.129C173.324 12.896 174.337 13.0347 175.169 13.312C176.001 13.5893 176.673 13.984 177.185 14.496C177.697 14.9867 178.071 15.5733 178.305 16.256C178.54 16.9173 178.657 17.632 178.657 18.4C178.657 19.1893 178.519 19.9253 178.241 20.608C177.964 21.2907 177.559 21.888 177.025 22.4C176.492 22.8907 175.82 23.2853 175.009 23.584C174.22 23.8613 173.303 24 172.257 24H163.329V8.064H168.577ZM168.577 20.32H171.137C171.863 20.32 172.449 20.192 172.897 19.936C173.367 19.6587 173.601 19.1573 173.601 18.432C173.601 17.7067 173.356 17.216 172.865 16.96C172.396 16.704 171.799 16.576 171.073 16.576H168.577V20.32ZM188.109 8.064H202.221V12.128H197.773V24H192.525V12.128H188.109V8.064ZM214.331 17.056H213.659C213.083 17.056 212.496 17.088 211.899 17.152C211.323 17.1947 210.8 17.2907 210.331 17.44C209.883 17.5893 209.51 17.8133 209.211 18.112C208.912 18.3893 208.763 18.7627 208.763 19.232C208.763 19.5307 208.827 19.7867 208.955 20C209.104 20.2133 209.286 20.384 209.499 20.512C209.712 20.64 209.958 20.736 210.235 20.8C210.512 20.8427 210.779 20.864 211.035 20.864C212.102 20.864 212.912 20.576 213.467 20C214.043 19.4027 214.331 18.6027 214.331 17.6V17.056ZM204.699 10.24C205.638 9.344 206.726 8.672 207.963 8.224C209.222 7.776 210.502 7.552 211.803 7.552C213.147 7.552 214.278 7.72267 215.195 8.064C216.134 8.384 216.891 8.896 217.467 9.6C218.043 10.2827 218.459 11.1573 218.715 12.224C218.992 13.2693 219.131 14.5173 219.131 15.968V24H214.331V22.304H214.235C213.83 22.9653 213.211 23.4773 212.379 23.84C211.568 24.2027 210.683 24.384 209.723 24.384C209.083 24.384 208.422 24.2987 207.739 24.128C207.056 23.9573 206.427 23.68 205.851 23.296C205.296 22.912 204.838 22.4 204.475 21.76C204.112 21.12 203.931 20.3307 203.931 19.392C203.931 18.24 204.24 17.312 204.859 16.608C205.499 15.904 206.31 15.36 207.291 14.976C208.294 14.592 209.403 14.336 210.619 14.208C211.835 14.08 213.019 14.016 214.171 14.016V13.76C214.171 12.9707 213.894 12.3947 213.339 12.032C212.784 11.648 212.102 11.456 211.291 11.456C210.544 11.456 209.819 11.616 209.115 11.936C208.432 12.256 207.846 12.64 207.355 13.088L204.699 10.24ZM242.888 16.256C242.888 15.1253 242.557 14.1867 241.896 13.44C241.235 12.6933 240.36 12.32 239.272 12.32C238.184 12.32 237.277 12.64 236.552 13.28C235.848 13.92 235.496 14.9013 235.496 16.224C235.496 17.44 235.837 18.4107 236.52 19.136C237.203 19.84 238.099 20.192 239.208 20.192C240.317 20.192 241.203 19.8187 241.864 19.072C242.547 18.3253 242.888 17.3867 242.888 16.256ZM239.848 8.064C240.957 8.064 241.992 8.256 242.952 8.64C243.933 9.00267 244.776 9.536 245.48 10.24C246.205 10.9227 246.771 11.7653 247.176 12.768C247.603 13.7707 247.816 14.9013 247.816 16.16C247.816 17.4187 247.592 18.5707 247.144 19.616C246.717 20.64 246.109 21.5147 245.32 22.24C244.552 22.9653 243.624 23.5307 242.536 23.936C241.448 24.32 240.264 24.512 238.984 24.512C238.003 24.512 237.064 24.3627 236.168 24.064C235.272 23.7867 234.461 23.36 233.736 22.784C233.032 22.208 232.413 21.4827 231.88 20.608C231.368 19.7333 230.984 18.72 230.728 17.568C230.536 16.6507 230.44 15.6267 230.44 14.496C230.44 12.1067 230.675 10.08 231.144 8.416C231.613 6.752 232.317 5.39733 233.256 4.352C234.195 3.30667 235.368 2.54933 236.776 2.08C238.205 1.61067 239.88 1.376 241.8 1.376H246.984V5.312H241.736C240.136 5.312 238.856 5.61067 237.896 6.208C236.936 6.784 236.36 7.68 236.168 8.896C236.701 8.53333 237.309 8.30933 237.992 8.224C238.675 8.11733 239.293 8.064 239.848 8.064ZM262.118 14.208C262.118 13.376 261.851 12.6613 261.318 12.064C260.806 11.4667 260.027 11.168 258.982 11.168C258.47 11.168 258 11.2533 257.574 11.424C257.147 11.5733 256.774 11.7867 256.454 12.064C256.134 12.3413 255.878 12.672 255.686 13.056C255.494 13.4187 255.387 13.8027 255.366 14.208H262.118ZM266.95 16.224C266.95 16.4373 266.95 16.6507 266.95 16.864C266.95 17.0773 266.939 17.28 266.918 17.472H255.366C255.408 17.92 255.536 18.3253 255.75 18.688C255.984 19.0507 256.272 19.3707 256.614 19.648C256.976 19.904 257.371 20.1067 257.798 20.256C258.246 20.4053 258.704 20.48 259.174 20.48C260.006 20.48 260.71 20.3307 261.286 20.032C261.862 19.712 262.331 19.3067 262.694 18.816L266.342 21.12C265.595 22.208 264.603 23.0507 263.366 23.648C262.15 24.224 260.731 24.512 259.11 24.512C257.915 24.512 256.784 24.3307 255.718 23.968C254.651 23.584 253.712 23.04 252.902 22.336C252.112 21.6107 251.483 20.7253 251.014 19.68C250.566 18.6347 250.342 17.44 250.342 16.096C250.342 14.7947 250.566 13.6213 251.014 12.576C251.462 11.5093 252.07 10.6133 252.838 9.888C253.606 9.14133 254.512 8.56533 255.558 8.16C256.603 7.75467 257.734 7.552 258.95 7.552C260.123 7.552 261.2 7.75467 262.182 8.16C263.163 8.544 264.006 9.10933 264.71 9.856C265.414 10.6027 265.958 11.5093 266.342 12.576C266.747 13.6427 266.95 14.8587 266.95 16.224ZM271.26 13.184L268.284 10.944C268.476 10.5813 268.743 10.1973 269.084 9.792C269.447 9.38667 269.906 9.01333 270.46 8.672C271.036 8.30933 271.73 8.02133 272.54 7.808C273.351 7.57333 274.311 7.456 275.42 7.456C277.703 7.456 279.474 7.85067 280.732 8.64C282.012 9.42933 282.652 10.5493 282.652 12C282.652 12.576 282.556 13.0773 282.364 13.504C282.194 13.9307 281.959 14.2933 281.66 14.592C281.383 14.8907 281.074 15.1467 280.732 15.36C280.412 15.552 280.092 15.712 279.772 15.84V15.936C280.092 15.9787 280.466 16.096 280.892 16.288C281.319 16.4587 281.714 16.7147 282.076 17.056C282.439 17.376 282.748 17.7813 283.004 18.272C283.26 18.7413 283.388 19.296 283.388 19.936C283.388 20.8107 283.186 21.5573 282.78 22.176C282.375 22.7733 281.81 23.2533 281.084 23.616C280.38 23.9787 279.538 24.2347 278.556 24.384C277.596 24.5547 276.562 24.64 275.452 24.64C274.45 24.64 273.554 24.544 272.764 24.352C271.996 24.1813 271.314 23.9787 270.716 23.744C270.14 23.488 269.65 23.232 269.244 22.976C268.86 22.6987 268.551 22.464 268.316 22.272L270.588 19.136C270.78 19.2853 271.036 19.456 271.356 19.648C271.676 19.8187 272.028 19.9787 272.412 20.128C272.818 20.2773 273.244 20.4053 273.692 20.512C274.162 20.6187 274.62 20.672 275.068 20.672C276.028 20.672 276.796 20.5547 277.372 20.32C277.948 20.064 278.236 19.6587 278.236 19.104C278.236 18.8053 278.13 18.56 277.916 18.368C277.703 18.1547 277.415 17.9947 277.052 17.888C276.711 17.76 276.327 17.6747 275.9 17.632C275.474 17.5893 275.036 17.568 274.588 17.568H271.964V14.304H274.588C275.036 14.304 275.452 14.2933 275.836 14.272C276.242 14.2293 276.583 14.1653 276.86 14.08C277.159 13.9947 277.383 13.8773 277.532 13.728C277.703 13.5573 277.788 13.3333 277.788 13.056C277.788 12.5653 277.522 12.1387 276.988 11.776C276.455 11.4133 275.676 11.232 274.652 11.232C274.034 11.232 273.511 11.3387 273.084 11.552C272.658 11.7653 272.306 11.9893 272.028 12.224C271.708 12.5013 271.452 12.8213 271.26 13.184ZM291.327 24H286.079V8.064H301.663V24H296.415V12.128H291.327V24ZM316.743 14.208C316.743 13.376 316.476 12.6613 315.943 12.064C315.431 11.4667 314.652 11.168 313.607 11.168C313.095 11.168 312.625 11.2533 312.199 11.424C311.772 11.5733 311.399 11.7867 311.079 12.064C310.759 12.3413 310.503 12.672 310.311 13.056C310.119 13.4187 310.012 13.8027 309.991 14.208H316.743ZM321.575 16.224C321.575 16.4373 321.575 16.6507 321.575 16.864C321.575 17.0773 321.564 17.28 321.543 17.472H309.991C310.033 17.92 310.161 18.3253 310.375 18.688C310.609 19.0507 310.897 19.3707 311.239 19.648C311.601 19.904 311.996 20.1067 312.423 20.256C312.871 20.4053 313.329 20.48 313.799 20.48C314.631 20.48 315.335 20.3307 315.911 20.032C316.487 19.712 316.956 19.3067 317.319 18.816L320.967 21.12C320.22 22.208 319.228 23.0507 317.991 23.648C316.775 24.224 315.356 24.512 313.735 24.512C312.54 24.512 311.409 24.3307 310.343 23.968C309.276 23.584 308.337 23.04 307.527 22.336C306.737 21.6107 306.108 20.7253 305.639 19.68C305.191 18.6347 304.967 17.44 304.967 16.096C304.967 14.7947 305.191 13.6213 305.639 12.576C306.087 11.5093 306.695 10.6133 307.463 9.888C308.231 9.14133 309.137 8.56533 310.183 8.16C311.228 7.75467 312.359 7.552 313.575 7.552C314.748 7.552 315.825 7.75467 316.807 8.16C317.788 8.544 318.631 9.10933 319.335 9.856C320.039 10.6027 320.583 11.5093 320.967 12.576C321.372 13.6427 321.575 14.8587 321.575 16.224ZM330.077 13.856C330.547 13.8773 331.005 13.9413 331.453 14.048L335.101 8.064H340.893L335.869 15.776C337.213 16.672 338.28 17.8133 339.069 19.2C339.859 20.5867 340.488 22.1867 340.957 24H335.165C334.931 22.8907 334.653 21.9627 334.333 21.216C334.013 20.4693 333.64 19.872 333.213 19.424C332.808 18.9547 332.339 18.6027 331.805 18.368C331.293 18.1333 330.717 17.9733 330.077 17.888V24H324.829V8.064H330.077V13.856ZM353.206 17.056H352.534C351.958 17.056 351.371 17.088 350.774 17.152C350.198 17.1947 349.675 17.2907 349.206 17.44C348.758 17.5893 348.385 17.8133 348.086 18.112C347.787 18.3893 347.638 18.7627 347.638 19.232C347.638 19.5307 347.702 19.7867 347.83 20C347.979 20.2133 348.161 20.384 348.374 20.512C348.587 20.64 348.833 20.736 349.11 20.8C349.387 20.8427 349.654 20.864 349.91 20.864C350.977 20.864 351.787 20.576 352.342 20C352.918 19.4027 353.206 18.6027 353.206 17.6V17.056ZM343.574 10.24C344.513 9.344 345.601 8.672 346.838 8.224C348.097 7.776 349.377 7.552 350.678 7.552C352.022 7.552 353.153 7.72267 354.07 8.064C355.009 8.384 355.766 8.896 356.342 9.6C356.918 10.2827 357.334 11.1573 357.59 12.224C357.867 13.2693 358.006 14.5173 358.006 15.968V24H353.206V22.304H353.11C352.705 22.9653 352.086 23.4773 351.254 23.84C350.443 24.2027 349.558 24.384 348.598 24.384C347.958 24.384 347.297 24.2987 346.614 24.128C345.931 23.9573 345.302 23.68 344.726 23.296C344.171 22.912 343.713 22.4 343.35 21.76C342.987 21.12 342.806 20.3307 342.806 19.392C342.806 18.24 343.115 17.312 343.734 16.608C344.374 15.904 345.185 15.36 346.166 14.976C347.169 14.592 348.278 14.336 349.494 14.208C350.71 14.08 351.894 14.016 353.046 14.016V13.76C353.046 12.9707 352.769 12.3947 352.214 12.032C351.659 11.648 350.977 11.456 350.166 11.456C349.419 11.456 348.694 11.616 347.99 11.936C347.307 12.256 346.721 12.64 346.23 13.088L343.574 10.24Z" fill="url(#paint0_linear)"/>
<defs>
<linearGradient id="paint0_linear" x1="-2" y1="38.2422" x2="84.8496" y2="-178.52" gradientUnits="userSpaceOnUse">
<stop stop-color="#7D4DCF"/>
<stop offset="0.432292" stop-color="#2F49D9"/>
<stop offset="1" stop-color="#212071"/>
</linearGradient>
</defs>
</svg>
