<svg width="52" height="52" viewBox="0 0 52 52" fill="none" xmlns="http://www.w3.org/2000/svg">
<path d="M48.1588 8.27257C44.4388 8.27257 41.4124 5.24611 41.4124 1.52628V0H10.5875V1.52628C10.5875 5.24631 7.56105 8.27257 3.84122 8.27257H2.31494V18.4225C2.31494 25.7162 4.51204 32.7394 8.669 38.7326C12.8259 44.7257 18.634 49.2444 25.4653 51.7999L26 52L26.5349 51.7999C33.3663 49.2444 39.1743 44.7258 43.3311 38.7326C47.488 32.7394 49.6851 25.7162 49.6851 18.4225V8.27257H48.1588ZM46.6327 18.4225H46.6325C46.6325 25.0915 44.6235 31.5129 40.8227 36.9927C37.131 42.3154 32.0145 46.3662 25.9999 48.7354C19.9855 46.3661 14.8689 42.3154 11.1772 36.9927C7.37641 31.513 5.3675 25.0915 5.3675 18.4225V11.2065C9.55086 10.5494 12.8643 7.23592 13.5215 3.05256H38.4787C39.1357 7.23592 42.4492 10.5494 46.6327 11.2065V18.4225Z" fill="url(#paint0_linear)"/>
<path d="M32.8106 14.3394L22.7075 24.4426L19.1893 20.9244L12.7139 27.3999L22.7075 37.3936L39.2861 20.8149L32.8106 14.3394ZM17.0309 27.4001L19.1894 25.2416L22.7076 28.7598L32.8107 18.6566L34.9693 20.8151L22.7076 33.0767L17.0309 27.4001Z" fill="url(#paint1_linear)"/>
<defs>
<linearGradient id="paint0_linear" x1="2.31494" y1="52.2624" x2="61.2306" y2="38.8672" gradientUnits="userSpaceOnUse">
<stop stop-color="#7D4DCF"/>
<stop offset="0.432292" stop-color="#2F49D9"/>
<stop offset="1" stop-color="#212071"/>
</linearGradient>
<linearGradient id="paint1_linear" x1="12.7139" y1="37.5099" x2="44.8144" y2="28.2755" gradientUnits="userSpaceOnUse">
<stop stop-color="#7D4DCF"/>
<stop offset="0.432292" stop-color="#2F49D9"/>
<stop offset="1" stop-color="#212071"/>
</linearGradient>
</defs>
</svg>
