<svg width="19" height="15" viewBox="0 0 19 15" fill="none" xmlns="http://www.w3.org/2000/svg">
<path d="M16.9654 0.132425C16.9654 0.132425 18.6305 -0.516863 18.4918 1.05998C18.4455 1.70927 18.0293 3.98177 17.7055 6.43979L16.5954 13.7211C16.5954 13.7211 16.5029 14.7878 15.6703 14.9733C14.8377 15.1588 13.5889 14.324 13.3576 14.1385C13.1726 13.9994 9.88861 11.9124 8.73227 10.892C8.40849 10.6138 8.03846 10.0572 8.77852 9.40796L13.6352 4.77019C14.1902 4.21366 14.7452 2.91509 12.4326 4.49193L5.95705 8.89781C5.95705 8.89781 5.21699 9.36158 3.82938 8.94418L0.822894 8.01663C0.822894 8.01663 -0.287194 7.32097 1.60921 6.6253C6.23457 4.44555 11.9238 2.21942 16.9654 0.132425Z" fill="#0D20E4"/>
</svg>
