<svg width="163" height="45" viewBox="0 0 163 45" fill="none" xmlns="http://www.w3.org/2000/svg">
<g clip-path="url(#clip0)">
<path d="M163 44.2634C161.261 44.2634 159.559 44.3002 157.857 44.2266C157.635 44.2266 157.339 43.7479 157.265 43.4533C156.303 39.7339 155.378 36.0146 154.416 32.2953C154.082 31.0065 154.082 31.0065 152.75 31.0065C146.941 31.0065 141.094 31.0065 135.285 31.0065C134.952 31.0065 134.656 31.0065 134.212 31.0065C133.694 33.0318 133.213 34.9835 132.695 36.9721C132.139 39.1816 131.621 41.4279 131.029 43.6374C130.955 43.8952 130.659 44.2634 130.474 44.2634C128.772 44.3002 127.07 44.3002 125.257 44.3002C125.997 41.612 126.7 39.0711 127.403 36.4934C129.549 28.6865 131.695 20.8796 133.805 13.0359C134.656 9.86898 136.395 7.40171 139.54 6.07601C139.762 6.00236 139.984 5.89189 140.206 5.81824C140.28 5.78141 140.354 5.81824 140.539 5.81824C138.8 12.7413 137.098 19.5907 135.359 26.5506C141.242 26.5506 147.052 26.5506 153.009 26.5506C151.27 19.6276 149.531 12.7413 147.718 5.70776C149.79 6.29696 151.418 7.32806 152.528 8.91153C153.305 10.0163 153.971 11.3051 154.342 12.594C157.265 23.0155 160.114 33.4737 163 43.8952C163 43.9688 163 44.0425 163 44.2634Z" fill="#A1ABC6"/>
<path d="M62.647 0.810059C64.3491 0.810059 66.0143 0.810059 67.7164 0.810059C67.7164 15.2454 67.7164 29.6808 67.7164 44.1529C66.0513 44.1529 64.3861 44.1529 62.647 44.1529C62.647 29.7544 62.647 15.3559 62.647 0.810059Z" fill="#A1ABC6"/>
<path d="M44.2563 5.85522C45.9955 6.03935 47.2166 7.07045 48.2157 8.39614C49.3628 9.86914 49.7699 11.6367 49.7699 13.4411C49.8069 23.5312 49.7699 33.658 49.7699 43.748C49.7699 43.8585 49.7329 43.969 49.7329 44.1531C47.9937 44.1531 46.2915 44.1531 44.4044 44.1531C44.4044 43.7849 44.4044 43.4166 44.4044 43.0484C44.4044 31.0066 44.4044 18.9649 44.4044 6.92315C44.4044 6.59172 44.2934 6.22347 44.2563 5.85522Z" fill="#A1ABC6"/>
<path d="M113.082 39.329C113.045 38.9975 113.008 38.7029 113.008 38.3715C113.008 26.1457 113.008 13.9198 113.008 1.73076C113.008 1.47299 113.008 1.21521 113.008 0.883789C114.784 0.883789 116.487 0.883789 118.337 0.883789C118.337 1.25204 118.337 1.62029 118.337 2.02536C118.337 12.0049 118.3 21.9844 118.337 31.964C118.337 35.4255 116.746 37.6718 113.637 38.9975C113.452 39.0712 113.267 39.2185 113.082 39.329Z" fill="#A1ABC6"/>
<path d="M86.0332 5.74463C86.0332 18.5229 86.0332 31.3379 86.0332 44.1898C84.257 44.1898 82.5549 44.1898 80.7417 44.1898C80.7047 43.8584 80.7047 43.5638 80.7047 43.2692C80.7047 33.3633 80.7047 23.4942 80.7047 13.5883C80.6677 9.57442 82.2959 7.25445 86.0332 5.74463C86.0702 5.78145 86.0332 5.74463 86.0332 5.74463Z" fill="#A1ABC6"/>
<path d="M5.21759 5.70776C5.25459 6.03919 5.3656 6.33379 5.3656 6.66521C5.3656 18.8911 5.3656 31.1169 5.3656 43.3428C5.3656 43.6006 5.3656 43.8583 5.3656 44.1898C3.58944 44.1898 1.85028 44.1898 0.0741128 44.1898C0.0741128 43.932 0.0371094 43.6742 0.0371094 43.4164C0.0371094 33.5842 0.0371094 23.7151 0.0371094 13.8829C0.0371094 11.0842 0.740174 8.5801 3.1824 6.84933C3.77445 6.37061 4.51452 6.07601 5.21759 5.70776Z" fill="#A1ABC6"/>
<path d="M106.459 39.5866C102.573 39.1079 100.057 36.9352 98.984 32.8477C97.7629 28.0972 96.7268 23.31 95.6167 18.5596C94.5806 14.1774 93.5815 9.83211 92.5824 5.44995L92.5454 5.48678C94.8396 5.59725 96.6528 6.62835 98.0589 8.39594C99.206 9.86894 99.7611 11.5997 100.205 13.3673C102.24 21.9475 104.238 30.5277 106.274 39.1079C106.348 39.292 106.385 39.4393 106.459 39.5866Z" fill="#A1ABC6"/>
<path d="M11.9523 5.3396C13.2104 6.0761 14.6166 6.62847 15.6897 7.58592C17.5028 9.16939 18.1319 11.4525 18.4279 13.7357C19.464 21.9108 20.4631 30.0859 21.4992 38.2979C21.5362 38.5556 21.6102 38.8134 21.6472 39.0712L21.6842 39.0344C18.0209 38.1137 15.8007 35.6096 15.2826 31.743C14.1725 23.2365 13.0624 14.7299 11.9523 6.18657C11.8783 5.9288 11.9523 5.6342 11.9523 5.3396Z" fill="#A1ABC6"/>
<path d="M28.2705 39.1449C28.5665 36.5671 28.8626 33.9526 29.1956 31.3748C29.8617 25.8879 30.5647 20.4378 31.2678 14.9509C31.4158 13.8462 31.5638 12.7414 31.8598 11.6735C32.7109 8.46976 34.6721 6.33391 37.9654 5.41329L37.9284 5.37646C37.6694 7.47548 37.4474 9.5745 37.1883 11.6735C36.3743 17.8601 35.5602 24.0835 34.7831 30.2701C34.4501 32.811 34.043 35.3519 31.9338 37.0827C30.8237 37.9297 29.4546 38.4452 28.2705 39.1449Z" fill="#A1ABC6"/>
<path d="M28.2336 39.1078C28.0856 40.1389 27.9376 41.2068 27.8265 42.2379C27.6045 44.0424 26.5314 45.0366 24.9033 44.9998C23.2751 44.9998 22.202 43.9319 22.017 42.1643C21.906 41.1332 21.795 40.0653 21.684 39.0342L21.647 39.071C23.8302 39.5866 26.0504 39.4393 28.2336 39.1078C28.2706 39.1447 28.2336 39.1078 28.2336 39.1078Z" fill="#A1ABC6"/>
<path d="M11.9524 5.33957C10.9533 5.30275 9.95421 5.15545 8.95512 5.19228C7.697 5.26593 6.43889 5.5237 5.21777 5.671C5.29178 4.71355 5.32878 3.75611 5.43979 2.79866C5.62481 1.06789 6.5499 0.147267 8.14104 -3.24817e-05C9.69518 -0.147332 10.9163 0.77329 11.3233 2.43041C11.5824 3.42468 11.7304 4.38213 11.9524 5.33957Z" fill="#A1ABC6"/>
<path d="M106.459 39.6235C108.568 39.9181 110.677 39.8812 112.75 39.292C112.861 39.2552 112.972 39.3289 113.083 39.3289H113.046C113.009 40.2863 113.009 41.2438 112.935 42.2012C112.713 44.3002 111.269 45.3313 109.271 44.9263C108.42 44.7421 107.791 44.2634 107.532 43.4901C107.088 42.2012 106.829 40.8755 106.459 39.6235C106.459 39.5866 106.459 39.6235 106.459 39.6235Z" fill="#A1ABC6"/>
<path d="M37.9286 5.37631C38.0766 4.52934 38.1876 3.68236 38.3356 2.87222C38.7056 0.810024 40.1488 -0.257898 42.1099 0.110351C43.22 0.3313 44.0341 0.957323 44.1821 2.02524C44.3671 3.27729 44.2561 4.56616 44.2561 5.85503C42.961 5.63408 41.6659 5.33948 40.3338 5.22901C39.5567 5.11853 38.7056 5.30266 37.9286 5.37631C37.8916 5.37631 37.9286 5.37631 37.9286 5.37631Z" fill="#A1ABC6"/>
<path d="M92.6198 5.44993C90.3996 4.97121 88.2164 5.19216 86.0332 5.78135L86.0702 5.81818C86.0702 4.89756 86.0332 3.94011 86.0702 3.01949C86.1442 1.36237 87.1063 0.294447 88.6605 0.110323C90.2146 -0.0738018 91.4357 0.77317 91.8798 2.35664C92.1758 3.35091 92.3608 4.41883 92.6198 5.44993C92.5828 5.48675 92.6198 5.44993 92.6198 5.44993Z" fill="#A1ABC6"/>
<path d="M147.644 5.37657C145.275 5.37657 143.055 5.37657 140.687 5.37657C141.094 3.9404 141.094 2.24646 142.167 0.920764C143.277 -0.478581 145.608 -0.220807 146.497 1.39949C146.645 1.69409 146.793 1.98869 146.867 2.28328C147.126 3.35121 147.385 4.3823 147.644 5.37657Z" fill="#A1ABC6"/>
</g>
<defs>
<clipPath id="clip0">
<rect width="163" height="45" fill="white"/>
</clipPath>
</defs>
</svg>
