<svg width="165" height="43" viewBox="0 0 165 43" fill="none" xmlns="http://www.w3.org/2000/svg">
<g clip-path="url(#clip0)">
<path d="M82.5964 8.98232V34.0657C82.5964 34.2568 82.4516 34.4479 82.2104 34.4479H79.5569C78.3508 34.4479 77.1929 33.8268 76.5174 32.8234L64.5525 14.5245L64.9385 23.6501V34.1134C64.9385 34.3045 64.7937 34.4957 64.5525 34.4957H61.0788C60.8859 34.4957 60.6929 34.3523 60.6929 34.1134V8.98232C60.6929 8.79121 60.8376 8.6001 61.0788 8.6001H63.6841C64.8902 8.6001 66.0481 9.22121 66.7236 10.2245L78.6885 28.4757L78.3025 19.3501V8.98232C78.3025 8.79121 78.4473 8.6001 78.6885 8.6001H82.1622C82.4516 8.6001 82.5964 8.74343 82.5964 8.98232Z" fill="#A1ABC6"/>
<path d="M118.202 34.4001H114.535C114.294 34.4001 114.101 34.1612 114.197 33.9223L123.943 8.93454C124.039 8.74343 124.232 8.6001 124.425 8.6001H129.057C129.298 8.6001 129.491 8.74343 129.539 8.93454L139.333 33.9223C139.43 34.1612 139.237 34.4001 138.996 34.4001H135.329C135.184 34.4001 135.039 34.3045 134.991 34.1612L127.127 13.6168C127.031 13.3301 126.548 13.3301 126.452 13.6168L118.588 34.1612C118.491 34.3045 118.346 34.4001 118.202 34.4001Z" fill="#A1ABC6"/>
<path d="M164.903 33.8268L157.57 24.5579C161.719 23.7934 164.132 21.0223 164.132 16.7701C164.132 11.8968 160.947 8.6001 155.254 8.6001H145.026C144.737 8.6001 144.496 8.83899 144.496 9.12565C144.496 11.0368 146.039 12.5657 147.969 12.5657H154.868C158.294 12.5657 159.934 14.2857 159.934 16.8179C159.934 19.3501 158.342 21.0701 154.868 21.0701H145.123C144.833 21.0701 144.592 21.309 144.592 21.5957V34.0179C144.592 34.209 144.737 34.4001 144.978 34.4001H148.452C148.645 34.4001 148.838 34.2568 148.838 34.0179V24.7968H152.842L159.211 33.0145C159.886 33.9223 160.947 34.4001 162.105 34.4001H164.759C164.952 34.4001 165.096 34.0657 164.903 33.8268Z" fill="#A1ABC6"/>
<path d="M107.202 8.6001H91.0396C90.7501 8.6001 90.5571 8.79121 90.5571 9.07788C90.5571 10.989 92.1492 12.5657 94.0791 12.5657H107.202C107.395 12.5657 107.588 12.4223 107.588 12.1834V8.93454C107.54 8.74343 107.395 8.6001 107.202 8.6001ZM107.202 30.4345H95.1405C94.9475 30.4345 94.7545 30.2912 94.7545 30.0523V23.6023C94.7545 23.4112 94.8992 23.2201 95.1405 23.2201H106.285C106.478 23.2201 106.671 23.0768 106.671 22.8379V19.589C106.671 19.3979 106.526 19.2068 106.285 19.2068H91.0878C90.7984 19.2068 90.5571 19.4457 90.5571 19.7323V33.8268C90.5571 34.1134 90.7984 34.3523 91.0878 34.3523H107.202C107.395 34.3523 107.588 34.209 107.588 33.9701V30.7212C107.54 30.5779 107.395 30.4345 107.202 30.4345Z" fill="#A1ABC6"/>
<path d="M34.8333 2.19778L25.7632 15.5278C25.136 16.4356 26.3421 17.5344 27.2105 16.77L36.136 9.07778C36.3772 8.88667 36.7149 9.03 36.7149 9.36444V33.3967C36.7149 33.7311 36.2807 33.8744 36.0877 33.6356L9.07018 1.62444C8.20175 0.573333 6.94737 0 5.54825 0H4.58333C2.07456 0 0 2.05444 0 4.58667V38.4133C0 40.9456 2.07456 43 4.63158 43C6.22368 43 7.7193 42.1878 8.58772 40.8022L17.6579 27.4722C18.2851 26.5644 17.0789 25.4656 16.2105 26.23L7.28509 33.8744C7.04386 34.0656 6.70614 33.9222 6.70614 33.5878V9.60333C6.70614 9.26889 7.14035 9.12556 7.33333 9.36444L34.3509 41.3756C35.2193 42.4267 36.5219 43 37.8728 43H38.8377C41.3947 43 43.4693 40.9456 43.4693 38.4133V4.58667C43.4211 2.05444 41.3465 0 38.7895 0C37.1974 0 35.7018 0.812222 34.8333 2.19778Z" fill="#A1ABC6"/>
</g>
<defs>
<clipPath id="clip0">
<rect width="165" height="43" fill="white"/>
</clipPath>
</defs>
</svg>
