<svg width="165" height="25" viewBox="0 0 165 25" fill="none" xmlns="http://www.w3.org/2000/svg">
<g clip-path="url(#clip0)">
<path d="M12.2971 25C5.62894 24.971 0 19.6408 0 12.4855C0 5.41715 5.4846 0 12.5569 0C19.3116 0 25.0849 5.47509 24.9117 12.8911C24.7962 19.4959 19.1672 25.2028 12.2971 25ZM6.72586 18.6269C6.72586 18.6269 6.72586 18.6559 6.72586 18.6269C7.01452 18.6559 7.30318 18.6269 7.59185 18.6559C9.23723 18.8007 10.363 18.0475 11.1424 16.5991C12.3259 14.4554 13.5672 12.3407 14.8084 10.197C15.4724 9.03824 15.4146 7.90846 14.7507 6.77868C14.3466 6.08343 13.9424 5.35921 13.5094 4.66396C13.1919 4.14253 12.9033 3.41831 12.2393 3.56315C11.8063 3.65006 11.3733 4.22943 11.1135 4.66396C9.67022 7.1263 8.28464 9.58864 6.87019 12.051C5.9176 13.7312 4.96501 15.3824 4.04129 17.0915C3.55056 17.9896 3.89696 18.54 4.90728 18.6269C5.51347 18.6848 6.11966 18.6269 6.72586 18.6269ZM17.1466 18.6269C17.493 18.6559 17.8683 18.6559 18.2147 18.6559C18.5899 18.6559 18.9941 18.6559 19.3693 18.6559C20.6972 18.6559 21.0724 18.0185 20.4374 16.8598C19.6868 15.5562 18.9363 14.2236 18.1858 12.92C17.5796 11.8772 16.8579 11.8482 16.2518 12.8911C15.4146 14.2816 14.6064 15.701 13.7981 17.1495C13.3651 17.9027 13.7404 18.5979 14.5775 18.6559C15.4146 18.6559 16.2806 18.6269 17.1466 18.6269Z" fill="#A1ABC6"/>
<path d="M40.2973 2.02791C40.788 2.02791 41.2499 2.05688 41.7406 2.02791C42.4334 1.96997 42.7798 2.23069 43.0107 2.89697C43.8479 5.44622 44.7716 7.93753 45.6376 10.4868C46.8788 14.021 48.0912 17.5551 49.3613 21.0604C49.5634 21.6687 49.4479 21.8715 48.8417 21.8425C47.8891 21.8425 46.9077 21.8135 45.9551 21.8425C45.4644 21.8715 45.2046 21.6397 45.0891 21.1762C44.8293 20.2492 44.4829 19.3512 44.2231 18.4242C44.0788 17.9317 43.8767 17.729 43.3571 17.7579C41.2788 17.7869 39.2292 17.7869 37.1509 17.7869C36.7179 17.7869 36.5158 17.9897 36.3715 18.3952C36.0828 19.3512 35.7364 20.2782 35.4478 21.2052C35.3034 21.6687 35.0725 21.8715 34.5818 21.8715C33.658 21.8425 32.7632 21.8715 31.8395 21.8715C31.0889 21.8715 31.0312 21.7266 31.291 21.0604C32.59 17.4393 33.8601 13.7892 35.1591 10.1681C36.0539 7.64784 36.9199 5.12756 37.8437 2.60729C37.9303 2.37554 38.3344 2.14379 38.6519 2.08585C39.1715 1.96997 39.72 2.02791 40.2973 2.02791ZM40.3262 6.576C40.153 6.77878 40.0952 6.80775 40.0664 6.86569C39.3447 9.15422 38.5942 11.4427 37.8725 13.7313C37.7282 14.1948 37.9014 14.3686 38.3344 14.3686C39.5179 14.3686 40.6726 14.3686 41.8561 14.3686C42.6643 14.3686 42.7798 14.1948 42.5489 13.4126C41.9138 11.3558 41.2788 9.32803 40.6437 7.27125C40.586 7.06847 40.4705 6.89466 40.3262 6.576Z" fill="#A1ABC6"/>
<path d="M139.395 8.83545C140.781 7.32908 142.34 6.7497 144.216 6.86558C146.785 7.03939 148.604 8.83545 148.633 11.4137C148.69 14.6582 148.633 17.8737 148.661 21.1182C148.661 21.6396 148.459 21.8424 147.94 21.8424C147.247 21.8134 146.554 21.8134 145.861 21.8424C145.198 21.8714 144.967 21.6396 144.967 20.9733C144.995 18.5979 144.967 16.1935 144.967 13.8181C144.967 13.5574 144.967 13.2966 144.967 13.0359C144.938 11.066 144.216 10.139 142.571 10.0811C140.781 10.0232 139.424 11.1819 139.367 12.978C139.309 14.4844 139.338 16.0197 139.338 17.5261C139.338 18.6848 139.309 19.8436 139.338 21.0023C139.367 21.6396 139.107 21.8714 138.472 21.8424C137.808 21.8134 137.115 21.8134 136.451 21.8424C135.816 21.8714 135.556 21.6396 135.556 20.9733C135.585 18.3082 135.585 15.6721 135.585 13.0069C135.585 9.64658 135.585 6.31517 135.585 2.9548C135.585 2.05677 135.614 2.0278 136.509 2.0278C137.173 2.0278 137.865 2.05677 138.529 2.0278C139.136 1.99884 139.338 2.25955 139.309 2.83893C139.28 4.60602 139.28 6.37311 139.309 8.11123C139.338 8.34298 139.367 8.6037 139.395 8.83545Z" fill="#A1ABC6"/>
<path d="M73.7535 20.0754C73.4071 20.3651 73.2051 20.5679 72.9742 20.7417C71.3288 22.0743 69.4525 22.5088 67.4318 21.8425C65.2957 21.1473 64.3143 19.2353 64.7761 16.9468C65.1225 15.1218 66.2483 13.963 68.0092 13.5285C69.3947 13.1809 70.838 13.007 72.2814 12.7753C73.2628 12.6015 73.7247 12.2539 73.7535 11.5876C73.7824 10.7765 73.2051 10.1102 72.2814 9.9943C71.6174 9.9074 70.9246 9.93637 70.2896 9.9943C69.5968 10.0812 69.1061 10.5737 68.9329 11.24C68.7885 11.7904 68.471 11.9062 67.9803 11.8773C67.2875 11.8483 66.5947 11.8483 65.9019 11.8773C65.3823 11.8773 65.2091 11.7324 65.2957 11.1531C65.6998 8.71968 67.172 7.41609 69.4813 7.01052C71.2999 6.69187 73.1185 6.72084 74.8793 7.44506C76.5824 8.14031 77.3907 9.32802 77.3907 11.182C77.3907 13.7023 77.3907 16.2515 77.3907 18.7718C77.3907 19.6409 77.3907 20.5099 78.0546 21.2052C78.3144 21.4949 78.1701 21.7846 77.7948 21.7846C76.7556 21.8135 75.7164 21.8425 74.7061 21.7846C74.5041 21.7846 74.2154 21.4369 74.0999 21.2052C73.9267 20.9445 73.8979 20.5969 73.7535 20.0754ZM73.6381 14.861C72.4257 15.1218 71.2422 15.3535 70.0875 15.6432C68.8751 15.9329 68.2689 16.8599 68.471 18.0476C68.6442 18.9746 69.3947 19.4381 70.6071 19.3802C72.9742 19.2643 74.2443 17.3524 73.6381 14.861Z" fill="#A1ABC6"/>
<path d="M96.6447 20.1041C96.356 20.3359 96.1828 20.4807 96.0096 20.6256C94.3931 21.9581 92.6034 22.4216 90.5539 21.9002C88.0136 21.2629 86.8301 18.3081 88.0425 15.7588C88.7064 14.3973 89.8322 13.7021 91.2178 13.4124C92.4879 13.1517 93.7869 12.9778 95.057 12.7751C96.0962 12.6302 96.6158 12.2247 96.6158 11.4715C96.6158 10.6314 96.0096 10.023 95.0281 9.90716C94.5374 9.84922 94.0178 9.84922 93.5271 9.87819C92.6322 9.93613 92.026 10.3996 91.7951 11.2687C91.6796 11.7032 91.4198 11.8481 91.0157 11.8191C90.2363 11.8191 89.4858 11.8191 88.7064 11.8191C88.1868 11.8191 88.0713 11.5873 88.1579 11.0949C88.5621 8.86429 89.8611 7.47379 92.0838 7.03926C94.2488 6.60473 96.3849 6.60473 98.4055 7.73451C99.5024 8.34285 100.224 9.26985 100.253 10.5734C100.311 13.1227 100.282 15.6719 100.311 18.2501C100.311 19.293 100.137 20.3938 101.003 21.2339C101.263 21.4946 101.032 21.7264 100.686 21.7554C99.6179 21.7843 98.5787 21.8133 97.5106 21.7554C97.3086 21.7554 97.0777 21.3788 96.9333 21.147C96.8179 20.8863 96.7601 20.5676 96.6447 20.1041ZM96.5869 14.8608C95.5477 15.0926 94.5951 15.2953 93.6426 15.5271C93.2096 15.643 92.7477 15.7299 92.3436 15.9327C91.6219 16.2803 91.2466 17.0045 91.3332 17.7867C91.4198 18.5688 91.8528 19.2061 92.5456 19.351C93.8735 19.6117 95.0281 19.293 95.9519 18.2791C96.8756 17.2652 96.6447 16.0485 96.5869 14.8608Z" fill="#A1ABC6"/>
<path d="M159.977 15.5561C158.62 15.5561 157.293 15.5561 155.936 15.5561C154.954 15.5561 154.926 15.643 155.128 16.599C155.618 19.0034 158.245 19.5248 159.775 18.7716C160.064 18.6268 160.381 18.4819 160.497 18.2212C160.872 17.526 161.449 17.497 162.084 17.526C162.748 17.5549 163.441 17.526 164.105 17.526C164.596 17.526 164.74 17.6998 164.538 18.1922C163.816 19.9304 162.604 21.0891 160.843 21.6974C158.736 22.4217 156.715 22.2189 154.724 21.3209C153.02 20.5677 152.068 19.1192 151.606 17.3811C151.029 15.1795 150.971 12.9779 151.837 10.8342C152.905 8.14009 155.012 6.98134 157.812 6.8365C161.623 6.66268 164.278 8.92224 164.827 12.8041C164.913 13.4414 164.913 14.1076 164.971 14.745C165.029 15.2954 164.769 15.5271 164.221 15.5271C162.806 15.5561 161.392 15.5561 159.977 15.5561ZM158.13 13.0937C158.909 13.0937 159.717 13.0937 160.497 13.0937C160.901 13.0937 161.132 12.9779 161.074 12.4854C160.843 11.037 159.66 10.0231 158.159 9.99409C156.6 9.99409 155.474 10.9211 155.214 12.3985C155.128 12.891 155.301 13.0937 155.763 13.0937C156.542 13.0937 157.321 13.0937 158.13 13.0937Z" fill="#A1ABC6"/>
<path d="M107.758 9.35694C107.874 9.09622 107.96 8.80653 108.134 8.60375C109.461 6.95254 111.655 6.4311 113.907 7.21325C115.754 7.8216 116.909 9.47281 116.909 11.6165C116.938 14.7162 116.909 17.8448 116.938 20.9444C116.938 21.5817 116.736 21.8714 116.072 21.8135C115.408 21.7555 114.715 21.7555 114.051 21.8135C113.416 21.8425 113.214 21.5817 113.214 20.9734C113.243 18.54 113.214 16.1067 113.214 13.6733C113.214 13.4126 113.214 13.1518 113.214 12.8911C113.185 10.9792 112.435 10.1391 110.76 10.0812C109.086 10.0232 107.672 11.182 107.643 12.8332C107.556 15.3245 107.614 17.8158 107.585 20.2781C107.585 21.9873 107.729 21.8425 106.026 21.8425C105.709 21.8425 105.391 21.8425 105.103 21.8425C103.861 21.8425 103.861 21.8425 103.861 20.6547C103.861 16.5122 103.861 12.3407 103.861 8.19819C103.861 7.24222 103.89 7.21325 104.814 7.21325C105.449 7.21325 106.113 7.24222 106.748 7.21325C107.21 7.18429 107.412 7.38707 107.383 7.85057C107.383 8.25613 107.383 8.69066 107.383 9.12519C107.527 9.18313 107.643 9.27003 107.758 9.35694Z" fill="#A1ABC6"/>
<path d="M131.14 12.3986C130.938 12.3986 130.764 12.3696 130.562 12.3986C129.754 12.5145 129.234 12.2827 128.946 11.4137C128.628 10.4867 127.849 10.0521 126.839 10.0521C125.713 10.0521 124.789 10.4287 124.269 11.4716C123.317 13.3256 123.403 15.2665 123.981 17.1784C124.356 18.3951 125.309 19.0035 126.521 19.0324C127.618 19.0614 128.657 18.3951 129.061 17.2364C129.292 16.5991 129.639 16.4542 130.245 16.4832C130.966 16.5122 131.688 16.4832 132.41 16.4832C132.9 16.4832 133.045 16.686 132.958 17.1784C132.496 19.6408 130.447 21.5527 127.993 22.0162C126.665 22.248 125.395 22.19 124.154 21.8134C122.018 21.2051 120.748 19.7277 120.142 17.6419C119.507 15.3244 119.622 13.0359 120.459 10.8053C121.441 8.16917 124.039 6.6628 127.098 6.86558C128.311 6.95249 129.465 7.24217 130.505 7.90845C131.919 8.77751 132.698 10.0811 132.987 11.7323C133.074 12.1958 132.9 12.4276 132.41 12.4276C132.006 12.3986 131.573 12.3986 131.14 12.3986Z" fill="#A1ABC6"/>
<path d="M56.9819 17.6998C57.2995 16.628 57.5881 15.5561 57.9057 14.4843C58.5407 12.3116 59.1758 10.139 59.782 7.96634C59.9263 7.4449 60.1861 7.18419 60.7346 7.21315C61.514 7.24212 62.2645 7.21315 63.0439 7.21315C63.881 7.21315 63.9676 7.32903 63.6501 8.14015C63.1882 9.41478 62.7263 10.6604 62.2645 11.9351C61.2253 14.8609 60.1572 17.7867 59.1181 20.7126C58.7139 21.8424 58.7139 21.8424 57.4727 21.8424C56.8376 21.8424 56.2314 21.8134 55.5964 21.8424C54.9902 21.8713 54.6726 21.6106 54.4994 21.0602C53.4603 18.0764 52.3922 15.1216 51.3241 12.1378C50.8334 10.8053 50.3427 9.47271 49.8808 8.14015C49.7942 7.9084 49.7365 7.64769 49.6499 7.30006C49.9097 7.27109 50.1118 7.21315 50.3138 7.21315C51.2087 7.21315 52.1035 7.21315 52.9695 7.18419C53.518 7.15522 53.7778 7.32903 53.9221 7.9084C54.7592 11.037 55.6252 14.1367 56.5201 17.2363C56.5778 17.4101 56.6644 17.555 56.751 17.6998C56.8087 17.6998 56.8953 17.6998 56.9819 17.6998Z" fill="#A1ABC6"/>
<path d="M84.7804 11.9641C84.7804 14.919 84.7804 17.9027 84.7804 20.8575C84.7804 21.7556 84.7227 21.8135 83.8567 21.8135C83.2216 21.8135 82.6154 21.8135 81.9804 21.8135C81.1144 21.8135 81.0566 21.7556 81.0566 20.8575C81.0566 17.5551 81.0566 14.2527 81.0566 10.9502C81.0566 8.28512 81.0855 5.59103 81.0566 2.92591C81.0566 2.23066 81.2587 1.94097 81.9804 1.99891C82.6154 2.02788 83.2794 2.05685 83.9144 1.99891C84.6361 1.94097 84.8093 2.25963 84.8093 2.92591C84.7804 5.93865 84.7804 8.9514 84.7804 11.9641Z" fill="#A1ABC6"/>
</g>
<defs>
<clipPath id="clip0">
<rect width="165" height="25" fill="white"/>
</clipPath>
</defs>
</svg>
