<svg width="165" height="43" viewBox="0 0 165 43" fill="none" xmlns="http://www.w3.org/2000/svg">
<path d="M46.5405 9.84303V0.366924H84.1496V15.8619H73.5836V9.7214H63.3802V16.9492H72.1333V25.6955H63.3802V33.5351H73.7631V26.6096H84.3291V42.8933H46.5405V33.4172H51.0086V9.84303H46.5405Z" fill="#A1ABC6"/>
<path d="M86.5669 9.84303V0.366924H124.176V15.8619H113.61V9.7214H103.407V16.9492H112.16V25.6955H103.407V33.5351H113.793V26.6096H124.359V42.8933H86.5669V33.4172H91.035V9.84303H86.5669Z" fill="#A1ABC6"/>
<path d="M148.626 18.9543C150.377 18.9543 151.039 18.8326 151.402 18.4677C151.944 17.8596 152.065 16.9492 152.065 14.336C152.065 11.7228 151.944 10.8124 151.402 10.2042C151.039 9.83935 150.377 9.71772 148.626 9.71772H143.436V18.9506H148.626V18.9543ZM162.268 25.6365C160.639 27.3394 158.101 27.9438 154.361 27.9438H143.433V33.4135H148.201V42.8933H126.589V33.4172H131.054V9.84303H126.589V0.366924H154.361C158.104 0.366924 160.639 0.975079 162.268 2.6779C164.198 4.68296 164.982 6.80965 164.982 14.1591C164.986 21.5048 164.198 23.6352 162.268 25.6365Z" fill="#A1ABC6"/>
<path d="M44.3064 9.84303V0.366924H22.9949V9.7214H26.313L19.7354 17.4357H17.0216V9.7214H20.7645V0.363239H15.7031V3.87209H12.9673V0.363239H7.97179V3.87209H5.23598V0.363239H0.178223V9.83935H4.64634V33.4135H0.178223V42.8933H20.7645V33.5351H17.0216V25.8208H19.7354L26.3167 33.5351H22.9986V42.8933H44.31V33.4172H40.9846L30.9533 21.6264L40.9846 9.84303H44.3064Z" fill="#A1ABC6"/>
</svg>
