<svg width="165" height="69" viewBox="0 0 165 69" fill="none" xmlns="http://www.w3.org/2000/svg">
<path d="M94.6552 34.4171H90.2208V51.0116H84.0333V34.4171H80.8364V29.0972H84.0333V27.0272C84.0333 21.6659 87.3677 18.9128 92.4345 18.9128C93.2191 18.9194 94.0006 19.012 94.7652 19.1888V25.3988C94.0982 25.1303 93.3869 24.9899 92.6683 24.9848C92.3436 24.959 92.0172 25.004 91.7116 25.1168C91.4059 25.2296 91.1282 25.4076 90.8976 25.6384C90.667 25.8692 90.4889 26.1474 90.3756 26.4538C90.2624 26.7603 90.2166 27.0877 90.2414 27.4136V29.0627H94.6758L94.6552 34.4171ZM103.971 51.0116H97.7146V19.382H103.971V51.0116Z" fill="#A1ABC6"/>
<path d="M117.858 27.7243C120.204 27.7202 122.499 28.4149 124.451 29.7204C126.403 31.026 127.925 32.8836 128.825 35.0581C129.725 37.2326 129.961 39.6261 129.505 41.9355C129.048 44.245 127.919 46.3665 126.26 48.0313C124.601 49.6962 122.487 50.8296 120.186 51.2879C117.885 51.7462 115.5 51.5089 113.333 50.606C111.167 49.7031 109.316 48.1752 108.015 46.2158C106.714 44.2564 106.022 41.9537 106.026 39.5992C106.007 38.0344 106.3 36.4815 106.887 35.032C107.475 33.5824 108.346 32.2656 109.449 31.159C110.551 30.0524 111.863 29.1785 113.307 28.5886C114.752 27.9987 116.299 27.7048 117.858 27.7243ZM117.858 45.4228C121.055 45.4228 123.358 42.7594 123.358 39.5992C123.393 38.8531 123.276 38.1078 123.015 37.4083C122.754 36.7088 122.354 36.0698 121.84 35.5299C121.326 34.9899 120.708 34.5603 120.023 34.2671C119.339 33.9739 118.602 33.8231 117.858 33.8239C116.36 33.8758 114.941 34.5095 113.899 35.5914C112.858 36.6734 112.276 38.119 112.276 39.6233C112.276 41.1277 112.858 42.5733 113.899 43.6553C114.941 44.7372 116.36 45.3709 117.858 45.4228Z" fill="#A1ABC6"/>
<path d="M136.221 28.1865L140.243 43.3665L144.265 31.3053L143.165 28.1934H149.353L154.653 43.3734L158.579 28.1934H165L158.242 51.0186H151.752L147.228 38.502L143 51.0117H136.469L129.752 28.1865H136.221Z" fill="#A1ABC6"/>
<path fill-rule="evenodd" clip-rule="evenodd" d="M68.75 34.5C68.75 53.5538 53.3598 69 34.375 69C15.3902 69 0 53.5538 0 34.5C0 15.4462 15.3902 0 34.375 0C53.3598 0 68.75 15.4462 68.75 34.5ZM39.7512 29.1042H49.4587V38.847H39.7513V42.4971C39.7513 45.146 38.9686 47.7354 37.5023 49.9378C36.036 52.1403 33.9519 53.8569 31.5136 54.8706C29.0752 55.8843 26.3921 56.1495 23.8035 55.6327C21.215 55.1159 18.8372 53.8404 16.971 51.9674C15.1047 50.0943 13.8338 47.7079 13.3189 45.11C12.804 42.512 13.0683 39.8191 14.0783 37.3719C15.0883 34.9247 16.7987 32.833 18.9931 31.3614C21.1876 29.8897 23.7676 29.1042 26.4069 29.1042H30.0506V38.8401H26.4069C25.6862 38.8401 24.9817 39.0546 24.3825 39.4565C23.7833 39.8583 23.3163 40.4294 23.0405 41.0977C22.7647 41.7659 22.6925 42.5012 22.8331 43.2106C22.9737 43.92 23.3208 44.5716 23.8304 45.083C24.3399 45.5945 24.9892 45.9428 25.696 46.0839C26.4028 46.225 27.1355 46.1526 27.8013 45.8758C28.4671 45.599 29.0362 45.1303 29.4365 44.5289C29.8369 43.9275 30.0506 43.2204 30.0506 42.4971V38.8401H39.7512V29.1042ZM54.3125 24.2328H43.395C42.4298 24.2328 41.504 24.6171 40.8209 25.3015C40.1377 25.9858 39.753 26.9142 39.7512 27.8829V29.1042H30.0506V27.8829C30.0542 24.332 31.4613 20.9276 33.9631 18.4167C36.4649 15.9058 39.8569 14.4936 43.395 14.49H54.3125V24.2328Z" fill="#A1ABC6"/>
<path d="M30.0508 38.8401H39.7514V29.1042H30.0508V38.8401Z" fill="#A1ABC6"/>
</svg>
