<svg width="165" height="56" viewBox="0 0 165 56" fill="none" xmlns="http://www.w3.org/2000/svg">
<path d="M33.1416 44.7532V55.4252L21.6616 44.7532V34.1501L33.1416 44.7532Z" fill="#A1ABC6"/>
<path d="M49.0634 0.137695H33.1416V10.8096H44.28V44.7531H33.1416V55.4251H49.0634C52.2067 55.4251 54.8033 52.8087 54.8033 49.6415V5.99004C54.8033 2.75404 52.275 0.137695 49.0634 0.137695Z" fill="#A1ABC6"/>
<path d="M5.74 55.4446H21.6617V44.7728H10.5233V10.8291H21.6617V0.157227H5.74C2.59667 0.157227 0 2.77357 0 5.94071V49.5923C0 52.8284 2.59667 55.4446 5.74 55.4446Z" fill="#A1ABC6"/>
<path d="M21.6616 10.8096V0.137695L33.1416 10.8096V21.4126L21.6616 10.8096Z" fill="#A1ABC6"/>
<path d="M68.7432 5.99072H72.9114L81.3165 18.6593V5.99072H85.6214V25.4755H81.6581L73.0481 12.6004V25.4755H68.7432V5.99072Z" fill="#A1ABC6"/>
<path d="M94.9149 5.98999H99.7664L106.873 25.4749H102.09L100.587 20.9996H93.7531L92.2499 25.4749H87.6714L94.9149 5.98999ZM99.5615 17.6258L97.2381 10.2587L94.8465 17.6258H99.5615Z" fill="#A1ABC6"/>
<path d="M116.85 25.9568C115.415 25.9568 114.117 25.6814 112.887 25.1994C111.657 24.7175 110.564 23.9601 109.675 23.0651C108.787 22.17 108.103 21.0684 107.557 19.829C107.01 18.5897 106.805 17.2127 106.805 15.7669C106.805 14.321 107.078 12.944 107.557 11.7047C108.035 10.4653 108.787 9.36371 109.675 8.46864C110.564 7.57358 111.657 6.81622 112.887 6.33427C114.117 5.78346 115.415 5.5769 116.85 5.5769C118.285 5.5769 119.583 5.8523 120.813 6.33427C122.044 6.88506 123.137 7.57358 124.025 8.46864C124.913 9.36371 125.597 10.4653 126.144 11.7047C126.622 12.944 126.895 14.321 126.895 15.7669C126.895 17.2127 126.622 18.5897 126.144 19.829C125.597 21.0684 124.913 22.17 124.025 23.0651C123.137 23.9601 122.044 24.7175 120.813 25.1994C119.583 25.7502 118.217 25.9568 116.85 25.9568ZM116.85 21.8258C117.67 21.8258 118.49 21.6881 119.174 21.3438C119.857 20.9996 120.403 20.5864 120.882 19.9668C121.36 19.416 121.702 18.7274 121.975 18.039C122.248 17.2816 122.385 16.5242 122.385 15.698C122.385 14.8718 122.248 14.0456 121.975 13.3571C121.702 12.5997 121.36 11.98 120.882 11.4292C120.403 10.8784 119.857 10.4653 119.174 10.1211C118.49 9.77682 117.738 9.63911 116.85 9.63911C116.03 9.63911 115.21 9.77682 114.527 10.1211C113.844 10.4653 113.229 10.8784 112.818 11.4292C112.34 11.98 111.999 12.5997 111.725 13.3571C111.452 14.1144 111.315 14.8718 111.315 15.698C111.315 16.5242 111.452 17.3504 111.725 18.039C111.999 18.7964 112.34 19.416 112.818 19.9668C113.297 20.5175 113.844 20.9996 114.527 21.3438C115.21 21.6881 115.962 21.8258 116.85 21.8258Z" fill="#A1ABC6"/>
<path d="M130.517 19.6913C130.79 19.9668 131.063 20.2422 131.405 20.5175C131.747 20.793 132.088 21.0684 132.567 21.2749C132.977 21.4816 133.455 21.6881 133.933 21.8258C134.412 21.9635 134.958 22.0323 135.505 22.0323C135.847 22.0323 136.188 21.9635 136.462 21.8946C136.803 21.8258 137.077 21.6881 137.35 21.4816C137.623 21.2749 137.828 21.0684 138.033 20.793C138.17 20.5175 138.307 20.2422 138.307 19.898C138.307 19.2094 137.965 18.5897 137.282 18.2455C136.598 17.8323 135.505 17.4193 134.002 17.075C133.25 16.8685 132.567 16.6619 131.952 16.3177C131.337 15.9734 130.79 15.5603 130.312 15.1472C129.833 14.6652 129.492 14.1144 129.287 13.5636C129.013 12.944 128.877 12.2555 128.877 11.5669C128.877 10.7407 129.013 9.98338 129.287 9.22602C129.56 8.5375 130.038 7.849 130.585 7.29818C131.2 6.74737 131.883 6.33427 132.772 5.99001C133.66 5.64576 134.685 5.50806 135.915 5.50806C136.872 5.50806 137.76 5.5769 138.512 5.78345C139.263 5.99001 139.878 6.26542 140.425 6.54082C140.972 6.81623 141.382 7.09163 141.723 7.43589C142.065 7.71129 142.338 7.98669 142.475 8.12439L139.947 10.9473C139.742 10.7407 139.468 10.603 139.195 10.3965C138.922 10.1899 138.58 9.98337 138.238 9.84568C137.897 9.63912 137.487 9.50142 137.077 9.43257C136.667 9.29486 136.188 9.22602 135.778 9.22602C135.437 9.22602 135.163 9.29486 134.89 9.36371C134.617 9.43257 134.343 9.57026 134.07 9.77681C133.797 9.91452 133.66 10.1211 133.523 10.3276C133.387 10.5342 133.318 10.8096 133.318 11.0161C133.318 11.7046 133.66 12.1866 134.343 12.5997C135.027 13.0128 135.983 13.3571 137.213 13.6325C137.897 13.839 138.648 14.0456 139.332 14.321C140.015 14.5964 140.63 15.0095 141.177 15.4915C141.723 15.9734 142.133 16.5931 142.475 17.2816C142.817 17.97 142.953 18.8652 142.953 19.898C142.953 20.793 142.748 21.5504 142.407 22.3078C141.997 23.0652 141.518 23.6847 140.835 24.2356C140.152 24.7863 139.4 25.1995 138.512 25.4749C137.623 25.7502 136.667 25.9569 135.573 25.9569C134.617 25.9569 133.728 25.8879 132.908 25.6814C132.088 25.4749 131.405 25.2682 130.79 24.924C130.175 24.6487 129.56 24.3043 129.082 23.8913C128.535 23.4782 128.125 23.1339 127.783 22.7208L130.517 19.6913Z" fill="#A1ABC6"/>
<path d="M68.4697 30.7075H80.6332V33.255H71.2714V39.2451H78.3781V41.7236H71.2714V50.2611H68.4697V30.7075Z" fill="#A1ABC6"/>
<path d="M82.4785 31.2583H85.4169V34.2189H82.4785V31.2583ZM82.6152 36.6287H85.212V50.1924H82.6152V36.6287Z" fill="#A1ABC6"/>
<path d="M88.9702 50.1926V38.0059C88.9702 37.524 88.9702 37.1108 88.9702 36.6289H91.4985L91.567 38.6944C91.7719 38.4879 91.9769 38.2124 92.182 37.937C92.4552 37.6617 92.7286 37.3863 93.1386 37.1796C93.4803 36.9731 93.9586 36.7666 94.4369 36.6289C94.9152 36.4911 95.4618 36.4224 96.0768 36.4224C97.8536 36.4224 99.1519 36.9731 99.9719 38.0059C100.792 39.0386 101.27 40.4157 101.27 42.2058V50.3301H98.6736V42.4124C98.6736 41.1731 98.4002 40.2092 97.8536 39.5895C97.3069 38.9698 96.5552 38.6944 95.5303 38.6944C94.7786 38.6944 94.1635 38.8321 93.617 39.1763C93.1386 39.5206 92.7286 39.8648 92.3869 40.4157C92.1136 40.8976 91.8402 41.4484 91.7037 42.137C91.567 42.7567 91.4985 43.4451 91.4985 44.0648V50.3991H88.9702V50.1926Z" fill="#A1ABC6"/>
<path d="M113.16 48.5399C112.682 49.2285 111.998 49.7105 111.178 50.0547C110.359 50.3989 109.538 50.5366 108.65 50.5366C108.103 50.5366 107.557 50.4677 107.01 50.3301C106.463 50.1924 105.985 49.917 105.507 49.5727C105.029 49.2285 104.687 48.8153 104.413 48.2644C104.14 47.7137 104.003 47.094 104.003 46.2679C104.003 44.822 104.482 43.6514 105.507 42.7565C106.532 41.8614 107.967 41.4482 109.88 41.4482C110.222 41.4482 110.495 41.4482 110.837 41.4482C111.178 41.4482 111.52 41.5171 111.793 41.5171C112.135 41.5171 112.34 41.5859 112.613 41.5859C112.818 41.5859 113.024 41.6549 113.092 41.6549V41.1729C113.092 40.1401 112.818 39.4516 112.203 38.9697C111.588 38.5565 110.768 38.281 109.744 38.281C108.718 38.281 107.898 38.4188 107.283 38.6942C106.668 38.9697 106.19 39.2451 105.78 39.5893L104.55 37.7991C104.755 37.5926 105.029 37.3861 105.37 37.2484C105.712 37.0419 106.053 36.9041 106.532 36.6975C107.01 36.5599 107.488 36.4222 108.035 36.2845C108.582 36.1467 109.265 36.1467 109.948 36.1467C111.657 36.1467 113.024 36.5599 114.048 37.3861C115.074 38.2123 115.552 39.4516 115.552 40.9662V48.8841C115.552 49.3661 115.552 49.7792 115.552 50.0547H113.092L113.16 48.5399ZM113.16 43.7892C113.092 43.7892 112.955 43.7204 112.682 43.7204C112.477 43.7204 112.203 43.6514 111.93 43.6514C111.657 43.6514 111.315 43.5827 110.974 43.5827C110.632 43.5827 110.359 43.5827 110.017 43.5827C109.265 43.5827 108.718 43.6514 108.24 43.8581C107.762 44.0646 107.42 44.2711 107.147 44.5466C106.874 44.822 106.737 45.0973 106.6 45.4417C106.532 45.7859 106.463 46.0614 106.463 46.3366C106.463 47.094 106.737 47.6449 107.215 47.9892C107.694 48.3334 108.445 48.5399 109.333 48.5399C109.812 48.5399 110.29 48.4711 110.768 48.2644C111.247 48.0579 111.657 47.8514 111.998 47.576C112.34 47.3005 112.613 46.9563 112.818 46.5433C113.024 46.1301 113.16 45.7859 113.16 45.3727V43.7892Z" fill="#A1ABC6"/>
<path d="M119.242 50.1926V38.0059C119.242 37.524 119.242 37.1108 119.242 36.6289H121.77L121.838 38.6944C122.043 38.4879 122.248 38.2124 122.453 37.937C122.727 37.6617 123 37.3863 123.41 37.1796C123.752 36.9731 124.23 36.7666 124.708 36.6289C125.187 36.4911 125.733 36.4224 126.348 36.4224C128.125 36.4224 129.423 36.9731 130.243 38.0059C131.063 39.0386 131.542 40.4157 131.542 42.2058V50.3301H128.945V42.4124C128.945 41.1731 128.672 40.2092 128.125 39.5895C127.578 38.9698 126.827 38.6944 125.802 38.6944C125.05 38.6944 124.435 38.8321 123.888 39.1763C123.41 39.5206 123 39.8648 122.658 40.4157C122.385 40.8976 122.112 41.4484 121.975 42.137C121.838 42.7567 121.77 43.4451 121.77 44.0648V50.3991H119.242V50.1926Z" fill="#A1ABC6"/>
<path d="M146.712 48.3334C146.097 49.0218 145.345 49.5727 144.525 49.9857C143.637 50.3989 142.612 50.6054 141.45 50.6054C140.357 50.6054 139.4 50.3989 138.512 50.0547C137.623 49.7105 136.872 49.2283 136.257 48.5399C135.642 47.9202 135.163 47.1628 134.822 46.2679C134.48 45.3727 134.343 44.4088 134.343 43.3762C134.343 42.4121 134.548 41.4482 134.89 40.5532C135.232 39.6581 135.71 38.9007 136.325 38.281C136.94 37.6615 137.692 37.1106 138.58 36.6975C139.468 36.2845 140.425 36.1467 141.45 36.1467C142.612 36.1467 143.568 36.3532 144.457 36.7664C145.345 37.1794 146.097 37.7303 146.712 38.4188L145.003 40.0713C144.593 39.5893 144.115 39.1762 143.5 38.9007C142.953 38.6254 142.202 38.4877 141.45 38.4877C140.767 38.4877 140.152 38.6254 139.605 38.9007C139.058 39.1762 138.58 39.5204 138.238 40.0023C137.828 40.4843 137.555 40.9662 137.35 41.5859C137.145 42.2056 137.077 42.8253 137.077 43.4449C137.077 44.0646 137.145 44.6843 137.35 45.304C137.555 45.9236 137.828 46.4056 138.238 46.8875C138.648 47.3695 139.058 47.7137 139.605 47.9892C140.152 48.2644 140.767 48.4022 141.45 48.4022C142.27 48.4022 142.953 48.2644 143.568 47.9202C144.183 47.6448 144.73 47.2318 145.14 46.6809L146.712 48.3334Z" fill="#A1ABC6"/>
<path d="M161.609 48.1956C161.472 48.4021 161.198 48.6088 160.925 48.884C160.583 49.1595 160.242 49.4349 159.695 49.6414C159.217 49.9169 158.602 50.1234 157.987 50.3299C157.303 50.5366 156.552 50.6053 155.732 50.6053C154.707 50.6053 153.75 50.3988 152.862 50.0546C151.973 49.7104 151.222 49.2283 150.607 48.5398C149.992 47.9201 149.514 47.094 149.172 46.1988C148.83 45.3039 148.693 44.34 148.693 43.2384C148.693 42.2745 148.83 41.3106 149.172 40.4154C149.514 39.5203 149.992 38.8319 150.538 38.1434C151.153 37.5237 151.837 37.0418 152.657 36.6286C153.477 36.2844 154.365 36.0779 155.39 36.0779C156.552 36.0779 157.577 36.2844 158.397 36.7663C159.217 37.2483 159.9 37.799 160.447 38.5564C160.994 39.3138 161.404 40.14 161.609 41.1039C161.882 42.0678 162.018 43.0317 162.018 44.0645H151.358C151.358 44.6842 151.495 45.2349 151.768 45.7169C152.042 46.1988 152.315 46.6808 152.725 47.0252C153.135 47.3694 153.613 47.7136 154.092 47.9201C154.638 48.1268 155.185 48.2644 155.732 48.2644C156.894 48.2644 157.782 48.0579 158.533 47.7136C159.285 47.3005 159.832 46.9562 160.105 46.5432L161.609 48.1956ZM159.285 42.2055C159.217 41.1728 158.807 40.2777 158.192 39.5203C157.509 38.7629 156.62 38.4187 155.39 38.4187C154.775 38.4187 154.228 38.5564 153.75 38.7629C153.272 38.9696 152.862 39.245 152.52 39.5893C152.179 39.9335 151.905 40.3465 151.7 40.8286C151.495 41.3106 151.427 41.7925 151.358 42.2745H159.285V42.2055Z" fill="#A1ABC6"/>
</svg>
