<svg width="165" height="43" viewBox="0 0 165 43" fill="none" xmlns="http://www.w3.org/2000/svg">
<g clip-path="url(#clip0)">
<path d="M29.8645 42.9999C29.6491 42.9721 29.4431 42.9258 29.2277 42.9258C22.4569 42.9258 15.6767 42.9258 8.90587 42.9258C8.74667 42.9258 8.59683 42.9258 8.43762 42.9258C7.37939 42.898 6.86432 41.9989 7.39812 41.0812C8.28779 39.5425 9.18682 38.0038 10.0858 36.4744C10.6758 35.4733 11.2658 34.4722 11.8371 33.4712C12.118 32.9706 12.5301 32.7389 13.092 32.7481C13.7662 32.7574 14.4312 32.7852 15.1054 32.7852C17.9149 32.7852 20.7244 32.7296 23.5338 32.776C24.6763 32.7945 25.2476 31.7471 24.6857 30.8202C22.7565 27.5945 20.8929 24.3317 19.0012 21.0782C18.4019 20.0586 17.3249 20.0771 16.7162 21.1153C14.9743 24.1092 13.2231 27.1032 11.4999 30.1064C11.1722 30.6811 10.7414 30.9314 10.0671 30.9314C7.18273 30.9128 4.28898 30.9221 1.40459 30.9221C0.149695 30.9221 -0.365374 30.0415 0.262074 28.9663C2.52838 25.1103 4.79468 21.2636 7.05162 17.3983C8.85905 14.3116 10.6477 11.225 12.4458 8.13833C13.607 6.14544 14.7964 4.17109 15.9576 2.17821C16.2386 1.69621 16.5008 1.20494 16.7817 0.722939C17.353 -0.250331 18.3831 -0.250331 18.9544 0.732208C21.7639 5.55221 24.5827 10.3815 27.3922 15.2108C29.4899 18.8072 31.5783 22.4037 33.676 26.0001C35.0526 28.3638 36.4386 30.7275 37.8247 33.0911C39.3324 35.668 40.8401 38.2448 42.3479 40.8217C42.9941 41.9247 42.8161 42.4809 41.6643 42.9999C37.731 42.9999 33.7977 42.9999 29.8645 42.9999Z" fill="#A1ABC6"/>
<path d="M165 28.54C164.953 28.7346 164.906 28.9293 164.859 29.124C164.41 31.0334 163.108 32.155 161.282 32.5907C157.939 33.3878 154.82 32.7946 152.029 30.7368C151.908 30.6441 151.805 30.5329 151.664 30.4031C152.451 29.4762 153.219 28.5678 154.005 27.6316C154.146 27.7243 154.268 27.817 154.389 27.9004C155.925 28.9664 157.601 29.5874 159.521 29.3835C159.737 29.365 159.952 29.3001 160.149 29.2074C160.86 28.8644 160.926 28.0116 160.233 27.6316C159.746 27.3721 159.193 27.2145 158.66 27.0569C157.545 26.7232 156.393 26.4822 155.298 26.0836C153.593 25.4626 152.441 24.3318 152.376 22.4038C152.31 20.3182 153.228 18.8166 155.129 17.9174C156.421 17.3057 157.807 17.2408 159.203 17.3242C160.963 17.4354 162.602 17.9174 164.063 18.9278C164.222 19.039 164.382 19.1688 164.56 19.2986C163.848 20.2996 163.155 21.2636 162.434 22.2647C161.45 21.5973 160.42 21.0783 159.268 20.9021C158.706 20.8187 158.116 20.8094 157.555 20.8558C157.03 20.9021 156.702 21.2544 156.646 21.6622C156.59 22.1164 156.796 22.4964 157.358 22.6726C158.379 22.997 159.437 23.2009 160.458 23.5439C161.366 23.8405 162.284 24.1834 163.127 24.6284C164.138 25.166 164.737 26.0558 164.906 27.2052C164.915 27.2794 164.962 27.3535 164.981 27.4184C165 27.7985 165 28.1692 165 28.54Z" fill="#A1ABC6"/>
<path d="M96.4678 32.6557C96.4678 27.5947 96.4678 22.6078 96.4678 17.6024C96.5802 17.5932 96.6644 17.5653 96.7581 17.5653C98.9869 17.5746 101.225 17.5283 103.454 17.621C105.467 17.7044 107.312 18.3532 108.801 19.7622C110.478 21.3472 111.068 23.3493 110.927 25.574C110.665 29.7359 107.668 32.0902 104.119 32.4888C102.171 32.7113 100.195 32.6093 98.2284 32.6464C97.6571 32.6649 97.0859 32.6557 96.4678 32.6557ZM100.71 21.2082C100.71 23.8406 100.71 26.3526 100.71 29.0036C101.768 28.9294 102.817 28.9665 103.819 28.744C105.627 28.3547 106.582 27.0107 106.582 25.129C106.582 23.2196 105.627 21.8663 103.801 21.477C102.836 21.2638 101.806 21.2916 100.71 21.2082Z" fill="#A1ABC6"/>
<path d="M74.1698 17.593C75.6307 17.593 77.0354 17.593 78.4776 17.593C78.4776 17.8062 78.4776 17.9823 78.4776 18.1677C78.4776 20.7816 78.4589 23.3863 78.4964 26.0002C78.5057 26.5842 78.6368 27.2052 78.8616 27.7428C79.283 28.7717 80.2757 29.2352 81.5587 29.1425C82.7386 29.0591 83.5815 28.4566 83.8905 27.3906C84.0216 26.9179 84.0872 26.4173 84.0872 25.9353C84.1059 23.3214 84.0966 20.7167 84.0966 18.1028C84.0966 17.936 84.0966 17.7691 84.0966 17.5837C85.5481 17.5837 86.9435 17.5837 88.395 17.5837C88.395 17.7599 88.395 17.9082 88.395 18.0565C88.395 20.7631 88.4138 23.4604 88.3763 26.1671C88.3669 26.9457 88.2546 27.7428 88.0579 28.4936C87.4585 30.7646 85.9321 32.1457 83.6377 32.6741C82.0363 33.0448 80.4162 33.0448 78.8148 32.6648C76.1739 32.0437 74.5163 30.1157 74.2541 27.3906C74.1979 26.7603 74.1604 26.13 74.1604 25.4997C74.151 23.0433 74.1604 20.587 74.1604 18.1306C74.1698 17.9638 74.1698 17.7969 74.1698 17.593Z" fill="#A1ABC6"/>
<path d="M130.809 17.5652C132.204 17.5652 133.525 17.5559 134.845 17.5837C134.929 17.5837 135.088 17.8247 135.088 17.9545C135.107 19.3727 135.098 20.7909 135.098 22.2184C135.098 23.4697 135.088 24.7211 135.107 25.9724C135.117 26.371 135.145 26.7788 135.238 27.1681C135.482 28.1599 136.081 28.8644 137.121 29.0776C138.188 29.2908 139.218 29.1981 140.005 28.3175C140.586 27.6687 140.707 26.853 140.707 26.0188C140.717 23.4048 140.707 20.8002 140.707 18.1862C140.707 18.0009 140.707 17.8247 140.707 17.6023C142.14 17.6023 143.536 17.6023 144.95 17.6023C144.968 17.6764 144.987 17.732 144.987 17.7877C144.978 20.828 145.053 23.8683 144.94 26.9086C144.819 30.4031 142.459 32.6741 138.928 32.8965C137.373 32.9892 135.838 32.9429 134.377 32.3311C132.316 31.4691 131.277 29.8377 130.921 27.7243C130.837 27.2052 130.809 26.6769 130.809 26.1578C130.799 23.4882 130.799 20.8187 130.799 18.1492C130.809 17.9731 130.809 17.8062 130.809 17.5652Z" fill="#A1ABC6"/>
<path d="M68.3917 32.6554C66.9121 32.6554 65.5073 32.6646 64.112 32.6461C63.9902 32.6461 63.831 32.4792 63.7748 32.3587C63.4752 31.6914 63.2036 31.024 62.9413 30.3473C62.8383 30.0878 62.7072 29.9673 62.3982 29.9673C60.6938 29.9858 58.9987 29.9858 57.2943 29.9673C56.9853 29.9673 56.8542 30.0785 56.7512 30.3473C56.4889 31.024 56.2267 31.7006 55.9364 32.368C55.8802 32.4885 55.7117 32.6461 55.5899 32.6554C54.2507 32.6739 52.9022 32.6646 51.563 32.6554C51.5255 32.6554 51.4787 32.6276 51.4038 32.5905C51.6379 32.0436 51.8533 31.506 52.0874 30.9684C53.9417 26.6211 55.8053 22.2831 57.6502 17.9265C57.8094 17.5558 57.9967 17.426 58.3994 17.4353C59.4576 17.4631 60.5252 17.4538 61.5834 17.4445C61.8363 17.4445 61.9768 17.5094 62.0798 17.7504C64.1494 22.6075 66.2191 27.4646 68.2887 32.3309C68.3168 32.3958 68.3355 32.4792 68.3917 32.6554ZM59.8603 22.4407C59.2703 23.9237 58.7272 25.2863 58.1746 26.6674C59.3265 26.6674 60.4128 26.6674 61.5366 26.6674C60.9841 25.2678 60.4409 23.9052 59.8603 22.4407Z" fill="#A1ABC6"/>
<path d="M122.661 32.6277C121.266 32.6277 119.889 32.6277 118.484 32.6277C118.484 27.6038 118.484 22.6169 118.484 17.593C119.88 17.593 121.247 17.593 122.661 17.593C122.661 22.5799 122.661 27.576 122.661 32.6277Z" fill="#A1ABC6"/>
</g>
<defs>
<clipPath id="clip0">
<rect width="165" height="43" fill="white"/>
</clipPath>
</defs>
</svg>
