<svg width="164" height="37" viewBox="0 0 164 37" fill="none" xmlns="http://www.w3.org/2000/svg">
<g clip-path="url(#clip0)">
<path d="M6.8216 20.5116C5.5781 20.1883 4.44119 19.7572 3.41086 19.0029C2.5937 18.3563 1.81207 17.6378 1.27914 16.7398C0.888329 16.0572 0.533043 15.3747 0.3554 14.6203C0.248814 14.1174 0.1067 13.6504 0.0356429 13.1475C-0.106472 12.0339 0.142229 10.9563 0.390929 9.87859C0.568572 9.19606 0.923858 8.54946 1.31467 7.93878C2.20289 6.60966 3.3398 5.60383 4.79647 4.95723C5.68469 4.56208 6.60843 4.23878 7.63876 4.2747C8.0651 4.31063 8.52698 4.2747 8.95332 4.2747C9.98365 4.2747 11.8667 5.02907 12.7193 5.7116C13.1102 5.99898 13.4655 6.3582 13.8207 6.6815C14.4247 7.18441 14.8866 7.86694 15.2064 8.51354C15.5972 9.30383 16.059 10.0941 15.9525 11.2436C16.1301 10.9922 16.2722 10.8844 16.3077 10.7766C16.4499 9.80674 16.8407 8.90868 17.3736 8.08247C18.2618 6.6815 19.3987 5.60383 20.8909 4.95723C21.7791 4.56208 22.7029 4.23878 23.7332 4.2747C23.9819 4.2747 24.2661 4.2747 24.5148 4.2747C26.0781 4.23878 27.4637 4.77762 28.7427 5.63975C29.7731 6.3582 30.6258 7.25626 31.2297 8.44169C31.6561 9.26791 31.9048 10.13 32.118 11.0281C32.2956 11.7825 32.3311 12.5009 32.2245 13.2194C32.0824 14.3689 31.7627 15.4825 31.1232 16.5242C30.5902 17.4223 29.8797 18.1407 29.1336 18.8232C28.3519 19.5417 27.3571 19.9368 26.3623 20.2601C26.0426 20.3679 25.7228 20.4398 25.2965 20.5116C25.8294 20.6912 26.3268 20.799 26.7887 20.9786C27.7835 21.3378 28.7427 21.7689 29.5244 22.5592C30.1284 23.1698 30.7323 23.7805 31.1942 24.5708C31.6561 25.3252 31.8693 26.1514 32.118 26.9776C32.2245 27.3368 32.2601 27.7679 32.2956 28.1631C32.3311 28.5582 32.3311 28.9533 32.2956 29.3126C32.2601 30.1388 32.0824 30.9291 31.7271 31.6834C31.4784 32.2582 31.1587 32.833 30.8745 33.3718C30.8389 33.4436 30.8034 33.5155 30.7323 33.5873C30.0573 34.2339 29.4888 35.0242 28.6717 35.4912C27.8545 35.9582 27.0374 36.3893 26.1136 36.6407C25.5452 36.7844 24.9412 36.7844 24.3727 36.9281C23.8043 37.0359 23.1292 36.8203 22.5252 36.7126C21.7791 36.5689 21.0686 36.2815 20.358 35.8864C19.8251 35.5631 19.2566 35.2757 18.8658 34.8087C18.3684 34.2698 17.7999 33.8029 17.4091 33.1922C16.8051 32.2582 16.4499 31.2524 16.2367 30.1388C16.1301 30.1747 15.988 30.2106 15.9525 30.2825C15.4906 32.1145 15.5972 31.9708 14.6734 33.3359C13.9984 34.3417 13.1457 35.2038 12.0443 35.8145C11.6535 36.03 11.2982 36.2815 10.8719 36.4252C10.4455 36.5689 9.98365 36.5689 9.59283 36.8203C9.52178 36.8563 9.34413 36.8203 9.23755 36.8203C8.91779 36.8563 8.59803 36.7126 8.3138 36.9999C8.24275 37.0718 8.0651 37.0359 7.95852 36.9999C7.0703 36.8203 6.11103 36.8203 5.25835 36.4611C4.51225 36.1378 3.76614 35.8145 3.16216 35.3116C2.345 34.4854 1.42126 33.6232 0.923858 32.4378C0.639629 31.7194 0.319872 31.0368 0.177757 30.2465C0.0711714 29.6718 0.0356429 29.097 0.0356429 28.5223C0.0711715 27.5165 0.319872 26.5825 0.639629 25.6485C1.1015 24.3194 2.02524 23.3495 2.98452 22.4155C3.62403 21.7689 4.47672 21.4815 5.25835 21.0504C5.64916 20.8349 6.14656 20.799 6.60843 20.6553C6.67949 20.6194 6.75055 20.5834 6.8216 20.5116ZM16.0946 13.5786C15.8103 15.4106 15.0287 16.8834 13.7852 18.1766C12.5062 19.4698 10.9784 20.1524 9.16649 20.5475C10.0547 20.8349 10.8719 21.0145 11.618 21.3737C12.3641 21.733 13.0746 22.2359 13.6786 22.8465C14.3181 23.4931 14.8511 24.1757 15.2419 24.966C15.5972 25.7203 15.9525 26.4747 16.059 27.3728C16.2722 27.0495 16.5209 26.8339 16.5209 26.6543C16.4854 26.0436 16.8762 25.5766 17.0894 25.0737C17.7999 23.4932 19.0079 22.3436 20.5356 21.5174C21.1752 21.1582 21.8502 20.9427 22.5608 20.799C22.7029 20.7631 22.845 20.6553 23.0226 20.5475C22.7739 20.4398 22.5608 20.332 22.3476 20.2961C21.2107 20.1165 20.2159 19.5776 19.3987 18.8592C18.0131 17.6737 16.8407 16.3087 16.5564 14.4048C16.3077 14.2252 16.4499 13.9737 16.4143 13.7582C16.3433 13.6864 16.2012 13.6504 16.0946 13.5786Z" fill="#A1ABC6"/>
<path d="M148.474 22.8108C142.861 22.8108 137.283 22.8108 131.634 22.8108C131.705 23.17 131.74 23.5292 131.882 23.8166C132.309 24.6069 132.664 25.469 133.375 26.0797C133.908 26.5467 134.512 26.834 135.151 27.1574C136.572 27.8399 138.064 27.6243 139.557 27.6603C140.019 27.3729 140.623 27.5525 141.084 27.2292C141.511 26.9059 142.044 26.7981 142.434 26.403C142.754 26.1156 143.145 25.8641 143.358 25.469C143.607 25.002 143.891 25.0379 144.424 25.3972C145.312 26.0438 146.343 26.5107 147.266 27.1214C147.408 27.1933 147.515 27.301 147.657 27.4088C147.089 28.3787 146.343 29.1331 145.561 29.8156C144.602 30.6418 143.429 31.2166 142.221 31.6117C141.155 31.9709 140.09 32.1865 138.988 32.1506C138.775 32.1506 138.526 32.0428 138.313 32.2942C138.242 32.3661 137.993 32.3661 137.922 32.2942C137.709 32.0787 137.496 32.1506 137.247 32.1506C135.435 32.1865 133.766 31.6476 132.202 30.8214C131.563 30.4981 131.03 30.0311 130.461 29.636C129.502 28.9535 128.898 28.0554 128.259 27.1574C127.548 26.1515 127.122 25.002 126.837 23.8166C126.731 23.3137 126.802 22.8108 126.66 22.3797C126.411 21.5894 126.447 20.7991 126.518 20.0088C126.624 18.6438 126.766 17.2428 127.37 15.9855C127.939 14.8001 128.649 13.7224 129.538 12.7525C130.39 11.8544 131.314 11.136 132.38 10.5612C133.481 9.98648 134.689 9.66318 135.933 9.44764C136.785 9.30395 137.603 9.30396 138.455 9.30396C140.054 9.33988 141.582 9.77095 143.003 10.5612C143.785 10.9923 144.495 11.4593 145.135 12.1059C146.058 13.0399 146.876 14.0816 147.444 15.2671C147.87 16.1651 148.368 17.0632 148.368 18.1049C148.759 18.536 148.439 19.1108 148.652 19.6137C148.83 20.0447 148.759 20.6195 148.723 21.0865C148.688 21.6253 148.581 22.1641 148.474 22.8108ZM143.714 18.8234C143.714 18.7156 143.749 18.6438 143.749 18.536C143.5 17.7457 143.216 16.9913 142.754 16.2729C141.83 14.836 140.48 14.0816 138.882 13.8661C137.958 13.7224 136.999 13.7942 136.039 13.9739C134.298 14.2972 132.415 15.9496 131.882 17.7816C131.776 18.1049 131.456 18.4641 131.776 18.8234C135.72 18.8234 139.699 18.8234 143.714 18.8234Z" fill="#A1ABC6"/>
<path d="M91.664 32.1505C91.4508 32.1505 91.2376 32.1505 91.06 32.1505C89.6033 32.2224 88.2887 31.8272 87.0097 31.2525C85.6241 30.6059 84.3451 29.7437 83.3147 28.5942C82.6042 27.8039 82.0712 26.834 81.4317 25.9719C81.2896 25.0738 80.6856 24.3195 80.7212 23.3855C80.3303 22.9544 80.6146 22.3797 80.4725 21.8768C80.3303 21.4098 80.3659 20.8709 80.4014 20.4039C80.4725 19.5059 80.5791 18.6437 80.7567 17.7816C80.9343 16.9554 81.2186 16.1292 81.6449 15.3748C82.0002 14.7282 82.4265 14.1175 82.8884 13.5787C83.6345 12.7525 84.3806 11.8903 85.3399 11.3156C85.9794 10.9204 86.5834 10.4894 87.2939 10.2738C87.8624 10.0942 88.3953 9.80685 88.9993 9.69909C89.5678 9.59132 90.1362 9.41171 90.7402 9.41171C91.3087 9.37579 91.8771 9.37579 92.4101 9.41171C94.5063 9.51947 96.4603 10.1302 98.1657 11.3874C98.7341 11.7826 99.3026 12.1777 99.7645 12.6806C100.972 14.0098 102.003 15.4467 102.536 17.1709C102.713 17.8175 102.82 18.5001 102.927 19.1826C103.033 19.8292 103.069 20.4399 103.069 21.0865C103.069 22.5234 102.749 23.8884 102.287 25.2535C101.967 26.2234 101.363 27.0496 100.795 27.8758C100.404 28.4505 99.9421 28.9175 99.4447 29.3845C98.2723 30.4622 96.9577 31.2525 95.4655 31.7554C94.222 32.0428 92.943 32.1865 91.664 32.1505ZM91.5574 27.4806C92.0903 27.4806 92.5167 27.5166 92.9075 27.4806C93.2272 27.4447 93.5115 27.2292 93.8312 27.1214C95.3589 26.6185 96.5669 25.6486 97.3485 24.2117C97.917 23.2418 98.1657 22.1282 98.2368 21.0146C98.2368 20.7632 98.2723 20.5476 98.2368 20.2962C98.2012 20.0447 98.0946 19.7933 98.0591 19.5777C97.9881 18.1408 97.1709 17.0632 96.3537 15.9855C95.6787 15.5903 95.1813 14.9797 94.3997 14.6923C93.9378 14.5127 93.5114 14.1894 93.014 14.2253C92.4456 14.2612 91.9482 13.9738 91.4153 14.0098C91.3442 14.0098 91.2731 13.9738 91.2376 14.0098C91.0244 14.3331 90.7047 14.1535 90.4205 14.1894C90.2428 14.2253 90.0652 14.2253 89.852 14.2971C88.9638 14.6204 88.1111 15.0156 87.4005 15.6981C86.9031 16.201 86.2991 16.9195 85.9794 17.4224C85.3754 18.3204 85.3399 19.3622 85.1267 20.368C84.9491 21.0865 85.3754 21.8049 85.3044 22.5234C85.3044 22.5593 85.4109 22.5952 85.4109 22.667C85.6241 23.4933 85.9794 24.2117 86.5123 24.8942C87.0452 25.6127 87.6848 26.1156 88.4309 26.5826C89.4257 27.1933 90.4915 27.5884 91.5574 27.4806Z" fill="#A1ABC6"/>
<path d="M64.2003 24.2836C64.5556 24.104 64.9109 24.2836 65.1596 24.4632C65.8702 24.9661 66.6518 25.3253 67.3624 25.7923C67.7176 26.0078 68.0729 26.2234 68.4637 26.4748C68.1085 27.301 67.6466 27.9836 67.0426 28.6302C66.2254 29.4564 65.4083 30.2107 64.378 30.7855C63.4897 31.2884 62.5305 31.5758 61.5712 31.935C61.0738 32.1146 60.5053 32.1146 59.9724 32.1146C59.0842 32.1506 58.196 32.1146 57.3078 32.1146C56.4195 32.1146 55.6024 31.7913 54.7852 31.504C54.1457 31.2884 53.5062 30.9651 52.9022 30.6418C52.4048 30.3904 51.9074 30.103 51.5166 29.6719C51.2324 29.3845 50.8771 29.169 50.5928 28.8816C50.0599 28.3428 49.6336 27.6603 49.1717 27.0496C48.5677 26.2234 48.248 25.2175 47.7861 24.3195C47.644 24.0321 47.6084 23.7447 47.5729 23.4214C47.4663 22.6311 47.3242 21.8768 47.3953 21.0865C47.4308 20.6913 47.3953 20.2962 47.3953 19.937C47.3953 19.5059 47.3242 19.0748 47.4308 18.7156C47.7506 17.5302 47.9637 16.3447 48.6032 15.2671C49.5625 13.6865 50.0954 12.8962 51.7653 11.603C53.1154 10.5612 54.2878 10.1302 55.8511 9.66318C57.2367 9.26803 58.6223 9.23211 59.9724 9.3758C61.1448 9.48357 62.3528 9.84279 63.4542 10.3816C64.6622 10.9923 65.7991 11.6389 66.6873 12.6447C67.1492 13.1476 67.54 13.7942 67.9663 14.369C68.1085 14.5486 68.215 14.7282 68.3927 14.9797C67.0426 15.8777 65.657 16.668 64.2003 17.4583C63.845 16.8117 63.4187 16.2729 62.9213 15.77C62.1752 14.9797 61.2514 14.6205 60.2211 14.3331C59.3329 14.0816 58.4091 14.0816 57.5565 14.2253C56.4195 14.4049 55.3182 14.836 54.4299 15.7341C53.7904 16.3807 53.2575 17.0632 52.7956 17.8175C52.5469 18.2127 52.5114 18.7156 52.4048 19.1826C52.2627 19.7574 52.1916 20.404 52.2272 20.9787C52.2627 21.6972 52.3693 22.4156 52.5825 23.0622C52.7956 23.6729 53.1154 24.2836 53.4707 24.8583C53.7194 25.2175 54.0391 25.5408 54.3944 25.8282C54.9984 26.2952 55.5669 26.7981 56.2774 27.0496C56.6682 27.1933 57.0946 27.2651 57.4854 27.337C57.8407 27.4088 58.2315 27.2651 58.5868 27.5166C58.6934 27.5884 58.9065 27.5166 59.0842 27.4807C59.2263 27.4447 59.3329 27.3729 59.475 27.3729C60.3632 27.4088 61.1804 27.0496 61.9265 26.6544C63.0279 26.0078 63.6674 25.3253 64.2003 24.2836Z" fill="#A1ABC6"/>
<path d="M103.708 9.87866C105.484 9.87866 107.154 9.87866 108.931 9.87866C108.966 10.0224 109.037 10.202 109.108 10.3816C109.57 11.3874 109.819 12.4651 110.281 13.4709C110.53 14.0097 110.707 14.6204 110.885 15.1952C111.133 16.1291 111.524 17.0272 111.88 17.9253C112.306 19.1466 112.768 20.368 113.23 21.5893C113.549 22.4874 113.869 23.3495 114.224 24.2476C114.367 24.6787 114.509 25.0738 114.686 25.5049C114.722 25.6486 114.828 25.7563 114.935 25.9C115.432 24.535 115.894 23.2418 116.356 21.9126C117.102 19.7932 117.991 17.7457 118.559 15.5544C119.198 14.4767 119.412 13.2194 119.945 12.1058C120.264 11.4233 120.406 10.633 120.762 9.91458C122.396 9.91458 124.066 9.91458 125.771 9.91458C125.913 10.2379 125.771 10.4893 125.665 10.7767C125.096 12.1418 124.599 13.5787 124.03 14.9437C123.391 16.4884 122.893 18.069 122.218 19.5777C121.792 20.5476 121.401 21.5534 121.046 22.5952C120.797 23.3136 120.478 24.0321 120.229 24.7864C119.874 25.8282 119.376 26.834 119.056 27.8758C118.843 28.5224 118.523 29.133 118.31 29.8156C118.097 30.4262 117.848 31.001 117.6 31.6117C115.752 31.6117 113.905 31.6117 112.022 31.6117C111.56 30.3185 110.991 29.0253 110.53 27.6961C110.21 26.7622 109.854 25.8282 109.464 24.8942C108.86 23.3855 108.22 21.8767 107.687 20.3321C107.367 19.434 106.977 18.6078 106.657 17.7097C106.195 16.4165 105.591 15.1592 105.2 13.8301C104.916 12.8602 104.454 11.9262 104.099 10.9923C103.921 10.633 103.85 10.2738 103.708 9.87866Z" fill="#A1ABC6"/>
<path d="M71.6611 0C73.2599 0 74.8232 0 76.3864 0C76.3864 10.4893 76.3864 21.0146 76.3864 31.5398C76.3864 31.5398 76.3864 31.5398 76.3509 31.5757C76.3154 31.5757 76.3154 31.6117 76.2798 31.6117C74.7521 31.6117 73.2244 31.6117 71.6611 31.6117C71.6611 21.0864 71.6611 10.5612 71.6611 0Z" fill="#A1ABC6"/>
<path d="M152.631 31.5398C152.631 24.3195 152.631 17.135 152.631 9.95052C152.666 9.9146 152.666 9.9146 152.702 9.87868C152.737 9.87868 152.737 9.84276 152.773 9.84276C154.265 9.84276 155.722 9.84276 157.25 9.84276C157.25 10.9204 157.25 11.9981 157.25 13.2554C158.067 11.7826 159.026 10.7049 160.412 10.1301C161.442 9.69907 162.543 9.37577 163.716 9.48353C164.071 9.77091 164 10.202 164 10.5971C164 11.7107 164 12.8243 164 13.902C164 14.6204 163.964 14.6923 163.254 14.6563C162.472 14.6204 161.726 14.7641 161.016 15.0515C159.737 15.5185 158.635 16.2729 157.96 17.4942C157.676 17.9971 157.498 18.6437 157.427 19.2544C157.285 20.1525 157.25 21.0505 157.25 21.9486C157.214 25.002 157.25 28.0554 157.25 31.1088C157.25 31.2525 157.25 31.3962 157.25 31.5398C155.651 31.5398 154.159 31.5398 152.631 31.5398Z" fill="#A1ABC6"/>
</g>
<defs>
<clipPath id="clip0">
<rect width="164" height="37" fill="white"/>
</clipPath>
</defs>
</svg>
