<svg width="165" height="37" viewBox="0 0 165 37" fill="none" xmlns="http://www.w3.org/2000/svg">
<path d="M38.6831 15.4528C35.5808 15.4256 32.6431 16.8675 30.8037 19.3705C28.6897 21.9278 27.5916 25.1653 27.6465 28.4572C27.5367 30.5793 28.2505 32.6742 29.6232 34.3065C30.941 35.8028 32.8902 36.619 34.8944 36.5102C37.8595 36.5102 40.6598 35.1499 42.4718 32.8102C44.723 30.144 45.931 26.7705 45.8761 23.3153C45.9585 21.2749 45.3819 19.2617 44.2014 17.6021C43.0209 16.1874 41.154 15.4528 38.6831 15.4528ZM38.8204 31.069C37.832 32.0756 36.4593 32.647 35.0317 32.6742C34.0708 32.7286 33.1373 32.3205 32.5608 31.5587C31.9019 30.6609 31.5999 29.5727 31.6822 28.4845C31.5999 26.1448 32.2588 23.8322 33.604 21.9006C34.6748 20.2411 36.5142 19.2344 38.5184 19.2617C40.7422 19.2617 41.8678 20.622 41.8678 23.3153C41.8678 26.1992 40.7971 28.9742 38.8204 31.069ZM158.85 25.1653C157.917 24.8389 156.874 25.3014 156.489 26.1992C154.76 30.4977 152.646 32.647 150.038 32.647C148.665 32.647 147.978 31.4771 147.978 29.2734C148.143 26.7705 148.528 24.2947 149.077 21.8462L149.626 19.2617H154.952C155.858 19.2617 156.654 18.6087 156.819 17.7109C157.038 16.6771 156.352 15.6705 155.336 15.48C155.226 15.4528 155.089 15.4528 154.979 15.4528H150.559L151.438 11.1543C151.657 10.0933 150.971 9.03224 149.9 8.78739C149.763 8.76018 149.653 8.73298 149.516 8.73298C148.582 8.70578 147.786 9.35871 147.594 10.2837L146.441 15.3712H134.032C130.902 15.344 127.964 16.8131 126.152 19.3433C124.038 21.9006 122.94 25.1381 122.995 28.43C122.995 29.3278 123.105 30.1984 123.297 31.069C122.501 32.0212 121.32 32.5653 120.057 32.6197C119.426 32.6742 118.795 32.4293 118.383 31.9396C117.998 31.2595 117.834 30.4977 117.889 29.7359C117.971 27.5322 118.273 25.3286 118.767 23.1521L121.979 8.29769C122.226 7.23666 121.567 6.20283 120.497 5.95798C119.426 5.71313 118.383 6.36607 118.136 7.4271L116.269 16.5139C114.951 15.7249 113.441 15.344 111.931 15.344C108.829 15.2896 105.864 16.6499 103.859 19.044C101.691 21.683 100.538 24.9749 100.647 28.3756C100.62 29.4639 100.785 30.5249 101.087 31.5587C100.318 32.2117 99.357 32.5925 98.3686 32.5925C97.7097 32.6469 97.0508 32.4021 96.5841 31.9124C96.1448 31.2594 95.9526 30.4705 96.035 29.7087C96.0899 28.2396 96.3096 26.7705 96.6665 25.3286C96.8861 24.2403 96.1723 23.1793 95.0467 22.9617C94.9918 22.9617 94.9368 22.9345 94.8819 22.9345C93.8936 22.7984 92.9601 23.4514 92.7131 24.4036C92.1914 26.4984 91.258 28.4845 89.9951 30.2528C89.0891 31.6403 87.5791 32.5381 85.9044 32.647C85.0259 32.6197 84.2297 32.1572 83.7904 31.4227C83.2139 30.4433 82.9393 29.3006 82.9668 28.158C82.857 25.8455 83.5159 23.5874 84.8886 21.7102C86.0417 20.0506 87.9635 19.0984 89.9676 19.1256C90.9834 19.1256 91.9992 19.3433 92.9601 19.7514C93.5367 20.0234 94.1956 19.969 94.7447 19.6153C95.6507 19.0712 95.9526 17.9014 95.4036 17.0036C95.1839 16.6499 94.8819 16.3778 94.4976 16.2146C94.0034 15.997 93.4818 15.8337 92.9601 15.7249C91.9992 15.4528 91.0383 15.3168 90.05 15.2896C86.9751 15.2896 84.0375 16.6227 82.0608 18.9896C80.8803 20.2955 80.0292 21.8462 79.5076 23.533C77.5858 29.5999 75.1149 32.5381 72.1224 32.5381C71.2438 32.5925 70.4202 32.2389 69.8986 31.5587C69.4044 30.8514 69.1573 30.008 69.2122 29.1646C69.1848 28.8925 69.2122 28.6205 69.2671 28.3756C71.0516 27.6955 72.644 26.4984 73.7971 25.0021C74.9227 23.5602 75.5541 21.7918 75.5816 19.969C75.5816 16.8947 73.9069 15.344 70.5026 15.344C68.1415 15.344 65.8628 16.269 64.1881 17.9286L66.3021 8.27048C66.5217 7.20945 65.8353 6.20283 64.7921 5.98519C64.6548 5.95798 64.5175 5.93077 64.3803 5.95798C63.4468 5.93077 62.6506 6.58372 62.4585 7.50872L56.6931 34.1705C56.4734 35.2043 57.1323 36.2381 58.2031 36.4558C58.3403 36.483 58.4776 36.5102 58.6149 36.5102C59.5209 36.483 60.317 35.83 60.4543 34.9322L62.2388 26.7705C62.5408 25.6822 62.9526 24.6212 63.4743 23.6418C64.1332 22.4992 65.0117 21.4925 66.0824 20.7036C67.1531 19.7786 68.5533 19.2617 69.9809 19.2889C70.6947 19.18 71.3536 19.6697 71.4635 20.3771C71.4909 20.5131 71.4909 20.6219 71.4635 20.758C71.3536 22.0639 70.6673 23.2609 69.5966 24.0227C68.4709 25.0293 67.0708 25.6822 65.5608 25.9271C65.4235 27.097 65.3686 27.9675 65.3686 28.4572C65.2863 30.5793 65.8902 32.647 67.0982 34.3881C68.2788 35.8845 70.1457 36.6734 72.0675 36.5374C74.7031 36.5102 77.2014 35.2859 78.8212 33.2183L79.5625 32.3477C79.837 33.055 80.2488 33.7352 80.743 34.3065C81.951 35.7756 83.7904 36.5918 85.7122 36.5102C88.3753 36.5102 90.6265 35.2859 92.466 32.7014C93.2621 35.2859 95.129 36.5102 98.2313 36.5102C99.961 36.483 101.663 35.8572 102.981 34.769C104.189 35.8844 105.781 36.483 107.401 36.4286C110.064 36.4286 112.288 35.2043 114.155 32.6197C114.951 35.2043 116.818 36.4286 119.92 36.4286C121.897 36.4558 123.791 35.7212 125.246 34.3881C126.564 35.7484 128.376 36.483 130.27 36.4286C133.236 36.4286 136.036 35.0683 137.848 32.7286C140.072 30.0624 141.28 26.7161 141.252 23.2609C141.28 21.8462 141.033 20.4587 140.511 19.1528H145.672L145.178 21.3565C144.547 23.9139 144.135 26.5256 143.943 29.1646C143.943 33.9528 145.919 36.4014 149.818 36.4014C154.238 36.4014 157.56 33.4359 159.921 27.6139C160.333 26.7433 159.921 25.6822 159.042 25.2742C158.96 25.2197 158.905 25.1925 158.85 25.1653ZM114.869 22.8256C114.182 26.1992 113.084 28.6749 111.821 30.28C110.558 31.8852 109.103 32.6742 107.621 32.6742C106.742 32.647 105.946 32.1845 105.507 31.4499C104.958 30.4705 104.656 29.3822 104.711 28.2668C104.601 25.9543 105.287 23.6962 106.632 21.819C108.362 19.18 111.931 18.4455 114.594 20.1595C114.841 20.3227 115.088 20.5131 115.335 20.7308L114.869 22.8256ZM136.475 27.4506C135.871 28.7293 135.13 29.9264 134.251 31.0146C133.263 32.0484 131.89 32.647 130.463 32.6742C129.502 32.7286 128.596 32.3205 127.992 31.5587C127.333 30.6609 127.031 29.5727 127.113 28.4845C127.031 26.1448 127.69 23.8322 129.035 21.9006C130.106 20.2411 131.945 19.2617 133.949 19.2617C136.173 19.2617 137.299 20.622 137.299 23.3153C137.244 24.73 136.969 26.1175 136.475 27.4234V27.4506ZM55.4851 5.93077C54.5516 5.90357 53.7555 6.55651 53.5633 7.48151L47.7979 34.1433C47.5783 35.1771 48.2372 36.2109 49.3079 36.4286C49.4452 36.4558 49.5824 36.483 49.7197 36.483C50.6531 36.5102 51.4493 35.8572 51.6415 34.9322L57.4069 8.27048C57.5991 7.20945 56.9127 6.17563 55.842 5.95798C55.7322 5.95798 55.6224 5.93077 55.4851 5.93077ZM14.2488 0.0270996C6.45179 0.0543055 0.137318 6.31166 0.109863 14.0381C0.109863 15.5889 0.356952 17.1124 0.851128 18.5815C1.20803 19.5881 2.3062 20.105 3.32201 19.8058C4.31036 19.4249 4.85945 18.3639 4.53 17.3572C4.11818 16.2146 3.926 14.9903 3.98091 13.7933C4.14564 8.21607 8.84031 3.83593 14.4684 3.99916C20.0966 4.1624 24.5167 8.8146 24.352 14.3918C24.1872 19.6153 20.0416 23.8595 14.7704 24.1859C14.7704 24.1859 12.7937 24.3219 11.8054 24.4308C11.4485 24.4852 11.0916 24.5396 10.7347 24.6484C10.6797 24.7028 10.5974 24.6756 10.5425 24.6212C10.515 24.5668 10.515 24.5124 10.5425 24.458L10.8445 22.7984L12.7114 14.4462C12.931 13.4124 12.2721 12.3786 11.2288 12.1609C10.1856 11.9433 9.14231 12.5962 8.92268 13.63C8.92268 13.63 4.50254 34.0345 4.50254 34.2249C4.25546 35.2315 4.85945 36.2381 5.87526 36.483C5.90271 36.483 5.95762 36.5102 5.98507 36.5102C7.00088 36.755 8.01669 36.1293 8.26377 35.1227C8.26377 35.0955 8.29123 35.0683 8.29123 35.0411C8.34614 34.7962 8.92268 32.0756 8.92268 32.0756C9.33449 30.0352 11.0092 28.4845 13.0683 28.158C13.5075 28.1036 15.2921 27.9675 15.2921 27.9675C23.0616 27.2602 28.7721 20.4315 28.0583 12.7322C27.3994 5.63151 21.4693 0.163129 14.2488 0.0270996Z" fill="#A1ABC6"/>
<path d="M162.936 32.2934C161.646 32.0485 160.41 32.8647 160.136 34.1162C159.861 35.3677 160.657 36.5919 161.92 36.864C161.948 36.864 161.975 36.864 161.975 36.864C163.211 37.136 164.446 36.3743 164.748 35.15C164.748 35.0956 164.775 35.0684 164.775 35.014C164.995 33.7897 164.171 32.5927 162.936 32.2934Z" fill="#A1ABC6"/>
</svg>
