<svg width="165" height="31" viewBox="0 0 165 31" fill="none" xmlns="http://www.w3.org/2000/svg">
<path d="M55.9346 16.9773H62.145C63.0182 16.9773 63.7258 17.697 63.7258 18.5759C63.7258 19.4623 63.0182 20.1744 62.145 20.1744H54.6548C54.5344 20.1744 54.4215 20.2199 54.3387 20.2956L52.0803 22.2579C51.7341 22.5609 51.9448 23.1291 52.3965 23.1291H61.7686C61.7686 23.1291 61.7761 23.1291 61.7761 23.1215C61.7761 23.114 61.7836 23.1139 61.7836 23.1139C61.9041 23.1215 62.017 23.1291 62.1375 23.1291C64.6216 23.1291 66.6391 21.0911 66.6391 18.5759C66.6391 16.1894 64.8249 14.2272 62.5063 14.0378C62.5063 14.0378 62.4988 14.0378 62.4988 14.0302C62.4988 14.0226 62.4988 14.0226 62.4913 14.0226H55.8066C54.9334 14.0226 54.2258 13.3029 54.2258 12.4241C54.2258 11.5377 54.9334 10.8255 55.8066 10.8255H63.2817C63.4021 10.8255 63.5226 10.7801 63.6129 10.6967L65.7132 8.73452C66.0444 8.4239 65.8261 7.87085 65.3819 7.87085H55.9346C55.8969 7.87085 55.8518 7.87085 55.8141 7.87085C53.3299 7.87085 51.3125 9.90882 51.3125 12.4241C51.3125 14.9393 53.3299 16.9773 55.8141 16.9773C55.8518 16.9773 55.8894 16.9773 55.9346 16.9773Z" fill="#A1ABC6"/>
<path d="M92.0831 7.86329C91.8121 7.86329 91.5938 8.083 91.5938 8.36331V22.6367C91.5938 22.9094 91.8121 23.1367 92.0831 23.1367H103.45C103.586 23.1367 103.713 23.0761 103.811 22.9776L105.234 21.4396C105.528 21.1215 105.309 20.5987 104.873 20.5987H94.9511C94.6801 20.5987 94.4618 20.379 94.4618 20.0987V8.35573C94.4618 8.083 94.2435 7.85571 93.9725 7.85571H92.0831V7.86329Z" fill="#A1ABC6"/>
<path fill-rule="evenodd" clip-rule="evenodd" d="M73.8808 7.86328C73.8808 7.87086 73.8808 7.87086 73.8808 7.86328C72.4279 7.93147 71.2611 9.10576 71.1934 10.5679V20.1669C71.1934 20.2047 71.1934 20.2502 71.1934 20.2881C71.1934 21.8109 72.3827 23.0533 73.8808 23.114H84.1938C85.6843 23.0458 86.8813 21.8033 86.8813 20.2881C86.8813 20.2502 86.8813 20.2047 86.8813 20.1669V10.5755C86.821 9.11334 85.6542 7.93147 84.2014 7.87086H73.8808V7.86328ZM75.8079 10.5755C75.8004 10.5755 75.8004 10.5755 75.8079 10.5755C74.897 10.6134 74.1668 11.3559 74.1292 12.2801V18.3183C74.1292 18.341 74.1292 18.3713 74.1292 18.3941C74.1292 19.3486 74.8744 20.1366 75.8079 20.1744H82.2743C83.2077 20.1366 83.953 19.3486 83.953 18.3941C83.953 18.3713 83.953 18.341 83.953 18.3183V12.2801C83.9153 11.3559 83.1851 10.621 82.2743 10.5755H75.8079Z" fill="#A1ABC6"/>
<path fill-rule="evenodd" clip-rule="evenodd" d="M121.757 22.6367C121.757 22.9094 121.976 23.1367 122.247 23.1367H124.174C124.445 23.1367 124.663 22.917 124.663 22.6367V10.8255C124.663 10.7876 124.663 10.7422 124.663 10.7043C124.663 9.18151 123.481 7.93903 122.006 7.87842H112.107C112.069 7.87842 112.024 7.87842 111.986 7.87842C110.451 7.87842 109.208 9.14363 109.208 10.7119C109.208 10.7498 109.208 10.7952 109.208 10.8331V22.6442C109.208 22.917 109.427 23.1442 109.698 23.1442H111.625C111.896 23.1442 112.114 22.9245 112.114 22.6442V17.7273C112.114 17.4546 112.333 17.2273 112.604 17.2273H121.291C121.562 17.2273 121.78 17.447 121.78 17.7273V22.6367H121.757ZM112.099 14.5075V12.0528C112.099 11.0983 112.859 10.3255 113.793 10.3255H120.071C121.005 10.3255 121.765 11.0983 121.765 12.0528V14.5075C121.765 14.7802 121.547 15.0075 121.276 15.0075H112.588C112.317 15.0075 112.099 14.7878 112.099 14.5075Z" fill="#A1ABC6"/>
<path fill-rule="evenodd" clip-rule="evenodd" d="M162.445 23.1367C162.174 23.1367 161.956 22.917 161.956 22.6367V17.7198C161.956 17.447 161.738 17.2198 161.467 17.2198H152.682C152.411 17.2198 152.192 17.4395 152.192 17.7198V22.6367C152.192 22.9094 151.974 23.1367 151.703 23.1367H149.761C149.49 23.1367 149.271 22.917 149.271 22.6367V10.8255C149.271 10.7876 149.271 10.7422 149.271 10.7043C149.271 9.14363 150.529 7.87085 152.079 7.87085C152.117 7.87085 152.162 7.87085 152.2 7.87085H162.204C163.695 7.93903 164.892 9.18151 164.892 10.6967C164.892 10.7346 164.892 10.7801 164.892 10.818V22.6291C164.892 22.9018 164.673 23.1291 164.402 23.1291H162.445V23.1367ZM152.192 12.0529V14.5075C152.192 14.7802 152.411 15.0075 152.682 15.0075H161.467C161.738 15.0075 161.956 14.7878 161.956 14.5075V12.0529C161.956 11.0983 161.188 10.3255 160.247 10.3255H153.901C152.953 10.3255 152.192 11.0983 152.192 12.0529Z" fill="#A1ABC6"/>
<path d="M131.92 7.86328C132.063 7.86328 132.198 7.92389 132.289 8.03753L140.931 18.4092C141.224 18.7577 141.789 18.5456 141.789 18.0834V8.3633C141.789 8.09056 142.007 7.86328 142.278 7.86328H144.205C144.476 7.86328 144.694 8.08299 144.694 8.3633V22.6367C144.694 22.9094 144.476 23.1367 144.205 23.1367H141.811C141.804 23.1367 141.796 23.1291 141.796 23.1215C141.796 23.114 141.796 23.114 141.789 23.1064L132.996 12.8105C132.703 12.462 132.138 12.6817 132.138 13.1362V22.6442C132.138 22.917 131.92 23.1443 131.649 23.1443H129.707C129.436 23.1443 129.217 22.9246 129.217 22.6442V8.3633C129.217 8.09056 129.436 7.86328 129.707 7.86328H131.92Z" fill="#A1ABC6"/>
<path d="M6.49949 23.6593C6.74038 23.4169 7.06407 23.2805 7.40282 23.2805H38.7561C39.3282 23.2805 39.6142 23.9775 39.2077 24.3791L33.0124 30.6142C32.7715 30.8566 32.4478 30.993 32.109 30.993H0.755788C0.183676 30.993 -0.10238 30.296 0.304121 29.8944L6.49949 23.6593Z" fill="#A1ABC6"/>
<path d="M6.49949 0.385641C6.74038 0.143206 7.06407 0.00683594 7.40282 0.00683594H38.7561C39.3282 0.00683594 39.6142 0.703837 39.2077 1.10537L33.0124 7.33292C32.7715 7.57536 32.4478 7.71172 32.109 7.71172H0.755788C0.183676 7.71172 -0.10238 7.01472 0.304121 6.61319L6.49949 0.385641Z" fill="#A1ABC6"/>
<path d="M33.0124 11.9467C32.7715 11.7042 32.4478 11.5679 32.109 11.5679H0.755788C0.183676 11.5679 -0.10238 12.2649 0.304121 12.6664L6.49949 18.894C6.74038 19.1364 7.06407 19.2728 7.40282 19.2728H38.7561C39.3282 19.2728 39.6142 18.5758 39.2077 18.1742L33.0124 11.9467Z" fill="#A1ABC6"/>
</svg>
