<svg width="165" height="23" viewBox="0 0 165 23" fill="none" xmlns="http://www.w3.org/2000/svg">
<path d="M19.9066 22.1198C18.4179 22.1198 17.0911 22.153 15.7642 22.0867C15.5376 22.0867 15.214 21.689 15.0846 21.3908C14.1137 19.1705 13.1752 16.9502 12.2366 14.6968C12.0101 14.1334 11.7188 13.9346 11.1363 13.9677C10.2949 14.034 9.16215 13.7689 8.67671 14.1997C8.25599 14.5974 8.51489 15.7904 8.48253 16.652C8.45017 18.2095 8.45017 19.7339 8.48253 21.2914C8.48253 21.921 8.28835 22.1198 7.67346 22.0867C6.79966 22.0536 5.8935 22.0204 5.0197 22.0867C4.30771 22.1198 4.1459 21.8216 4.17826 21.1588C4.21062 19.0379 4.17826 16.9171 4.21062 14.7962C4.21062 14.0672 4.04881 13.7358 3.2721 13.8021C2.43066 13.8683 1.55686 13.8021 0.683066 13.8352C0.229985 13.8352 -0.0289187 13.7358 0.00344422 13.2056C0.0358071 12.3108 0.0358071 11.3829 0.00344422 10.4882C0.00344422 10.0243 0.197622 9.85857 0.61834 9.85857C1.7834 9.89171 2.91611 9.85857 4.17826 9.85857C4.17826 9.32835 4.1459 8.89755 4.17826 8.46675C4.21062 8.00281 4.01645 7.83712 3.56337 7.83712C2.59248 7.87026 1.62159 7.83712 0.650703 7.83712C0.165259 7.83712 -0.0289187 7.67142 0.00344422 7.17435C0.0358071 6.11391 0.00344422 5.02034 0.00344422 3.86049C1.20087 3.86049 2.33357 3.82735 3.46628 3.86049C4.01645 3.89363 4.24299 3.6948 4.21062 3.0983C4.17826 2.36926 4.21062 1.60707 4.21062 0.878022C4.21062 0.380944 4.37244 0.182113 4.85788 0.182113C8.28835 0.182113 11.7188 0.148974 15.1169 0.215251C17.4471 0.24839 19.2594 2.2367 19.3241 4.62268C19.3565 6.34588 19.3565 8.10223 19.3241 9.82543C19.2917 11.5155 18.6121 12.8079 17.0587 13.5038C16.5409 13.7358 16.5409 14.0009 16.7351 14.4648C17.6736 16.6188 18.6121 18.806 19.5506 20.96C19.6801 21.3245 19.7448 21.6228 19.9066 22.1198ZM11.4923 4.35757C10.7479 4.35757 9.97122 4.39071 9.22688 4.35757C8.67671 4.32443 8.51489 4.5564 8.54726 5.08662C8.57962 6.47844 8.57962 7.83712 8.54726 9.22894C8.54726 9.72602 8.70907 9.92485 9.19451 9.92485C10.6832 9.89171 12.2043 9.92485 13.7253 9.92485C14.6315 9.92485 15.0846 9.42777 15.0846 8.46675C15.0846 7.60515 15.0846 6.77668 15.0846 5.91508C15.0846 4.92093 14.6315 4.45699 13.6606 4.42385C12.9162 4.35757 12.2043 4.35757 11.4923 4.35757Z" fill="#A1ABC6"/>
<path d="M112.918 13.9683C114.05 16.6525 115.183 19.3036 116.38 22.1203C114.827 22.1203 113.435 22.1535 112.011 22.0872C111.817 22.0872 111.591 21.7227 111.494 21.4576C110.523 19.2041 109.552 16.9839 108.613 14.6973C108.387 14.1671 108.128 14.0014 107.578 14.0345C106.736 14.0677 105.862 14.0345 104.924 14.0345C104.924 16.7519 104.924 19.3367 104.924 22.0209C103.468 22.0209 102.076 22.0209 100.62 22.0209C100.62 14.7636 100.62 7.53938 100.62 0.182617C100.911 0.182617 101.17 0.182617 101.461 0.182617C104.73 0.182617 107.998 0.182617 111.235 0.182617C114.147 0.182617 115.733 1.80641 115.733 4.78888C115.733 6.18069 115.733 7.53938 115.733 8.93119C115.765 11.7148 115.312 12.5102 112.918 13.9683ZM104.924 9.89221C106.866 9.89221 108.71 9.89221 110.555 9.89221C111.202 9.89221 111.429 9.42827 111.429 8.83178C111.429 7.73821 111.396 6.64463 111.429 5.51792C111.461 4.7226 111.073 4.35807 110.296 4.35807C109.099 4.35807 107.869 4.35807 106.671 4.35807C106.089 4.35807 105.506 4.35807 104.924 4.35807C104.924 6.28011 104.924 8.03645 104.924 9.89221Z" fill="#A1ABC6"/>
<path d="M63.2084 6.94253C63.2084 6.37917 63.2084 5.88209 63.2084 5.38501C63.176 4.52341 62.8847 4.22516 62.0757 4.22516C60.7164 4.22516 59.3895 4.22516 58.0303 4.22516C57.2859 4.22516 56.93 4.58969 56.93 5.31874C56.93 5.38501 56.93 5.41815 56.93 5.48443C56.9623 8.43376 56.574 8.0361 59.3895 8.66573C60.7164 8.96398 62.108 9.16281 63.4025 9.56047C64.3411 9.82558 65.2796 10.2232 66.121 10.7535C67.189 11.4162 67.7392 12.5098 67.7715 13.8353C67.8039 15.2934 67.8039 16.7515 67.7715 18.2096C67.7392 19.4358 67.3185 20.5956 66.2828 21.2915C65.7003 21.6892 64.9883 22.0206 64.3087 22.0206C61.6549 22.12 59.0335 21.9212 56.3798 22.0868C54.3733 22.2194 52.6904 20.2642 52.6257 18.541C52.5933 17.58 52.6257 16.619 52.5933 15.658C52.5933 15.194 52.8199 15.0946 53.2082 15.0946C54.2115 15.0946 55.2147 15.1277 56.1856 15.0946C56.6387 15.0946 56.8005 15.2934 56.8005 15.7242C56.7681 16.155 56.8005 16.619 56.8005 17.0498C56.8005 17.7126 57.1565 18.0771 57.8037 18.0771C59.3248 18.0771 60.8782 18.0771 62.3993 18.0771C63.0789 18.0771 63.4349 17.6794 63.4349 16.9835C63.4349 16.3539 63.4025 15.7242 63.4349 15.0946C63.4996 14.233 63.0789 13.8353 62.3022 13.6697C60.4899 13.272 58.6452 12.9406 56.8652 12.4435C55.862 12.1784 54.8911 11.7145 54.0496 11.118C53.0464 10.4221 52.561 9.3285 52.5933 8.0361C52.6257 6.74369 52.5933 5.45129 52.5933 4.15889C52.6257 1.83919 54.2438 0.0828464 56.5092 0.0497078C58.8394 -0.0165693 61.1371 -0.0165693 63.4673 0.0497078C65.6679 0.115985 67.2537 1.77291 67.3832 3.9932C67.4155 4.75538 67.4155 5.55071 67.3832 6.31289C67.3832 6.51172 67.0919 6.87625 66.9301 6.87625C65.7327 6.97566 64.5352 6.94253 63.2084 6.94253Z" fill="#A1ABC6"/>
<path d="M29.5833 0.248535C34.2759 0.248535 38.8714 0.248535 43.5641 0.248535C43.5641 1.60722 43.5641 2.93276 43.5641 4.35771C43.2404 4.35771 42.9168 4.35771 42.5932 4.35771C39.9394 4.35771 37.318 4.39085 34.6643 4.35771C34.017 4.35771 33.8228 4.55655 33.8552 5.21932C33.8876 6.11406 33.9199 7.04194 33.8552 7.93668C33.8228 8.63259 34.017 8.8977 34.729 8.8977C36.8002 8.83142 38.8714 8.8977 40.9427 8.86456C41.5899 8.86456 41.7841 9.06339 41.7517 9.72616C41.687 10.6209 41.7194 11.4825 41.7517 12.3772C41.7841 12.9406 41.5576 13.0732 41.0398 13.0732C38.9038 13.04 36.7679 13.0732 34.6643 13.04C34.017 13.04 33.7905 13.2057 33.8228 13.8685C33.8552 14.9621 33.8876 16.0888 33.8228 17.1823C33.7905 17.9114 34.0494 18.0771 34.6966 18.0439C37.318 18.0108 39.9394 18.0439 42.5285 18.0439C42.8521 18.0439 43.1757 18.0439 43.4993 18.0439C43.4993 19.4358 43.4993 20.7282 43.4993 22.0537C38.8067 22.0537 34.2112 22.0537 29.5186 22.0537C29.5833 14.7964 29.5833 7.57215 29.5833 0.248535Z" fill="#A1ABC6"/>
<path d="M77.2861 22.0537C77.2861 14.7632 77.2861 7.53902 77.2861 0.248535C81.9464 0.248535 86.5743 0.248535 91.2993 0.248535C91.2993 1.5078 91.3316 2.70079 91.2669 3.92691C91.2669 4.09261 90.7815 4.35771 90.5226 4.35771C87.8688 4.39085 85.2474 4.39085 82.5937 4.39085C82.27 4.39085 81.9464 4.39085 81.5904 4.39085C81.5904 5.91523 81.5904 7.34018 81.5904 8.8977C82.1082 8.8977 82.626 8.8977 83.1115 8.8977C84.9562 8.8977 86.8332 8.93083 88.6779 8.8977C89.2281 8.8977 89.4546 9.06339 89.4222 9.65988C89.3899 10.5546 89.3899 11.4825 89.4222 12.3772C89.4546 12.9075 89.2281 13.1063 88.7103 13.1063C86.5743 13.0732 84.4383 13.1063 82.3348 13.0732C81.7199 13.0732 81.461 13.2388 81.4933 13.9016C81.558 14.9952 81.558 16.1219 81.4933 17.2155C81.461 17.9114 81.7199 18.1102 82.3671 18.0771C85.0532 18.0439 87.7717 18.0771 90.4579 18.0439C91.0727 18.0439 91.2993 18.2096 91.2669 18.8724C91.2022 19.8997 91.2669 20.9601 91.2669 22.0537C86.5743 22.0537 81.9464 22.0537 77.2861 22.0537Z" fill="#A1ABC6"/>
<path d="M151.009 0.248535C155.669 0.248535 160.265 0.248535 164.99 0.248535C164.99 1.5078 165.022 2.73393 164.957 3.96005C164.957 4.09261 164.504 4.32458 164.245 4.35771C161.591 4.39085 158.97 4.39085 156.316 4.39085C155.993 4.39085 155.669 4.39085 155.281 4.39085C155.281 5.88209 155.281 7.34018 155.281 8.8977C156.543 8.8977 157.805 8.8977 159.067 8.8977C160.2 8.8977 161.333 8.93083 162.465 8.8977C163.015 8.8977 163.177 9.09653 163.145 9.62674C163.113 10.5215 163.113 11.4494 163.145 12.3441C163.177 12.9406 162.951 13.1063 162.401 13.1063C160.265 13.0732 158.129 13.1063 156.025 13.1063C155.798 13.1063 155.54 13.1394 155.281 13.1394C155.281 14.7632 155.281 16.3539 155.281 18.0439C155.604 18.0771 155.928 18.0771 156.219 18.0771C158.808 18.0771 161.397 18.1102 163.986 18.0439C164.828 18.0108 165.054 18.309 164.99 19.1044C164.925 20.0654 164.99 21.0264 164.99 22.0537C160.297 22.0537 155.669 22.0537 151.009 22.0537C151.009 14.7964 151.009 7.57215 151.009 0.248535Z" fill="#A1ABC6"/>
<path d="M124.018 0.215316C125.571 0.215316 127.028 0.182177 128.452 0.248454C128.646 0.248454 128.937 0.612979 129.002 0.878087C130.167 5.45121 131.3 10.0575 132.432 14.6637C132.594 15.2602 132.756 15.8899 132.983 16.7515C133.144 16.2544 133.209 15.9893 133.306 15.7242C134.568 10.8528 135.798 5.94828 137.028 1.07692C137.19 0.414147 137.449 0.182177 138.128 0.215316C139.39 0.281593 140.653 0.215316 142.012 0.215316C141.915 0.612978 141.85 0.911225 141.785 1.17633C139.779 7.9366 137.74 14.6969 135.766 21.4571C135.604 21.9873 135.377 22.153 134.86 22.1199C133.597 22.0868 132.335 22.0868 131.073 22.1199C130.652 22.1199 130.458 21.9873 130.329 21.5565C128.29 14.6306 126.219 7.67149 124.18 0.745533C124.115 0.612978 124.083 0.480424 124.018 0.215316Z" fill="#A1ABC6"/>
</svg>
