<svg width="165" height="63" viewBox="0 0 165 63" fill="none" xmlns="http://www.w3.org/2000/svg">
<path fill-rule="evenodd" clip-rule="evenodd" d="M97.1446 7.52647C94.2681 3.84625 90.0459 1.51715 85.3766 1.51715C76.3462 1.51715 69.7394 9.90887 69.7394 18.9999C69.7394 25.3375 73.9453 30.0802 78.6241 30.0802C79.0612 30.0802 79.495 30.0406 79.9225 29.9619C76.789 27.6766 74.784 23.514 74.784 18.9999C74.784 11.812 79.6464 6.21071 85.3766 6.21071C91.626 6.21071 95.9718 12.4169 95.9718 18.9999C95.9555 23.8618 94.2222 28.6957 91.1721 32.2625C88.51 35.376 85.062 37.3504 81.2709 37.9767C81.2709 37.9767 81.5871 38 82.0003 38C92.4937 38 101 29.4933 101 18.9999C101 14.689 99.5634 10.7143 97.1446 7.52647ZM94.2605 19.0001C94.2605 12.662 90.0547 7.91936 85.3765 7.91936C84.9388 7.91936 84.5056 7.95894 84.0775 8.03811C87.2115 10.3234 89.216 14.486 89.216 19.0001C89.216 26.1879 84.3541 31.7892 78.624 31.7892C72.374 31.7892 68.0287 25.5831 68.0287 19.0001C68.0445 14.1382 69.7783 9.30425 72.8278 5.7375C75.4905 2.62413 78.9385 0.649698 82.7291 0.0232223C82.7291 0.0232223 82.4134 0 82.0002 0C71.5068 0 63 8.50677 63 19.0001C63 23.3105 64.4366 27.2852 66.856 30.4741C69.7319 34.1532 73.9547 36.4829 78.624 36.4829C87.6544 36.4829 94.2605 28.0911 94.2605 19.0001Z" fill="#A1ABC6"/>
<path d="M0 57.5C0 60.6011 2.32983 63 5.57972 63C8.82961 63 11.1743 60.6011 11.1743 57.5C11.1743 54.3989 8.82961 52 5.57972 52C2.32983 52 0 54.3989 0 57.5ZM2.12207 57.5C2.12207 55.5545 3.56152 54.0625 5.57972 54.0625C7.61276 54.0625 9.03737 55.5545 9.03737 57.5C9.03737 59.4455 7.61276 60.9375 5.57972 60.9375C3.56152 60.9375 2.12207 59.4455 2.12207 57.5ZM19.9216 62.8391H22.0734L18.5415 52.1609H16.3601L12.7986 62.8391H14.9058L15.4104 61.3178H19.4171L19.9216 62.8391ZM16.0781 59.2992L17.4137 55.2473L18.7493 59.2992H16.0781ZM29.8103 55.2766H31.9324C31.9324 53.3311 30.2852 52 28.0592 52C25.7887 52 24.2157 53.4189 24.2157 55.3644C24.2157 56.7247 24.9874 57.7926 26.412 58.1875C27.3766 58.4508 28.5192 58.3777 29.2167 58.6263C29.6471 58.7726 29.9884 59.109 29.9884 59.6356C29.9884 60.4109 29.3206 61.0106 28.1779 61.0106C27.0649 61.0106 26.2339 60.4402 26.2339 59.5918H24.1267C24.1267 61.6104 25.8481 63 28.1482 63C30.5226 63 32.0956 61.5372 32.0956 59.5186C32.0956 58.0851 31.2497 57.0465 29.8696 56.637C28.8309 56.3298 27.7773 56.4614 27.0798 56.2128C26.6198 56.0519 26.323 55.7154 26.323 55.262C26.323 54.5452 26.9759 53.9894 28.0295 53.9894C29.0683 53.9894 29.7806 54.5013 29.8103 55.2766ZM35.049 62.8391H37.1711V52.1609H35.049V62.8391ZM45.8504 55.2766H47.9725C47.9725 53.3311 46.3253 52 44.0993 52C41.8289 52 40.2559 53.4189 40.2559 55.3644C40.2559 56.7247 41.0275 57.7926 42.4521 58.1875C43.4167 58.4508 44.5594 58.3777 45.2568 58.6263C45.6872 58.7726 46.0285 59.109 46.0285 59.6356C46.0285 60.4109 45.3607 61.0106 44.2181 61.0106C43.1051 61.0106 42.2741 60.4402 42.2741 59.5918H40.1668C40.1668 61.6104 41.8882 63 44.1884 63C46.5627 63 48.1357 61.5372 48.1357 59.5186C48.1357 58.0851 47.2899 57.0465 45.9098 56.637C44.871 56.3298 43.8174 56.4614 43.1199 56.2128C42.6599 56.0519 42.3631 55.7154 42.3631 55.262C42.3631 54.5452 43.016 53.9894 44.0697 53.9894C45.1084 53.9894 45.8207 54.5013 45.8504 55.2766ZM56.5656 62.8391H58.6877V58.4947H62.175V56.4468H58.6877V54.2088H64.9797V52.1609H56.5656V62.8391ZM66.9006 57.5C66.9006 60.6011 69.2304 63 72.4803 63C75.7302 63 78.0749 60.6011 78.0749 57.5C78.0749 54.3989 75.7302 52 72.4803 52C69.2304 52 66.9006 54.3989 66.9006 57.5ZM69.0227 57.5C69.0227 55.5545 70.4621 54.0625 72.4803 54.0625C74.5134 54.0625 75.938 55.5545 75.938 57.5C75.938 59.4455 74.5134 60.9375 72.4803 60.9375C70.4621 60.9375 69.0227 59.4455 69.0227 57.5ZM89.6614 52.1609H87.5541V58.7287C87.5541 59.9721 86.6341 60.9375 85.343 60.9375C84.0371 60.9375 83.1171 59.9721 83.1171 58.7287V52.1609H80.995V58.8165C80.995 61.1715 82.8055 63 85.343 63C87.7916 63 89.6614 61.2154 89.6614 58.8165V52.1609ZM99.6864 52.1609V59.1383L95.1603 52.1609H93.0531V62.8391H95.1603V55.8617L99.6864 62.8391H101.794V52.1609H99.6864ZM108.89 52.1609H105.269V62.8391H108.89C112.036 62.8391 114.306 60.5426 114.306 57.5146C114.306 54.4867 112.036 52.1609 108.89 52.1609ZM107.391 54.2088H108.875C110.804 54.2088 112.184 55.6423 112.184 57.5146C112.184 59.387 110.804 60.7912 108.875 60.7912H107.391V54.2088ZM123.063 62.8391H125.215L121.683 52.1609H119.502L115.94 62.8391H118.047L118.552 61.3178H122.558L123.063 62.8391ZM119.22 59.2992L120.555 55.2473L121.891 59.2992H119.22ZM128.987 62.8391H131.109V54.2088H134.255V52.1609H125.841V54.2088H128.987V62.8391ZM136.974 62.8391H139.096V52.1609H136.974V62.8391ZM142.091 57.5C142.091 60.6011 144.421 63 147.671 63C150.92 63 153.265 60.6011 153.265 57.5C153.265 54.3989 150.92 52 147.671 52C144.421 52 142.091 54.3989 142.091 57.5ZM144.213 57.5C144.213 55.5545 145.652 54.0625 147.671 54.0625C149.704 54.0625 151.128 55.5545 151.128 57.5C151.128 59.4455 149.704 60.9375 147.671 60.9375C145.652 60.9375 144.213 59.4455 144.213 57.5ZM162.893 52.1609V59.1383L158.367 52.1609H156.259V62.8391H158.367V55.8617L162.893 62.8391H165V52.1609H162.893Z" fill="#A1ABC6"/>
</svg>
