<svg width="164" height="41" viewBox="0 0 164 41" fill="none" xmlns="http://www.w3.org/2000/svg">
<path fill-rule="evenodd" clip-rule="evenodd" d="M0.64214 0.804142C4.73442 5.82625 9.22765 12.1356 9.9544 13.156C9.99316 13.2105 10.0212 13.2498 10.0379 13.2732C10.4253 13.8146 10.7451 14.2171 10.988 14.5227L10.988 14.5228C11.5272 15.2013 11.6872 15.4026 11.3655 15.5876C11.106 15.7367 10.8383 15.7859 10.5711 15.7859C10.269 15.7859 9.92858 15.6388 9.68072 15.4011C9.50552 15.2331 8.30674 13.4726 6.67435 10.9116C5.42535 8.95194 4.38009 7.32634 4.35157 7.29913C4.28565 7.23618 4.28678 7.23831 6.54701 11.3274C7.96623 13.8952 8.93704 15.7926 8.93704 15.914C8.93704 16.161 8.8704 16.2908 8.56914 16.6305C8.06693 17.1971 7.84242 17.8336 7.68036 19.1509C7.49868 20.6276 6.98781 21.6709 5.57202 23.4561C4.74326 24.5013 4.60766 24.6928 4.39854 25.114C4.13515 25.6445 4.0627 25.9416 4.03335 26.6114C4.00233 27.3197 4.06276 27.7772 4.27674 28.4542C4.46409 29.047 4.65962 29.4385 5.15952 30.2214C5.59094 30.8969 5.83935 31.399 5.83935 31.5955C5.83935 31.7518 5.86885 31.7519 6.53736 31.5994C8.13719 31.234 9.43624 30.5916 10.1668 29.8043C10.619 29.3169 10.7252 29.0478 10.7286 28.38C10.7309 27.9432 10.7157 27.8518 10.5989 27.6005C10.4088 27.1914 10.0628 26.8514 9.30005 26.3242C8.30068 25.6334 7.87384 25.0773 7.75593 24.3125C7.65922 23.685 7.77142 23.2422 8.32428 22.0706C8.89651 20.8579 9.03832 20.3411 9.13425 19.1186C9.19619 18.3289 9.282 18.0175 9.50641 17.7675C9.74047 17.5068 9.95116 17.4185 10.5304 17.3384C11.4747 17.208 12.076 16.961 12.5702 16.5005C12.999 16.101 13.1784 15.716 13.2059 15.1366L13.2268 14.6973L12.9872 14.4149C12.1195 13.3919 0.0610525 0 0.00765448 0C-0.00375285 0 0.281777 0.361888 0.64214 0.804142ZM6.32643 27.4128C6.52262 27.0614 6.41838 26.6099 6.09021 26.3891C5.78015 26.1807 5.29849 26.279 5.29849 26.5506C5.29849 26.6334 5.34382 26.6937 5.446 26.747C5.61804 26.8366 5.63053 26.9372 5.49517 27.1429C5.35808 27.3513 5.36914 27.5344 5.52638 27.6588C5.77981 27.8595 6.13854 27.7491 6.32643 27.4128ZM12.2314 8.25544C11.8443 8.19472 11.828 8.1876 12.0101 8.15929C12.3592 8.105 13.1835 8.17899 13.7516 8.31557C15.0778 8.63429 16.2845 9.45081 17.5725 10.9009L17.9147 11.2862L18.4043 11.2066C20.4667 10.8715 22.5647 11.1378 24.3196 11.9575C24.8024 12.183 25.5635 12.6319 25.6586 12.7472C25.6888 12.784 25.7446 13.0207 25.7821 13.2732C25.9125 14.1468 25.8473 14.8164 25.583 15.3166C25.4393 15.5888 25.4312 15.675 25.5278 15.9079C25.605 16.0938 25.8202 16.2314 26.0333 16.2311C26.4693 16.2305 26.9386 15.5177 27.1562 14.5259L27.2426 14.132L27.4137 14.328C28.3524 15.4033 29.0898 16.8699 29.2164 17.9138L29.2493 18.1859L29.0916 17.9385C28.8199 17.5128 28.5472 17.2229 28.1977 16.9892C27.568 16.5678 26.9019 16.4244 25.1384 16.3304C23.5455 16.2455 22.6441 16.108 21.7502 15.8132C20.2291 15.3118 19.4626 14.6441 17.6558 12.2474C16.8534 11.1829 16.3574 10.5939 15.8641 10.1196C14.743 9.04182 13.6415 8.4766 12.2314 8.25544ZM26.0178 10.6323C26.0579 9.91894 26.1536 9.44843 26.346 9.01875C26.4221 8.84867 26.4934 8.70946 26.5043 8.70946C26.5154 8.70946 26.4823 8.83501 26.4308 8.98841C26.291 9.40544 26.268 9.9758 26.3644 10.6394C26.4866 11.4814 26.5562 11.6029 27.4363 12.5124C27.8491 12.9391 28.3293 13.4771 28.5034 13.7081L28.8199 14.1281L28.5034 13.828C28.1163 13.4609 27.2262 12.745 27.0296 12.6426C26.8977 12.574 26.8781 12.5752 26.7968 12.657C26.7219 12.7324 26.706 12.8458 26.6956 13.3815C26.6794 14.2165 26.567 14.7524 26.2953 15.2883C26.1483 15.5781 26.1251 15.5163 26.2581 15.1891C26.3574 14.9449 26.3675 14.8375 26.3668 14.0292C26.3652 12.4051 26.1744 12.0147 25.0561 11.3458C24.773 11.1764 24.3061 10.932 24.0189 10.8027C23.7318 10.6735 23.5037 10.5609 23.5119 10.5525C23.5436 10.5206 24.6343 10.8425 25.0732 11.0132C25.7261 11.2672 25.8338 11.3001 25.9132 11.2694C25.9662 11.2489 25.992 11.0924 26.0178 10.6323ZM11.8165 9.38545C11.7112 10.6393 12.1975 12.3166 12.9833 13.4106C13.5925 14.2586 14.5369 14.9176 15.2341 14.9813C15.6906 15.0229 15.8278 14.8784 15.6212 14.5735C15.3345 14.1501 14.9819 13.4982 14.8885 13.2191C14.8306 13.0457 14.7046 12.5335 14.6086 12.0809C14.2808 10.5357 13.9586 9.93399 13.2143 9.47695C12.9431 9.31037 12.3639 9.09238 12.0279 9.03044L11.8491 8.99742L11.8165 9.38545ZM25.0647 21.5525C21.392 20.0574 20.0984 18.7596 20.0984 16.5698C20.0984 16.2475 20.1095 15.9839 20.1228 15.9839C20.1363 15.9839 20.2783 16.0902 20.4385 16.2202C21.1833 16.8242 22.0173 17.0821 24.3261 17.4226C25.6845 17.6232 26.449 17.7849 27.1543 18.0216C29.3959 18.7732 30.7828 20.2986 31.1136 22.3764C31.2096 22.9802 31.1533 24.1123 30.9975 24.709C30.8745 25.1803 30.499 26.0297 30.3995 26.0623C30.3719 26.0714 30.3448 25.9644 30.3378 25.8189C30.3 25.0387 29.9101 24.2792 29.2553 23.7101C28.5107 23.0632 27.5103 22.5483 25.0647 21.5525ZM22.3089 21.388C22.3605 21.5433 22.4403 21.8967 22.4862 22.1737C22.7804 23.9438 21.8615 25.374 20.0738 25.9282C19.8846 25.9868 19.1392 26.1344 18.4173 26.2559C16.956 26.5019 16.3038 26.6761 15.6487 26.9953C15.184 27.2216 14.6215 27.5605 14.6549 27.5942C14.6657 27.6051 14.7717 27.5795 14.8905 27.5373C15.7168 27.244 16.6363 27.0921 18.0333 27.0187C18.5878 26.9896 19.2184 26.9432 19.4347 26.9156C20.6793 26.7571 21.542 26.3748 22.2128 25.6845C22.5861 25.3002 22.8086 24.9424 22.988 24.4377C23.1016 24.1176 23.117 23.9987 23.1178 23.4315C23.1189 22.8536 23.105 22.7478 22.9818 22.3923C22.8205 21.9263 22.6303 21.5766 22.3893 21.3031L22.2152 21.1056L22.3089 21.388ZM24.1699 25.1969C23.6818 24.1362 23.5699 23.1122 23.8371 22.1573C23.8658 22.0551 23.9117 21.9716 23.9395 21.9716C23.9672 21.9716 24.0822 22.0346 24.1953 22.1115C24.4201 22.2645 24.8711 22.5223 26.0726 23.1846C27.5719 24.0111 28.4268 24.6511 29.008 25.3824C29.5171 26.0227 29.8321 26.752 29.9836 27.6413C30.0697 28.1451 30.0193 29.3574 29.8915 29.8646C29.4884 31.4641 28.5515 32.7204 27.2153 33.4536C27.0195 33.5609 26.8438 33.649 26.8246 33.6496C26.8057 33.6499 26.877 33.4666 26.9832 33.242C27.4327 32.2918 27.4839 31.3676 27.1441 30.339C26.9359 29.7091 26.5117 28.9405 25.655 27.6415C24.659 26.1314 24.4148 25.7294 24.1699 25.1969ZM14.9785 28.6757C13.4338 28.9294 11.7381 29.7559 10.3752 30.9195L9.96943 31.2659L10.326 31.3223C12.1868 31.616 12.6879 31.8765 13.9787 33.2209C14.7215 33.9945 14.9723 34.1667 15.5884 34.3257C16.4934 34.5592 17.3853 34.1301 17.6913 33.3139C17.828 32.9491 17.8098 32.3452 17.6529 32.042C17.2799 31.3199 16.193 31.0865 15.6675 31.6154C15.2297 32.056 15.3572 32.7197 15.9017 32.8338C16.0263 32.8601 16.0228 32.8545 15.8699 32.7846C15.6316 32.6756 15.5281 32.5246 15.5268 32.2843C15.5238 31.7207 16.1616 31.4043 16.755 31.6749C17.1894 31.8732 17.362 32.1322 17.362 32.5863C17.362 33.2855 16.7734 33.8124 16.0885 33.7263C15.7224 33.6801 15.2746 33.4434 15.0345 33.169C14.4304 32.4783 14.6658 31.3884 15.5092 30.9702C16.1513 30.6519 17.0049 30.7304 17.6667 31.1685C18.4272 31.6722 18.7506 32.1324 19.4056 33.6429C19.6189 34.1347 19.8933 34.6884 20.0153 34.8732C20.6358 35.8123 21.3792 36.2729 22.2746 36.2729C22.7685 36.2729 23.14 36.1816 23.6074 35.9457C23.9547 35.7703 24.4471 35.437 24.4116 35.4013C24.4015 35.3912 24.2575 35.4365 24.0914 35.5019C23.1137 35.8875 22.1198 35.861 21.5427 35.4337C21.1792 35.1649 20.886 34.6291 20.7353 33.9591C20.7092 33.8431 20.6232 33.331 20.544 32.8208C20.3433 31.528 20.1506 30.9468 19.7013 30.2799C19.2416 29.5976 18.3577 29.0249 17.3696 28.7692C16.7532 28.6096 15.6442 28.5662 14.9785 28.6757ZM12.8151 18.6798C12.9485 18.1816 13.3794 17.7065 13.8228 17.5688C14.1046 17.4814 14.6873 17.5372 14.9613 17.678C15.4922 17.951 15.8776 18.5727 15.794 19.0214C15.692 19.5686 14.8144 20.0065 13.8048 20.0136C13.2892 20.0172 13.0987 19.9472 12.9018 19.6814C12.7799 19.5167 12.7337 18.9837 12.8151 18.6798ZM14.8257 17.8731C15.0905 18.0366 15.1586 18.2783 15.0029 18.5019C14.8957 18.656 14.5637 18.8024 14.3211 18.8024C13.9566 18.8024 13.559 18.5407 13.559 18.301C13.559 17.8195 14.3215 17.5617 14.8257 17.8731ZM93.9587 19.2521C93.1351 16.5098 94.4933 14.2351 97.3914 13.5042C98.2225 13.2944 101.986 13.389 102.631 13.636C102.868 13.7265 102.971 14.0738 102.973 14.7875C102.974 15.3497 103.036 16.0324 103.109 16.3046C103.22 16.7173 103.155 16.7985 102.72 16.7919C102.326 16.7858 102.088 16.5549 101.756 15.8565C101.226 14.7411 100.583 14.3863 99.0858 14.3821C97.1745 14.3766 95.776 15.6649 96.0036 17.2214C96.1519 18.2342 97.1629 19.2309 99.4316 20.601C101.59 21.9043 102.85 22.9761 103.352 23.9363C104.694 26.5036 103.548 29.2509 100.557 30.6352C99.0222 31.3457 96.4492 31.4192 94.6403 30.8042L93.4818 30.4102V28.5574C93.4818 26.8793 93.5218 26.7042 93.9039 26.7042C94.2235 26.7042 94.3616 26.9156 94.4737 27.5781C94.7529 29.2255 96.0035 30.2255 97.7846 30.2255C99.5294 30.2255 100.749 29.2713 101.216 27.5409C101.415 26.8038 101.381 26.532 100.986 25.7188C100.513 24.7438 99.6987 24.0969 96.9322 22.4993C95.3971 21.6126 94.3116 20.4272 93.9587 19.2521ZM39.7277 14.5989C39.3502 14.5989 39.203 14.4754 39.203 14.1587C39.203 13.7394 39.3502 13.7185 42.3082 13.7185C45.0537 13.7185 45.4051 13.7599 45.3421 14.0753C45.3027 14.2716 44.9233 14.5439 44.4986 14.6806L43.7262 14.929L43.6603 20.5415C43.6161 24.2865 43.6782 26.4469 43.8467 27.0342C44.3476 28.781 45.8754 29.7855 48.0312 29.7855C49.5319 29.7855 50.4086 29.4342 51.51 28.3911C52.6947 27.2698 52.8836 26.2043 52.8798 20.6666C52.8762 15.2042 52.7812 14.7534 51.6093 14.6401C51.076 14.5883 50.8973 14.464 50.8973 14.1448C50.8973 13.7469 51.0733 13.7185 53.545 13.7185C56.0457 13.7185 56.1928 13.743 56.1928 14.1587C56.1928 14.4299 56.0445 14.6002 55.8066 14.6022C54.7847 14.6112 54.7659 14.7085 54.6284 20.6982C54.4857 26.9182 54.3524 27.6547 53.0931 29.1783C52.73 29.6179 51.8639 30.2561 51.1687 30.5968C50.0357 31.1518 49.6752 31.2155 47.6979 31.2119C45.8751 31.2082 45.2996 31.12 44.3882 30.7047C43.0577 30.0984 42.1925 29.3138 41.5546 28.1347C41.1094 27.3116 41.0713 26.8663 40.9682 21.2898C40.8501 14.9066 40.793 14.5989 39.7277 14.5989ZM60.3747 14.5989C59.8702 14.5989 59.7231 14.4994 59.7231 14.1587C59.7231 13.7461 59.8641 13.7196 61.9846 13.7366L64.2463 13.7546L65.3285 15.0021C65.9232 15.6882 67.8625 17.8343 69.6375 19.7711C71.4127 21.708 73.4506 23.9611 74.1662 24.7782C74.8819 25.5954 75.5555 26.2639 75.6632 26.2639C75.7738 26.2639 75.8289 23.9556 75.7895 20.9623L75.7198 15.6607L75.1007 15.1298C74.7603 14.8377 74.2392 14.5989 73.9425 14.5989C73.5477 14.5989 73.4032 14.4792 73.4032 14.1526C73.4032 13.7227 73.5158 13.7084 76.4369 13.7674C78.9208 13.8176 79.4709 13.8869 79.4709 14.1497C79.4709 14.337 79.1637 14.5336 78.7333 14.6214C78.3278 14.7041 77.8809 14.8864 77.7404 15.0263C77.5592 15.207 77.4669 17.5434 77.422 23.0833L77.3587 30.8858H76.7192C76.1687 30.8858 75.5134 30.2657 72.0098 26.4289C69.7713 23.9775 67.1584 21.0641 66.2034 19.9547C65.2483 18.8451 64.3924 17.929 64.3015 17.9189C64.0453 17.8902 64.1072 27.803 64.3692 28.7439C64.5735 29.4771 64.7139 29.6034 65.5817 29.835C66.2805 30.0214 66.5632 30.2105 66.5632 30.4914C66.5632 30.852 66.2968 30.8858 63.4741 30.8858C60.6008 30.8858 60.3851 30.8571 60.3851 30.4733C60.3851 30.1922 60.5929 30.0192 61.037 29.9305C62.3843 29.6618 62.4737 29.2352 62.5493 22.7145C62.5917 19.0624 62.5295 16.5071 62.385 15.9721C62.1311 15.0312 61.4983 14.5989 60.3747 14.5989ZM83.5108 14.5989C83.0381 14.5989 82.891 14.4944 82.891 14.1587C82.891 13.7381 83.0381 13.7185 86.2007 13.7185C89.3631 13.7185 89.5104 13.7381 89.5104 14.1587C89.5104 14.4816 89.3631 14.5989 88.9586 14.5989C88.6554 14.5989 88.2045 14.801 87.9569 15.0479C87.5198 15.4839 87.5086 15.7007 87.5709 22.4391C87.6314 29.0171 87.6574 29.3977 88.063 29.6934C88.2987 29.8651 88.7206 30.0055 89.0008 30.0055C89.3631 30.0055 89.5104 30.1324 89.5104 30.4457C89.5104 30.8663 89.3631 30.8858 86.2007 30.8858C83.1133 30.8858 82.891 30.8581 82.891 30.4739C82.891 30.164 83.1075 30.0272 83.7651 29.9223C85.0707 29.7141 85.1375 29.2877 85.0561 21.6789C84.9911 15.5856 84.9631 15.2057 84.5588 14.911C84.3231 14.7393 83.8516 14.5989 83.5108 14.5989ZM106.598 14.5989C106.296 14.5989 106.066 14.4314 105.995 14.1587C105.883 13.7331 105.988 13.7185 109.169 13.7185C112.31 13.7185 112.457 13.7381 112.457 14.1587C112.457 14.497 112.31 14.5989 111.822 14.5989C110.433 14.5989 110.465 14.8507 112.567 20.6066C113.637 23.5366 114.676 26.3198 114.876 26.7915L115.239 27.6492L116.924 23.1599C118.908 17.8755 119.165 16.8982 118.828 15.9344C118.594 15.2627 117.681 14.5989 116.992 14.5989C116.797 14.5989 116.65 14.4096 116.65 14.1587C116.65 13.7375 116.797 13.7185 120.07 13.7185C123.343 13.7185 123.49 13.7375 123.49 14.1587C123.49 14.4719 123.343 14.5989 122.98 14.5989C122.053 14.5989 121.644 15.0924 121.777 16.0511C121.914 17.038 125.709 27.6449 125.868 27.4862C126.127 27.2281 130.33 15.8097 130.33 15.3646C130.33 14.8313 129.956 14.5989 129.098 14.5989C128.712 14.5989 128.565 14.4776 128.565 14.1587C128.565 13.743 128.712 13.7185 131.212 13.7185C133.458 13.7185 133.86 13.7705 133.86 14.0601C133.86 14.2481 133.585 14.4974 133.249 14.6143C132.492 14.8773 132.302 15.1775 131.354 17.6093C130.937 18.6772 129.633 22.0194 128.456 25.036C127.278 28.0529 126.265 30.6528 126.203 30.8136C126.141 30.9745 125.776 31.106 125.392 31.106H124.693L123.109 26.9792C122.237 24.7097 121.207 22.0208 120.82 21.004C120.157 19.2616 120.101 19.186 119.852 19.6832C119.706 19.9738 118.659 22.6675 117.524 25.6694L115.462 31.1275L114.692 31.0618L113.922 30.996L110.986 23.3099C109.346 19.0156 107.837 15.3974 107.568 15.1113C107.302 14.8294 106.866 14.5989 106.598 14.5989ZM150.716 14.6922C150.679 14.6086 150.679 14.3082 150.679 14.3082C150.679 14.3082 150.671 14.1998 150.716 14.142C150.762 14.0844 150.778 14.0828 150.94 14.0674L150.942 14.0672C151.537 14.0105 152.733 13.9151 153.73 13.8715C153.821 13.8675 153.923 13.8629 154.033 13.8579L154.036 13.8578L154.037 13.8577L154.038 13.8577C155.136 13.8078 157.1 13.7411 158.45 13.8087C161.041 13.9382 162.883 15.1918 163.511 17.2632C164.139 19.3346 163.807 21.279 162.951 22.5167C162.095 23.7544 160.656 24.82 158.264 24.7507C156.289 24.6934 155.761 24.3233 155.338 24.0275C155.249 23.965 155.165 23.9057 155.072 23.8536V26.4952C155.093 28.2968 155.108 29.1621 155.248 29.4824C155.435 29.9136 155.86 30.1792 156.687 30.3829C156.687 30.3829 157.061 30.4707 157.157 30.5643C157.254 30.6579 157.254 30.8658 157.254 30.8658C157.254 30.8658 157.274 31.0602 157.196 31.1593C157.118 31.2584 156.969 31.2386 156.969 31.2386L153.307 31.209L151.098 31.2032C151.098 31.2032 150.867 31.2476 150.78 31.1544C150.693 31.0609 150.701 30.8663 150.701 30.8663C150.701 30.8663 150.72 30.6567 150.821 30.5629C150.923 30.469 151.3 30.3641 151.3 30.3641C152.151 30.1248 152.521 29.8716 152.714 29.3946C152.869 29.0101 152.87 28.297 152.869 22.4779C152.867 16.9595 152.859 15.9301 152.733 15.634C152.546 15.1958 152.077 15.0797 151.41 14.9143L151.41 14.9143C151.278 14.8815 151.138 14.8468 150.991 14.8073C150.991 14.8073 150.753 14.7759 150.716 14.6922ZM161.38 19.1952C161.38 20.1001 161.364 21.5168 160.402 22.4224C159.439 23.328 157.544 23.5759 156.258 23.3237C155.853 23.2443 155.621 23.1218 155.442 23.0273L155.424 23.0179L155.095 22.8443L155.076 19.665C155.064 17.6729 155.085 16.375 155.132 16.1894C155.175 15.139 156.722 15.0084 157.479 15.0473C160.714 15.0473 161.285 17.7762 161.38 19.1952ZM140.556 13.8418C140.556 13.8418 140.398 13.9025 140.159 13.9934L139.295 14.4401L138.672 15.9948C138.33 16.8499 137.705 18.4196 137.282 19.483C136.512 21.4199 136.003 22.6925 135.468 24.0207C135.311 24.4114 134.835 25.6011 134.412 26.6645C133.988 27.7278 133.565 28.7398 133.471 28.9134C133.456 28.9422 133.439 28.9733 133.422 29.0061C133.185 29.4517 132.774 30.2255 132.047 30.3426C132.047 30.3426 131.648 30.3819 131.5 30.5281C131.352 30.6745 131.366 30.7941 131.366 30.7941V30.9784C131.366 30.9784 131.38 31.0678 131.463 31.1122C131.547 31.1568 131.661 31.1593 131.661 31.1593L134.318 31.1291H137.065C137.065 31.1291 137.259 31.1518 137.334 31.0896C137.409 31.0274 137.429 30.9352 137.429 30.9352V30.7411C137.429 30.7411 137.391 30.5307 137.282 30.4485C137.174 30.3665 136.766 30.3103 136.766 30.3103C135.666 30.1656 135.477 29.3331 135.613 28.5845C135.68 28.2167 136.121 26.8562 136.619 25.4865L136.791 25.0131L139.669 24.991C141.252 24.9789 142.618 24.9871 142.706 25.0093C142.831 25.0409 143.006 25.3964 143.519 26.6626C144.297 28.5811 144.359 28.8148 144.187 29.1737C144.176 29.1956 144.165 29.2197 144.153 29.2456C143.992 29.5928 143.678 30.2672 142.887 30.3359C142.887 30.3359 142.467 30.3504 142.363 30.476C142.259 30.6017 142.281 30.7462 142.281 30.7462V30.9383C142.281 30.9383 142.309 31.0508 142.363 31.0954C142.417 31.14 142.508 31.1287 142.508 31.1287L145.12 31.1099L148.792 31.1098C148.792 31.1098 148.936 31.1252 148.976 31.0698C149.015 31.0143 149.023 30.949 149.023 30.949V30.694C149.023 30.694 149.007 30.5583 148.936 30.4835C148.866 30.4088 148.389 30.3299 148.389 30.3299C147.781 30.2317 147.478 29.7291 147.253 29.3548C147.195 29.2593 147.143 29.1722 147.091 29.1023C146.987 28.9597 146.613 28.1779 146.321 27.4261C146.029 26.6743 145.369 24.9758 144.855 23.652C144.341 22.3283 143.624 20.4816 143.261 19.5485C142.898 18.6152 142.209 16.8396 141.73 15.6025C141.651 15.3995 141.58 15.2171 141.517 15.0539L141.517 15.0532C141.195 14.2224 141.066 13.8872 141.03 13.8418C140.914 13.6945 140.556 13.8418 140.556 13.8418ZM140.385 18.8969C140.269 18.6149 140.065 18.1088 139.932 17.7725C139.69 17.1611 139.598 17.0202 139.523 17.1465C139.501 17.1834 139.348 17.6013 139.184 18.0752C138.119 21.1434 137.636 22.5249 137.54 22.7852C137.479 22.9489 137.429 23.1175 137.429 23.16C137.429 23.2089 138.295 23.2374 139.78 23.2374C141.072 23.2374 142.13 23.2214 142.13 23.2017C142.13 23.1821 142.014 22.8893 141.873 22.5507C141.732 22.2121 141.387 21.367 141.107 20.6725C140.826 19.9781 140.501 19.1791 140.385 18.8969Z" fill="#A1ABC6"/>
</svg>
