<svg width="55" height="56" viewBox="0 0 55 56" fill="none" xmlns="http://www.w3.org/2000/svg">
<path fill-rule="evenodd" clip-rule="evenodd" d="M47.3632 1.97345C47.8097 1.51011 47.796 0.772565 47.3327 0.326101C46.8693 -0.120363 46.1318 -0.106684 45.6853 0.356655L36.481 9.90887L27.0316 3.91812C26.5682 3.62432 25.9626 3.69369 25.5776 4.08466L16.1796 13.6292C16.1724 13.6364 16.1654 13.6438 16.1585 13.6512L2.87691 27.8648C2.4376 28.3349 2.4626 29.0721 2.93273 29.5114C3.40286 29.9508 4.14011 29.9258 4.57941 29.4556L17.8506 15.2532L26.5782 6.38956L36.0364 12.3859C36.5038 12.6822 37.1151 12.6089 37.4991 12.2103L47.3632 1.97345ZM48.0777 5.9806C48.0777 5.33716 47.5561 4.81555 46.9126 4.81555C46.2692 4.81555 45.7476 5.33716 45.7476 5.9806V10.6408H45.6699C43.9541 10.6408 42.5631 12.0317 42.5631 13.7476V33.0097C42.5631 34.7256 43.9541 36.1165 45.6699 36.1165H45.7476V44.9709C45.7476 45.6143 46.2692 46.1359 46.9126 46.1359C47.5561 46.1359 48.0777 45.6143 48.0777 44.9709V36.1165H48.1554C49.8712 36.1165 51.2622 34.7256 51.2622 33.0097V13.7476C51.2622 12.0317 49.8712 10.6408 48.1554 10.6408H48.0777V5.9806ZM26.8737 9.47572C27.5172 9.47572 28.0388 9.99733 28.0388 10.6408V14.2136H28.1165C29.8323 14.2136 31.2233 15.6045 31.2233 17.3204V32.699C31.2233 34.4148 29.8323 35.8058 28.1165 35.8058H28.0388V49.6311C28.0388 50.2745 27.5172 50.7961 26.8737 50.7961C26.2303 50.7961 25.7087 50.2745 25.7087 49.6311V35.8058H25.631C23.9152 35.8058 22.5242 34.4148 22.5242 32.699V17.3204C22.5242 15.6045 23.9152 14.2136 25.631 14.2136H25.7087V10.6408C25.7087 9.99733 26.2303 9.47572 26.8737 9.47572ZM18.0971 19.0291C18.0971 18.3857 17.5755 17.8641 16.932 17.8641C16.2886 17.8641 15.767 18.3857 15.767 19.0291V22.6019H15.6894C13.9735 22.6019 12.5826 23.9929 12.5826 25.7087V38.6019C12.5826 40.3178 13.9735 41.7087 15.6894 41.7087H15.767V52.8932H8.15524V49.6311H8.38832C10.1042 49.6311 11.4951 48.2401 11.4951 46.5243V39.534C11.4951 37.8181 10.1042 36.4272 8.38832 36.4272H8.15524V32.0777C8.15524 31.4342 7.63363 30.9126 6.99019 30.9126C6.34675 30.9126 5.82514 31.4342 5.82514 32.0777V36.4281C4.14523 36.4694 2.79608 37.8441 2.79608 39.534V46.5243C2.79608 48.2141 4.14523 49.5889 5.82514 49.6301V52.8932H1.5534C0.69548 52.8932 0 53.5887 0 54.4466C0 55.3045 0.69548 56 1.5534 56H53.4369C54.2948 56 54.9903 55.3045 54.9903 54.4466C54.9903 53.5887 54.2948 52.8932 53.4369 52.8932H37.9806V43.1068H38.0583C39.7742 43.1068 41.1651 41.7158 41.1651 40V24C41.1651 22.2842 39.7742 20.8932 38.0583 20.8932H37.9806V16.3884C37.9806 15.7449 37.459 15.2233 36.8156 15.2233C36.1721 15.2233 35.6505 15.7449 35.6505 16.3884V20.8932H35.5729C33.857 20.8932 32.4661 22.2842 32.4661 24V40C32.4661 41.7158 33.857 43.1068 35.5729 43.1068H35.6505V52.8932H18.0971V41.7087H18.1748C19.8906 41.7087 21.2816 40.3178 21.2816 38.6019V25.7087C21.2816 23.9929 19.8906 22.6019 18.1748 22.6019H18.0971V19.0291ZM35.5729 24H38.0583V40H35.5729V24ZM28.1165 17.3204H25.631V32.699H28.1165V17.3204Z" fill="url(#paint0_linear)"/>
<defs>
<linearGradient id="paint0_linear" x1="-3.16164e-07" y1="56.2825" x2="67.8528" y2="39.653" gradientUnits="userSpaceOnUse">
<stop stop-color="#7D4DCF"/>
<stop offset="0.432292" stop-color="#2F49D9"/>
<stop offset="1" stop-color="#212071"/>
</linearGradient>
</defs>
</svg>
